<svg xmlns="http://www.w3.org/2000/svg" fill="none" viewBox="0 0 53 20"><g fill-rule="evenodd" clip-path="url(#a)" clip-rule="evenodd"><path fill="url(#b)" d="M10.17 20c5.61 0 10.17-4.48 10.17-10S15.78 0 10.17 0A10.09 10.09 0 0 0 0 10c0 5.52 4.55 10 10.17 10Zm.04-.94A9.14 9.14 0 0 0 19.42 10c0-5-4.12-9.06-9.21-9.06A9.14 9.14 0 0 0 1 10c0 5 4.12 9.06 9.21 9.06Zm-.04-.7c4.7 0 8.5-3.74 8.5-8.36 0-4.62-3.8-8.37-8.5-8.37S1.66 5.38 1.66 10c0 4.62 3.8 8.37 8.5 8.37Zm.02-1.01c4.14 0 7.49-3.3 7.49-7.37a7.43 7.43 0 0 0-7.5-7.37A7.43 7.43 0 0 0 2.7 9.98a7.43 7.43 0 0 0 7.49 7.37ZM9.77 4.03l5.42 9.25.58-1-4.84-8.25H9.77Zm-5.2 8.24L9.2 4.35v.02l.02-.02 5.5 9.39h-1.17l-1.39-2.37a6.73 6.73 0 0 0-3.05-.23L9.8 10a7.95 7.95 0 0 1 1.63.09l-2.2-3.77-4.07 6.94-.58-.99Zm3.15-.12L9.81 8.6l-.58-.99-3.6 6.14h1.16l.01-.02a6.81 6.81 0 0 1 5.67-.5l-.78-1.33a7.89 7.89 0 0 0-3.97.26Z"/><path fill="url(#c)" d="M25.2 11h1.9l-.95-2.72L25.2 11Zm2.68 2.23-.43-1.22h-2.6l-.43 1.22h-1.43l2.37-6.54h1.6l2.35 6.54h-1.43Z"/><path fill="url(#d)" d="M31.2 12.58a2.62 2.62 0 0 1-.72-1.94c0-.8.24-1.44.73-1.93a2.55 2.55 0 0 1 1.88-.73c.65 0 1.19.16 1.62.46.43.3.72.74.87 1.3h-1.45c-.18-.43-.52-.65-1.04-.65-.39 0-.7.14-.91.42-.22.28-.33.65-.33 1.13 0 .48.1.86.33 1.14.22.28.52.41.91.41.51 0 .86-.21 1.04-.65h1.45c-.15.54-.45.97-.89 1.29-.43.32-.97.48-1.6.48-.77 0-1.4-.25-1.88-.73Z"/><path fill="url(#e)" d="M40.8 11.76c.29-.27.43-.64.43-1.12 0-.47-.14-.84-.42-1.11-.28-.27-.61-.4-.99-.4s-.7.13-.98.4c-.28.26-.42.63-.42 1.1 0 .48.14.85.42 1.13.29.27.61.4.99.4.37 0 .7-.13.98-.4Zm-3.03.8a2.68 2.68 0 0 1-.71-1.93c0-.77.23-1.41.7-1.9.48-.5 1.07-.75 1.8-.75s1.28.3 1.67.88v-.8h1.34v5.17h-1.34v-.87c-.4.63-.96.95-1.68.95-.71 0-1.3-.25-1.78-.76Z"/><path fill="url(#f)" d="M44.57 13.3h1.35V6.77h-1.35v6.53Z"/><path fill="url(#g)" d="M51.23 11.74c.28-.27.42-.64.42-1.12 0-.47-.14-.84-.42-1.11-.28-.27-.61-.4-.99-.4-.37 0-.7.13-.98.4-.28.26-.41.63-.41 1.1 0 .48.14.85.42 1.13.28.27.6.4.98.4.37 0 .7-.13.98-.4Zm-3.04.8a2.68 2.68 0 0 1-.71-1.93c0-.77.23-1.41.7-1.9a2.4 2.4 0 0 1 1.8-.75c.73 0 1.29.3 1.67.88v-.8h1.34v5.17h-1.34v-.87c-.4.63-.96.95-1.68.95-.71 0-1.3-.26-1.78-.76Z"/></g><defs><linearGradient id="b" x1="19.2" x2="4.49" y1="20" y2="1.54" gradientUnits="userSpaceOnUse"><stop stop-color="#5A81FF"/><stop offset=".52" stop-color="#E40C5B"/><stop offset="1" stop-color="#FF4C3B"/></linearGradient><linearGradient id="c" x1="53.35" x2="51.06" y1="14.37" y2="2.47" gradientUnits="userSpaceOnUse"><stop offset=".02" stop-color="#645AFF"/><stop offset=".48" stop-color="#E40C5B"/><stop offset="1" stop-color="#FF4C3B"/></linearGradient><linearGradient id="d" x1="53.35" x2="51.06" y1="14.37" y2="2.47" gradientUnits="userSpaceOnUse"><stop offset=".02" stop-color="#645AFF"/><stop offset=".48" stop-color="#E40C5B"/><stop offset="1" stop-color="#FF4C3B"/></linearGradient><linearGradient id="e" x1="53.35" x2="51.06" y1="14.37" y2="2.47" gradientUnits="userSpaceOnUse"><stop offset=".02" stop-color="#645AFF"/><stop offset=".48" stop-color="#E40C5B"/><stop offset="1" stop-color="#FF4C3B"/></linearGradient><linearGradient id="f" x1="53.35" x2="51.06" y1="14.37" y2="2.47" gradientUnits="userSpaceOnUse"><stop offset=".02" stop-color="#645AFF"/><stop offset=".48" stop-color="#E40C5B"/><stop offset="1" stop-color="#FF4C3B"/></linearGradient><linearGradient id="g" x1="53.35" x2="51.06" y1="14.37" y2="2.47" gradientUnits="userSpaceOnUse"><stop offset=".02" stop-color="#645AFF"/><stop offset=".48" stop-color="#E40C5B"/><stop offset="1" stop-color="#FF4C3B"/></linearGradient><clipPath id="a"><path fill="#fff" d="M0 0h53v20H0z"/></clipPath></defs></svg>