<svg xmlns="http://www.w3.org/2000/svg" fill="none" viewBox="0 0 61 20"><g clip-path="url(#a)"><path fill="#fff" d="m22.76 5.95 2.32.01v8.15H22.8l-.02-1.03c-.55.87-1.73 1.2-2.53 1.22-2.46.01-4.24-1.59-4.24-4.3 0-2.73 1.88-4.33 4.3-4.3 1.04 0 2 .4 2.44 1.14l.01-.89ZM18.4 10c0 1.37.97 2.17 2.17 2.17a2.11 2.11 0 0 0 2.18-2.09c0-1.18-.75-2.26-2.18-2.26-1.2 0-2.17.82-2.17 2.18Zm15.35-4.11v4.34c0 1.27.54 1.92 1.7 1.92 1.1.02 1.86-.95 1.86-2.02V5.9h2.36v8.22h-2.16l-.09-1.08a3.02 3.02 0 0 1-2.66 1.25c-1.85 0-3.43-.83-3.43-4.03V5.9h2.42Zm13.88 8.22V9.77c0-1.27-.55-1.92-1.7-1.92-1.11-.01-1.86.95-1.86 2.02v4.24H41.7V5.9h2.25v1.05a3.1 3.1 0 0 1 2.67-1.25c1.84 0 3.43.86 3.43 4.06v4.36h-2.42Zm10.63-8.16 2.31.01v8.15H58.3l-.02-1.03c-.55.87-1.73 1.2-2.53 1.22-2.46.01-4.24-1.59-4.24-4.3 0-2.73 1.88-4.33 4.3-4.3 1.04 0 2 .4 2.44 1.14l.02-.89ZM53.89 10c0 1.37.97 2.17 2.17 2.17a2.11 2.11 0 0 0 2.18-2.09c0-1.18-.75-2.26-2.18-2.26-1.2 0-2.17.82-2.17 2.18ZM27.11 5.87v8.71c0 .79-.27 1.1-.7 1.13h-.77v1.91s.3.1.77.13c1.64.18 3.13-.78 3.08-3.24V5.87h-2.38Z"/><path fill="url(#b)" d="M2.6 1.83C1.18 3.48.2 6.13.05 9.16h4.58a8.07 8.07 0 0 1 1.38-4.29 8.69 8.69 0 0 0-3.4-3.04Z"/><path fill="url(#c)" d="M7.39 9.16h4.58C11.7 4.06 9.14.06 6 .06c-1.27 0-2.44.66-3.4 1.77a8.69 8.69 0 0 1 4.78 7.33Z"/><path fill="url(#d)" d="M2.6 18.18C1.18 16.53.2 13.88.05 10.85h4.58a8.07 8.07 0 0 0 1.38 4.28 8.69 8.69 0 0 1-3.4 3.05Z"/><path fill="url(#e)" d="M7.39 10.85h4.58c-.26 5.1-2.83 9.1-5.96 9.1a4.56 4.56 0 0 1-3.4-1.77 8.69 8.69 0 0 0 4.78-7.33Z"/></g><defs><linearGradient id="b" x1="1.43" x2="4.81" y1="8.63" y2="3.72" gradientUnits="userSpaceOnUse"><stop offset=".15" stop-color="#146BB5"/><stop offset=".27" stop-color="#1566AE"/><stop offset=".43" stop-color="#155CA0"/><stop offset=".63" stop-color="#144C8B"/><stop offset=".85" stop-color="#0E356F"/><stop offset="1" stop-color="#06235B"/></linearGradient><linearGradient id="c" x1="10.06" x2="4.71" y1="3.79" y2="6.63" gradientUnits="userSpaceOnUse"><stop stop-color="#7EC8EF"/><stop offset="1" stop-color="#405EAB"/></linearGradient><linearGradient id="d" x1="1.43" x2="4.81" y1="11.38" y2="16.28" gradientUnits="userSpaceOnUse"><stop offset=".15" stop-color="#8DABD1"/><stop offset=".31" stop-color="#87A5CD"/><stop offset=".54" stop-color="#7797C4"/><stop offset=".8" stop-color="#5F81B6"/><stop offset="1" stop-color="#4970AA"/></linearGradient><linearGradient id="e" x1="10.82" x2="5.47" y1="16.62" y2="13.78" gradientUnits="userSpaceOnUse"><stop offset=".06" stop-color="#CCE6F8"/><stop offset=".8" stop-color="#82A5D4"/></linearGradient><clipPath id="a"><path fill="#fff" d="M0 0h60.61v20H0z"/></clipPath></defs></svg>