<svg xmlns="http://www.w3.org/2000/svg" fill="none" viewBox="0 0 105 10"><mask id="a" width="105" height="10" x="0" y="0" maskUnits="userSpaceOnUse" style="mask-type:luminance"><path fill="#fff" d="M104.85 0H0v10h104.85V0Z"/></mask><g fill="#fff" mask="url(#a)"><path d="M15.24 8.41V.31a.15.15 0 0 0-.14-.15h-1.17a.15.15 0 0 0-.14.14v9.42a.15.15 0 0 0 .14.15h6.02a.15.15 0 0 0 .15-.15V8.56a.15.15 0 0 0-.15-.15h-4.7ZM30.3.16h-7a.15.15 0 0 0-.14.14v1.17c0 .08.06.14.14.14h7c.07 0 .14-.06.14-.14V.3a.15.15 0 0 0-.15-.14Zm0 8.25h-7a.15.15 0 0 0-.14.15v1.16c0 .08.06.15.14.15h7c.07 0 .14-.07.14-.15V8.56a.15.15 0 0 0-.15-.15Zm0-4.13h-7a.15.15 0 0 0-.14.14V5.6c0 .08.06.14.14.14h7c.07 0 .14-.06.14-.14V4.42a.15.15 0 0 0-.15-.14ZM81.54.16h-6.99a.15.15 0 0 0-.14.14v1.17c0 .08.06.14.14.14h7c.08 0 .14-.06.14-.14V.3a.15.15 0 0 0-.15-.14Zm0 8.25h-6.99a.15.15 0 0 0-.14.15v1.16c0 .08.06.15.14.15h7c.08 0 .14-.07.14-.15V8.56a.15.15 0 0 0-.15-.15Zm0-4.13h-6.99a.15.15 0 0 0-.14.14V5.6c0 .08.06.14.14.14h7c.08 0 .14-.06.14-.14V4.42a.15.15 0 0 0-.15-.14ZM53.45.16h-1.17a.15.15 0 0 0-.14.14v9.42c0 .08.06.15.14.15h1.17c.08 0 .14-.07.14-.15V.3a.15.15 0 0 0-.14-.14Zm-2.92 4.13H46.8V.3a.15.15 0 0 0-.15-.15H45.5a.15.15 0 0 0-.15.15v3.98h-1.31a.15.15 0 0 0-.15.14V5.6a.15.15 0 0 0 .15.14h1.31v3.98a.15.15 0 0 0 .15.15h1.16a.15.15 0 0 0 .15-.15V5.74h3.73a.15.15 0 0 0 .15-.14V4.43a.15.15 0 0 0-.15-.14ZM8.43 5.74h1.62a.15.15 0 0 0 .14-.14V4.43a.15.15 0 0 0-.14-.15H7.78L6 .28a.2.2 0 0 0-.17-.12H4.37a.2.2 0 0 0-.18.11L2.41 4.28H.15a.15.15 0 0 0-.15.15V5.6a.15.15 0 0 0 .15.14h1.61L.01 9.67a.15.15 0 0 0 .14.2h1.3a.2.2 0 0 0 .17-.12l3.48-7.8 3.47 7.8a.2.2 0 0 0 .18.12h1.3a.15.15 0 0 0 .13-.2L8.43 5.73ZM41.48 2.3A3.52 3.52 0 0 0 38.24.17h-4.1a.15.15 0 0 0-.15.14v1.17a.15.15 0 0 0 .15.14h4.1a2.04 2.04 0 0 1 1.71.91 2.04 2.04 0 0 1 .2 1.96 2.08 2.08 0 0 1-1.9 1.26h-4.11a.15.15 0 0 0-.15.15v3.83a.15.15 0 0 0 .15.15h1.16a.15.15 0 0 0 .15-.15V7.2h2.8a3.52 3.52 0 0 0 3.23-4.9Zm50.94 3.35A3.5 3.5 0 0 0 90.85.43 3.52 3.52 0 0 0 89.5.16h-4.1a.15.15 0 0 0-.15.14v1.17a.15.15 0 0 0 .15.14h4.1a2.04 2.04 0 0 1 1.72.93 2.06 2.06 0 0 1-1.72 3.2h-4.1a.15.15 0 0 0-.15.15v3.83a.15.15 0 0 0 .15.15h1.16a.15.15 0 0 0 .15-.15V7.2h2.79c.24 0 .48-.03.72-.08l1.19 2.66a.15.15 0 0 0 .13.09h1.33a.15.15 0 0 0 .13-.2L91.6 6.5c.32-.24.6-.53.82-.85ZM71.2.16h-6.98a.15.15 0 0 0-.15.14v1.17a.15.15 0 0 0 .15.14h4.97l-1.93 2.47a.13.13 0 0 0 .1.2h1.47a.3.3 0 0 0 .22-.1l2.24-2.86a.3.3 0 0 0 .07-.18V.3a.15.15 0 0 0-.15-.14Zm0 8.25h-5.47l1.94-2.46a.13.13 0 0 0-.03-.18.13.13 0 0 0-.07-.03H66.1a.3.3 0 0 0-.23.11l-2.22 2.83a.3.3 0 0 0-.06.18v.86a.15.15 0 0 0 .14.15h7.48a.15.15 0 0 0 .14-.15V8.56a.15.15 0 0 0-.14-.15Zm32.33-2.68a.15.15 0 0 0-.1.04.15.15 0 0 0-.05.08c-.04.23-.1.45-.18.67a3.1 3.1 0 0 1-1.14 1.5c-.52.35-1.13.53-1.75.52a2.95 2.95 0 0 1-2.6-1.42c-.24-.39-.4-.82-.48-1.27a.15.15 0 0 0-.15-.12H95.9a.15.15 0 0 0-.14.17c.05.38.15.77.29 1.13A4.47 4.47 0 0 0 100.3 10a4.42 4.42 0 0 0 3.84-2.11 5.16 5.16 0 0 0 .7-2.05.15.15 0 0 0-.03-.06.15.15 0 0 0-.1-.05h-1.2Zm-6.45-1.45a.15.15 0 0 0 .14-.13c.05-.23.1-.45.19-.68.21-.6.61-1.12 1.13-1.48a3.16 3.16 0 0 1 2.99-.29c.57.24 1.05.65 1.38 1.18.23.39.4.82.47 1.27 0 .04.03.07.05.09.03.02.06.03.1.03h1.18a.14.14 0 0 0 .1-.04.14.14 0 0 0 .03-.12 5.43 5.43 0 0 0-.28-1.14A4.52 4.52 0 0 0 100.3 0a4.4 4.4 0 0 0-3.84 2.11 5.14 5.14 0 0 0-.7 2.06.15.15 0 0 0 .14.1h1.18Z"/></g></svg>