<svg xmlns="http://www.w3.org/2000/svg" fill="none" viewBox="0 0 63 20"><g clip-path="url(#a)"><path fill="url(#b)" d="M19.97 9.32A10 10 0 0 0 2.48 3.4l-.03.05a9.98 9.98 0 0 0-2.34 8v.04a12.07 12.07 0 0 0 .2.95 10 10 0 0 0 19.66-3.12Zm-2.18.15c.05.68 0 1.34-.12 1.98a7.92 7.92 0 0 0-3.42-3.77c.26-3-.76-4.26-1.91-4.47a1.67 1.67 0 1 0-.29 3.31l.01.32a8.95 8.95 0 0 0-3.99-.1 5.5 5.5 0 0 1 1.24-2.99 3.42 3.42 0 0 1 3.6-1h.02a7.83 7.83 0 0 1 4.86 6.72ZM10.82 11c-.25.36-.54.7-.85 1.01a7.44 7.44 0 0 1-1.2-1.7l-.06-.09c-.18-.4-.33-.82-.44-1.25.7-.17 1.4-.23 2.07-.2h.1c.43.04.86.12 1.31.24-.2.7-.52 1.37-.92 1.99ZM7.41 2.62v.01a7.91 7.91 0 0 0-1.55 4.84c-2.73 1.28-3.31 2.8-2.92 3.9l.04.08a1.67 1.67 0 1 0 2.97-1.5l.28-.17a8.96 8.96 0 0 0 1.9 3.51 5.5 5.5 0 0 1-3.2.43 3.43 3.43 0 0 1-2.67-2.61l-.06-.58a7.83 7.83 0 0 1 5.2-7.9Zm3.12 15.18a7.78 7.78 0 0 1-5.62-1.87 7.9 7.9 0 0 0 4.96-1.08c2.47 1.72 4.08 1.47 4.83.57a1.67 1.67 0 1 0-2.72-1.9c-.1-.04-.19-.1-.28-.15a8.93 8.93 0 0 0 2.08-3.4 5.5 5.5 0 0 1 1.97 2.56 3.43 3.43 0 0 1-.93 3.61 7.76 7.76 0 0 1-4.3 1.66Z"/><path fill="url(#c)" d="M12.34 3.2a1.62 1.62 0 0 0-.57 0c.96.52 1.65 1.97 1.29 4.83-.13.93-.4 1.84-.81 2.68a8.9 8.9 0 0 1-1.38 2.12c.26.2.54.38.83.54a8.93 8.93 0 0 0 1.68-2.45 8.5 8.5 0 0 0 .81-2.68c.44-3.4-.63-4.81-1.85-5.03Z" opacity=".9" style="mix-blend-mode:overlay"/><path fill="#fff" d="M13.06 8.03c.36-2.86-.33-4.31-1.3-4.83l-.1.02c.93.54 1.6 1.99 1.25 4.81-.12.93-.4 1.84-.81 2.68a8.87 8.87 0 0 1-1.33 2.05l.1.07a8.95 8.95 0 0 0 1.38-2.12 8.5 8.5 0 0 0 .8-2.68Z" opacity=".8" style="mix-blend-mode:overlay"/><path fill="url(#d)" d="m9.42 14.52-.26-.21a8.9 8.9 0 0 1-5.31.5 8 8 0 0 0 1.06 1.12 7.9 7.9 0 0 0 4.96-1.08l-.45-.33Z" opacity=".5" style="mix-blend-mode:overlay"/><path fill="url(#e)" d="m9.16 14.3-.13-.1a8.9 8.9 0 0 1-5.33.42l.15.2a8.9 8.9 0 0 0 5.3-.51Z" opacity=".6" style="mix-blend-mode:overlay"/><path fill="url(#f)" d="m2.95 11.37.03.09c.06.15.15.28.24.4-.02-1.09.88-2.42 3.54-3.53a8.54 8.54 0 0 1 2.72-.63c.85-.08 1.7-.03 2.53.13.04-.36.06-.7.06-.99a8.91 8.91 0 0 0-2.98-.23c-.93.06-1.85.27-2.72.63-3.16 1.33-3.85 2.96-3.42 4.13Z" opacity=".9" style="mix-blend-mode:overlay"/><path fill="#fff" d="M6.76 8.33C4.1 9.45 3.2 10.78 3.22 11.86l.08.09c0-1.08.91-2.39 3.54-3.49a8.54 8.54 0 0 1 2.72-.63 8.9 8.9 0 0 1 2.44.12l.01-.12a8.93 8.93 0 0 0-2.53-.13c-.93.06-1.85.27-2.72.63Z" opacity=".8" style="mix-blend-mode:overlay"/><path fill="url(#g)" d="m14.2 8.24-.05.33a8.93 8.93 0 0 1 3.1 4.35c.18-.48.33-.97.42-1.48a7.9 7.9 0 0 0-3.41-3.76l-.06.56Z" opacity=".4" style="mix-blend-mode:overlay"/><path fill="url(#h)" d="m14.15 8.57-.03.17a8.9 8.9 0 0 1 3.03 4.4l.09-.22a8.92 8.92 0 0 0-3.1-4.35Z" opacity=".5" style="mix-blend-mode:overlay"/><path fill="url(#i)" d="M14.7 15.42c.13-.14.23-.3.3-.49-.93.57-2.54.45-4.83-1.3a8.5 8.5 0 0 1-1.91-2.04A8.88 8.88 0 0 1 7.1 9.34c-.33.14-.63.3-.89.44.28.97.71 1.88 1.29 2.7a8.53 8.53 0 0 0 1.91 2.04c2.73 2.08 4.48 1.85 5.28.9Z" opacity=".9" style="mix-blend-mode:overlay"/><path fill="#fff" d="M10.17 13.63c2.3 1.75 3.9 1.87 4.83 1.3l.03-.1c-.93.54-2.52.4-4.78-1.33a8.5 8.5 0 0 1-1.92-2.04A8.88 8.88 0 0 1 7.22 9.3l-.1.05c.27.8.65 1.56 1.14 2.25a8.53 8.53 0 0 0 1.91 2.04Z" opacity=".8" style="mix-blend-mode:overlay"/><path fill="url(#j)" d="m6.37 7.24.32-.12A8.9 8.9 0 0 1 8.9 2.27c-.5.07-1.01.19-1.5.36a7.9 7.9 0 0 0-1.54 4.84l.5-.23h.01Z" opacity=".3" style="mix-blend-mode:overlay"/><path fill="url(#k)" d="m6.68 7.12.16-.06c.22-1.52.9-3.39 2.3-4.83l-.24.03a8.91 8.91 0 0 0-2.2 4.86Z" opacity=".4" style="mix-blend-mode:overlay"/><path fill="url(#l)" d="M9.32.02A9.97 9.97 0 0 0 2.48 3.4l-.03.05c.32.32 1.4.96 1.83 1.23A7.8 7.8 0 0 1 7.4 2.62 5.75 5.75 0 0 1 12.14.35c.2 0 .6.04.6.04A9.93 9.93 0 0 0 9.33.02Z" opacity=".4" style="mix-blend-mode:multiply"/><path fill="url(#m)" d="M10.53 17.8a7.78 7.78 0 0 1-5.62-1.87 5.78 5.78 0 0 1-4.6-3.49 10 10 0 0 0 10.36 7.54c.03-.5-.12-1.68-.15-2.18Z" opacity=".4" style="mix-blend-mode:multiply"/><path fill="url(#n)" d="M19.97 9.32c-.3-.03-1.8.09-2.18.15.05.68 0 1.34-.11 1.98l.14.4a5.79 5.79 0 0 1-.86 5.33v-.01a9.97 9.97 0 0 0 3.01-7.85Z" opacity=".4" style="mix-blend-mode:multiply"/><path fill="url(#o)" d="M12.24 2.6a3.17 3.17 0 0 1 .7.16 7.86 7.86 0 0 1 2.33 1.48c.33-.38.96-.8.96-.8s-.97-.98-2.45-1.29c-1.03-.21-3.37-.42-4.84 2.09l.01-.02a3.42 3.42 0 0 1 3.29-1.62Z" opacity=".5" style="mix-blend-mode:multiply"/><path fill="url(#p)" d="M15.28 15.64a3.1 3.1 0 0 1-.46.5l-.02.02c-.73.57-1.56 1-2.44 1.29.15.47.2 1.22.2 1.22s1.33-.34 2.34-1.47c.7-.79 2.05-2.7.62-5.24v.02a3.43 3.43 0 0 1-.24 3.66Z" opacity=".5" style="mix-blend-mode:multiply"/><path fill="url(#q)" d="M2.47 11.76c-.1-.21-.16-.43-.2-.65l-.01-.03a7.89 7.89 0 0 1 .1-2.76 5.67 5.67 0 0 1-1.15-.44s-.38 1.33.1 2.77c.33 1 1.32 3.13 4.22 3.15h-.01c-.2-.02-.4-.04-.6-.08a3.43 3.43 0 0 1-2.45-1.96Z" opacity=".5" style="mix-blend-mode:multiply"/><path fill="url(#r)" d="M11.82 6.5c.08.02.16.02.23.02 0 0-.05-1.04-.18-1.57a2.25 2.25 0 0 0-.52-1.1c-.15-.13-.61-.31-.98.79a1.67 1.67 0 0 0 1.45 1.86Z" opacity=".6" style="mix-blend-mode:multiply"/><path fill="url(#s)" d="M6.06 10.17a1.74 1.74 0 0 0-.1-.21s-.88.56-1.28.94c-.4.38-.6.72-.68 1-.05.2.03.69 1.17.45a1.67 1.67 0 0 0 .9-2.18Z" opacity=".5" style="mix-blend-mode:multiply"/><path fill="url(#t)" d="M12.11 13.32c-.05.07-.1.13-.13.2 0 0 .93.48 1.45.63.53.16.93.17 1.2.1.2-.06.59-.38-.18-1.24a1.67 1.67 0 0 0-2.34.31Z" opacity=".6" style="mix-blend-mode:multiply"/><path fill="url(#u)" d="M11.75 9.02c-.21.7-.5 1.33-.87 1.89l-.05.09c-.26.36-.54.7-.86 1.01a7.84 7.84 0 0 0 1.73 1.36 8.93 8.93 0 0 0 2.08-3.4 5.35 5.35 0 0 0-2.03-.95Z" opacity=".3" style="mix-blend-mode:multiply"/><path fill="url(#v)" d="M4.91 15.93a7.9 7.9 0 0 0 4.96-1.08l-.45-.33c-.47-.36-.9-.77-1.3-1.22a5.5 5.5 0 0 1-3.2.42 3.43 3.43 0 0 1-2.66-2.61 7.8 7.8 0 0 0 2.65 4.82Z" opacity=".3" style="mix-blend-mode:multiply"/><path fill="url(#w)" d="M9.97 12.01a7.44 7.44 0 0 1-1.2-1.7l-.05-.09c-.2-.4-.34-.82-.45-1.25a7.93 7.93 0 0 0-2.04.81 8.96 8.96 0 0 0 1.9 3.51 5.29 5.29 0 0 0 1.84-1.28Z" opacity=".3" style="mix-blend-mode:multiply"/><path fill="url(#x)" d="M7.4 2.63a7.91 7.91 0 0 0-1.54 4.84l.51-.23c.55-.23 1.12-.4 1.7-.5a5.5 5.5 0 0 1 1.24-3 3.42 3.42 0 0 1 3.62-.98 7.75 7.75 0 0 0-5.52-.14v.01Z" opacity=".3" style="mix-blend-mode:multiply"/><path fill="url(#y)" d="M17.67 11.44a7.92 7.92 0 0 0-3.42-3.76l-.05.56a8.47 8.47 0 0 1-.42 1.73 5.5 5.5 0 0 1 1.97 2.56 3.43 3.43 0 0 1-.93 3.61v.01a7.84 7.84 0 0 0 2.86-4.7v-.01Z" opacity=".3" style="mix-blend-mode:multiply"/><path fill="url(#z)" d="M8.07 7.94c.04.35.1.7.2 1.03.7-.17 1.4-.23 2.07-.2h.1c.43.04.86.12 1.31.24a7.83 7.83 0 0 0 .31-2.18 8.95 8.95 0 0 0-3.98-.1 4.8 4.8 0 0 0 0 1.2h-.01Z" opacity=".3" style="mix-blend-mode:multiply"/><path fill="#fff" d="M50.13 7.43 48.84 11h.01l1.29-3.56-.01-.02Zm-22.84 0L26 11l1.3-3.57-.01-.01Zm.32.9.97 2.68h-1.94l-.49 1.35h2.92l.83 2.3h1.85l-3.37-8.45-.77 2.11Z"/><path fill="#fff" d="m26 11 1.29-3.57.55-1.5h-1.42l-3.47 8.73h1.74l1.32-3.65Zm11.35-.83a7.95 7.95 0 0 0-1.68-.7c-.4-.13-.7-.25-.93-.36a1.12 1.12 0 0 1-.47-.38.94.94 0 0 1-.14-.5c0-.34.13-.6.4-.78.25-.18.62-.27 1.09-.27a4.52 4.52 0 0 1 2.3.64l.25-1.41a5.76 5.76 0 0 0-2.6-.66c-.65 0-1.2.1-1.66.31a2.38 2.38 0 0 0-1.47 2.24c0 .45.08.83.26 1.16.17.32.45.6.84.84.39.24.9.45 1.54.64.46.14.81.27 1.06.4.26.11.43.25.53.4.1.15.15.33.15.53 0 .36-.14.65-.44.85-.3.2-.7.3-1.22.3a5.33 5.33 0 0 1-2.71-.76l-.16 1.46c.21.15.48.27.8.38a6.76 6.76 0 0 0 2.15.35 3.8 3.8 0 0 0 2.43-.71c.6-.47.89-1.12.89-1.96 0-.44-.1-.83-.29-1.15a2.5 2.5 0 0 0-.92-.86Zm9.16-4.24h-7.38v1.43h7.38V5.93ZM43.7 7.95h-1.76v6.71h1.76v-6.7Zm5.14 3.06 1.29-3.58v.02l.55-1.52h-1.42l-3.47 8.73h1.74l.83-2.3.5-1.35h-.02Zm1.61-2.68.96 2.68H49.5l-.5 1.35h2.92l.83 2.3h1.84l-3.36-8.45-.77 2.12Zm9.82 2.8a3 3 0 0 0 1.03-.96c.27-.4.4-.87.4-1.41a2.57 2.57 0 0 0-1.5-2.48 3.98 3.98 0 0 0-1.72-.34h-.62v1.32h.38c1.17 0 1.75.5 1.75 1.49 0 1-.6 1.5-1.8 1.5h-.33v1.31h.9l1.84 3.1h1.96l-2.3-3.53Zm-3-5.2h-1.66v8.73h1.66V5.93Z"/></g><defs><linearGradient id="b" x1="3.17" x2="15.92" y1="16.82" y2="4.08" gradientUnits="userSpaceOnUse"><stop stop-color="#E6007A"/><stop offset=".21" stop-color="#703AC2"/><stop offset=".46" stop-color="#0070EB"/><stop offset=".77" stop-color="#0297FB"/><stop offset="1" stop-color="#0AE2FF"/></linearGradient><linearGradient id="e" x1="3.91" x2="6.04" y1="14.65" y2="14.63" gradientUnits="userSpaceOnUse"><stop stop-color="#fff" stop-opacity="0"/><stop offset="1" stop-color="#fff"/></linearGradient><linearGradient id="h" x1="17.07" x2="15.98" y1="12.94" y2="11.11" gradientUnits="userSpaceOnUse"><stop stop-color="#fff" stop-opacity="0"/><stop offset="1" stop-color="#fff"/></linearGradient><linearGradient id="k" x1="9.01" x2="7.97" y1="2.4" y2="4.26" gradientUnits="userSpaceOnUse"><stop stop-color="#fff" stop-opacity="0"/><stop offset="1" stop-color="#fff"/></linearGradient><linearGradient id="l" x1="9.47" x2="6.21" y1="1.45" y2="2.4" gradientUnits="userSpaceOnUse"><stop stop-color="#231F20"/><stop offset="1" stop-color="#fff"/></linearGradient><linearGradient id="m" x1="3.32" x2="6.04" y1="13.88" y2="16.72" gradientUnits="userSpaceOnUse"><stop stop-color="#231F20"/><stop offset="1" stop-color="#fff"/></linearGradient><linearGradient id="n" x1="17.94" x2="18.89" y1="13.45" y2="10.57" gradientUnits="userSpaceOnUse"><stop stop-color="#231F20"/><stop offset="1" stop-color="#fff"/></linearGradient><linearGradient id="o" x1="10.96" x2="15.32" y1="3.1" y2="4.1" gradientUnits="userSpaceOnUse"><stop stop-color="#231F20"/><stop offset="1" stop-color="#fff"/></linearGradient><linearGradient id="p" x1="15.49" x2="12.44" y1="14.28" y2="17.56" gradientUnits="userSpaceOnUse"><stop stop-color="#231F20"/><stop offset="1" stop-color="#fff"/></linearGradient><linearGradient id="q" x1="3.54" x2="2.23" y1="12.62" y2="8.34" gradientUnits="userSpaceOnUse"><stop stop-color="#231F20"/><stop offset="1" stop-color="#fff"/></linearGradient><linearGradient id="r" x1="11.91" x2="10.53" y1="4.71" y2="6.09" gradientUnits="userSpaceOnUse"><stop stop-color="#231F20"/><stop offset="1" stop-color="#fff"/></linearGradient><linearGradient id="s" x1="4.46" x2="6.35" y1="10.98" y2="11.49" gradientUnits="userSpaceOnUse"><stop stop-color="#231F20"/><stop offset="1" stop-color="#fff"/></linearGradient><linearGradient id="t" x1="13.62" x2="13.11" y1="14.3" y2="12.41" gradientUnits="userSpaceOnUse"><stop stop-color="#231F20"/><stop offset="1" stop-color="#fff"/></linearGradient><linearGradient id="u" x1="10.74" x2="11.57" y1="12.62" y2="11.48" gradientUnits="userSpaceOnUse"><stop stop-color="#231F20"/><stop offset="1" stop-color="#fff"/></linearGradient><linearGradient id="v" x1="7.89" x2="6.23" y1="12.13" y2="12.92" gradientUnits="userSpaceOnUse"><stop stop-color="#231F20"/><stop offset="1" stop-color="#fff"/></linearGradient><linearGradient id="w" x1="7.29" x2="7.8" y1="9.37" y2="10.43" gradientUnits="userSpaceOnUse"><stop stop-color="#231F20"/><stop offset="1" stop-color="#fff"/></linearGradient><linearGradient id="x" x1="9.68" x2="9.32" y1="6.07" y2="4.85" gradientUnits="userSpaceOnUse"><stop stop-color="#231F20"/><stop offset="1" stop-color="#fff"/></linearGradient><linearGradient id="y" x1="13.5" x2="14.53" y1="11.68" y2="11.91" gradientUnits="userSpaceOnUse"><stop stop-color="#231F20"/><stop offset="1" stop-color="#fff"/></linearGradient><linearGradient id="z" x1="11.89" x2="10.59" y1="8.21" y2="7.97" gradientUnits="userSpaceOnUse"><stop stop-color="#231F20"/><stop offset="1" stop-color="#fff"/></linearGradient><radialGradient id="c" cx="0" cy="0" r="1" gradientTransform="matrix(3.8 0 0 3.8 12.85 7.97)" gradientUnits="userSpaceOnUse"><stop stop-color="#fff"/><stop offset="1" stop-color="#fff" stop-opacity="0"/></radialGradient><radialGradient id="d" cx="0" cy="0" r="1" gradientTransform="matrix(2.2 0 0 2.2 7.23 15.03)" gradientUnits="userSpaceOnUse"><stop stop-color="#fff"/><stop offset="1" stop-color="#fff" stop-opacity="0"/></radialGradient><radialGradient id="f" cx="0" cy="0" r="1" gradientTransform="rotate(-120 5.87 2.3) scale(3.8)" gradientUnits="userSpaceOnUse"><stop stop-color="#fff"/><stop offset="1" stop-color="#fff" stop-opacity="0"/></radialGradient><radialGradient id="g" cx="0" cy="0" r="1" gradientTransform="rotate(-120 10.7 .38) scale(2.2)" gradientUnits="userSpaceOnUse"><stop stop-color="#fff"/><stop offset="1" stop-color="#fff" stop-opacity="0"/></radialGradient><radialGradient id="i" cx="0" cy="0" r="1" gradientTransform="rotate(120 1.23 9.58) scale(3.8)" gradientUnits="userSpaceOnUse"><stop stop-color="#fff"/><stop offset="1" stop-color="#fff" stop-opacity="0"/></radialGradient><radialGradient id="j" cx="0" cy="0" r="1" gradientTransform="matrix(-1.1 2 -2 -1.1 7 5.08)" gradientUnits="userSpaceOnUse"><stop stop-color="#fff"/><stop offset="1" stop-color="#fff" stop-opacity="0"/></radialGradient><clipPath id="a"><path fill="#fff" d="M0 0h62.65v20H0z"/></clipPath></defs></svg>