<svg xmlns="http://www.w3.org/2000/svg" fill="none" viewBox="0 0 178 48"><path fill="#000" d="M70.8 22.7 64 39h-3.7l10.5-24.7h.3L81.6 39h-4.4l-6.4-16.3Zm-4 7.5h8.3l1.3 3.2H65.7l1.2-3.2Zm23 2.8 3.5-7.9h4l-7.5 14.1h-.2l-8-14H86l3.8 7.8Zm12.6-.8 7.3-2.5a4 4 0 0 0-1.1-1.6c-.6-.5-1.3-.7-2.3-.7a3.8 3.8 0 0 0-3.4 2 4.8 4.8 0 0 0-.5 2.8Zm.7 2.2a4.3 4.3 0 0 0 3.5 1.8c.6 0 1.1-.2 1.7-.4.5-.2 1-.4 1.4-.8l1.7 2.7a10.1 10.1 0 0 1-4.8 1.5 9 9 0 0 1-4.2-.9c-1.2-.6-2-1.5-2.7-2.6a7.7 7.7 0 0 1 .1-7.5 8 8 0 0 1 6.8-3.7c2 0 3.5.5 4.7 1.6a8 8 0 0 1 2.5 4.7L103 34.5Zm17.8-6.8c.5-1 1.2-1.7 2-2.2 1-.6 2.2-.9 3.5-.9 1.3 0 2.4.4 3.3 1.2a4 4 0 0 1 1.3 3V39h-3.7v-9c0-.6-.2-1.2-.6-1.6-.4-.4-1-.7-1.8-.7a3 3 0 0 0-2 .7c-.6.4-1 1-1.4 1.8-.3.8-.5 1.7-.5 2.7v6h-3.7V25.3h3.4l.2 2.5Zm16.4-8.5h3.7v6h3.6V28H141v11h-3.7V28h-2.4v-2.8h2.4v-6Zm20.6 17.3c-.3.6-.7 1-1.2 1.5s-1.1.9-1.8 1.2c-.7.2-1.5.4-2.3.4-1.3 0-2.3-.4-3.2-1.2a4 4 0 0 1-1.3-3V25.2h3.7v9c0 .6.2 1.2.6 1.6.3.4.9.6 1.7.6a3 3 0 0 0 1.9-.6c.5-.5 1-1 1.3-1.9.3-.7.5-1.6.5-2.6v-6h3.7V39H158l-.3-2.5Zm12.7 2.8c-1 0-2-.2-3-.6a6 6 0 0 1-2.4-1.6l1.6-2c.6.5 1.2 1 1.8 1.2a4.2 4.2 0 0 0 2.9.3l.8-.5c.2-.2.3-.5.3-.9s-.2-.7-.5-1l-1.2-.6-1.5-.5c-1.2-.4-2-1-2.7-1.6a4.2 4.2 0 0 1 1.4-6.2 9.4 9.4 0 0 1 5.6-.3c.8.3 1.6.6 2.2 1.2l-1.4 2.2a4.8 4.8 0 0 0-2.9-1.2h-1a2 2 0 0 0-.7.6 1 1 0 0 0-.3.7c0 .5.1.8.4 1l1.3.7a41.1 41.1 0 0 1 3.3 1.3c.5.3.9.8 1.2 1.2.3.5.5 1.1.5 1.9 0 .8-.2 1.6-.7 2.3-.4.7-1 1.3-1.8 1.7-.9.5-2 .7-3.2.7Z"/><path fill="url(#a)" fill-rule="evenodd" d="m32.1 33.7 13.7 6.2H1.9l30.2-6.2Z" clip-rule="evenodd"/><path fill="url(#b)" fill-rule="evenodd" d="M20.6 0v11.2L0 36.8 20.6 0Z" clip-rule="evenodd"/><path fill="#5100FF" fill-rule="evenodd" d="M47 12.4 28.3 21l-18 27 36.6-35.6Z" clip-rule="evenodd"/><path fill="#000" fill-rule="evenodd" d="m20.6 0 25.2 39.9L32 33.7 20.6 11.2V0Z" clip-rule="evenodd"/><defs><linearGradient id="a" x1="45.4" x2="44.8" y1="34.2" y2="43" gradientUnits="userSpaceOnUse"><stop/><stop offset="1" stop-opacity="0"/></linearGradient><linearGradient id="b" x1="20.4" x2="-4.8" y1="3" y2="37.2" gradientUnits="userSpaceOnUse"><stop/><stop offset="1" stop-color="#fff" stop-opacity=".7"/></linearGradient></defs></svg>