<svg xmlns="http://www.w3.org/2000/svg" fill="none" viewBox="0 0 67 14"><g clip-path="url(#a)"><path fill="#fff" d="M33.7 2a1 1 0 0 0-1 .9v1.6h2.9L35 6.4h-2.3V14h-2V2.9a3 3 0 0 1 3-2.9h2.2l-.6 2h-1.6Z"/><path fill="#fff" fill-rule="evenodd" d="M15.4.6h4.8c2.1 0 3.9 1.7 3.9 3.9 0 1-.5 2-1.2 2.7a3.8 3.8 0 0 1-2.4 6.8h-5.1V.6Zm2 2h2.8c1 0 2 .8 2 1.9 0 1-1 1.9-2 1.9h-2.9V2.5Zm0 5.7V12h3.1c1 0 2-.9 2-2 0-1-1-1.8-2-1.8h-3.2Z" clip-rule="evenodd"/><path fill="#fff" d="M28.2.6h-1.9v2h2v-2Zm0 3.9h-1.9V14h2V4.5Zm9 0V14h2V6.4h2.5l.6-2h-5.1Z"/><path fill="#fff" fill-rule="evenodd" d="M51.3 9.1c0 2.7-1.5 4.9-4.3 4.9s-4.3-2.2-4.3-4.9c0-2.6 1.5-4.8 4.3-4.8s4.3 2.2 4.3 4.8Zm-2 0c0 1-.2 1.8-.6 2.3-.3.4-.9.7-1.7.7-.9 0-1.4-.3-1.7-.7-.4-.5-.7-1.3-.7-2.3 0-1 .3-1.7.7-2.2.3-.4.8-.7 1.7-.7.8 0 1.4.3 1.7.7.4.5.7 1.3.7 2.2Z" clip-rule="evenodd"/><path fill="#fff" d="m58.4 7.4-.1-.4-.3-.4c-.2-.3-.5-.5-.9-.6H56a2 2 0 0 0-1 .3l-.1.3a.8.8 0 0 0-.1.3v.2c0 .1 0 .2.2.3.2.2.5.4.9.5l.6.2h.3a11.7 11.7 0 0 1 2 .7l.8.6a2.3 2.3 0 0 1 .7 1.4v.6l-.3 1-.7.8-.9.5a5 5 0 0 1-1.7.3c-.6 0-1.2 0-1.7-.3a3.7 3.7 0 0 1-2.4-2.7l1.8-.3.1.5a1.8 1.8 0 0 0 1 1l1.2.1c.3 0 .7 0 1-.2l.7-.5v-.7l-.1-.3-.4-.2a5 5 0 0 0-1.1-.5h-.5l-.2-.1a9 9 0 0 1-1.6-.6l-.8-.5A2.4 2.4 0 0 1 53 7v-.3c0-.4.2-.8.4-1 .2-.4.5-.6.8-.8.5-.4 1.1-.5 1.8-.6h.8c.3 0 .6 0 1 .2A3.7 3.7 0 0 1 59.7 6l.4 1-1.8.3Zm3.5 3.7V2.5h2v2H66v1.9h-2.3V11c0 .6.4 1 1 1H66v2h-1.3a2.9 2.9 0 0 1-3-2.9Z"/><mask id="b" width="13" height="10" x="0" y="4" maskUnits="userSpaceOnUse" style="mask-type:luminance"><path fill="#fff" d="M12.8 4.5H0V14h12.8V4.5Z"/></mask><g mask="url(#b)"><path fill="url(#c)" d="M6.4 14H0l9.6-9.5h3.2L6.4 14Z"/></g></g><defs><linearGradient id="c" x1="6.4" x2="6.4" y1="4.5" y2="14" gradientUnits="userSpaceOnUse"><stop stop-color="#7AEDCF"/><stop offset=".2" stop-color="#68CEFA"/><stop offset=".4" stop-color="#689CF8"/><stop offset=".6" stop-color="#AC57C0"/><stop offset=".8" stop-color="#E65659"/><stop offset="1" stop-color="#F2C241"/></linearGradient><clipPath id="a"><path fill="#fff" d="M0 0h66.1v14H0z"/></clipPath></defs></svg>