<svg xmlns="http://www.w3.org/2000/svg" fill="#FFF" class="w-32" viewBox="0 0 401 100"><path d="M60.7 15.7a15 15 0 0 0-15-15H.6V76h45a15 15 0 0 0 9.9-26.4 15.1 15.1 0 0 0 0-22.6c3.3-2.9 5-7 5-11.3ZM10 8.2h33.2a7.5 7.5 0 0 1 .4 15H10.1v-15Zm0 22.6h33.2a7.5 7.5 0 0 1 .4 15H10.1v-15Zm33.2 37.6H10.1v-15h33.2c4.1 0 7.5 3.4 7.5 7.5 0 4.2-3.3 7.5-7.5 7.5Zm131.6-49h9.1V76c0 15.1-7.4 23.8-28 23.8-16.8 0-26-7.4-26.9-20.3h9c.7 7.5 5.4 13.2 18 13.2 13.4 0 19-4.7 19-16.8V63.8c-3.9 7.4-11 11-21 11-17.9 0-26.2-11-26.2-28.6 0-17.3 8.4-28.4 26.1-28.4 10.3 0 17.3 4 21 11.3v-9.7Zm0 26.8c0-15.3-6.9-21.3-18.9-21.3-12.9 0-19 6-19 21.3 0 15.2 6.1 21.4 19 21.4 12 0 19-6 19-21.4Zm50.5-27.6v9h-2.4c-16.8-.6-20.4 11.6-20.4 27.6V76h-9V19.4h9v15.3c3.4-10 10-16.1 20.8-16.1h2ZM272 58.5h8.4c-1.2 8.6-7.7 19.3-26.6 19.3-19.4 0-28-13.2-28-30.3 0-16.9 9.3-30 28-30 17 0 26.7 11.7 26.7 28.2 0 1.3 0 2.6-.3 4h-45.5c.6 15.5 8.1 21.2 19.4 21.2 11.2 0 16.3-5.2 18-12.4ZM235 43h36.7c-.4-13-7.2-18.5-17.7-18.5-10.7 0-17.7 5.1-19 18.5Zm98 15.5h8.4c-1.2 8.6-7.7 19.3-26.5 19.3-19.5 0-28.1-13.2-28.1-30.3 0-16.9 9.3-30 28-30 17 0 26.7 11.7 26.7 28.2 0 1.3 0 2.6-.2 4h-45.6c.7 15.5 8.2 21.2 19.5 21.2 11.1 0 16.2-5.2 17.9-12.4ZM296 43h36.7c-.5-13-7.2-18.5-17.7-18.5-10.8 0-17.8 5.1-19 18.5Zm104.8-3.1V76h-9.1V41c0-12.1-5.3-15.7-13.6-15.7-12.6 0-19.3 9.7-19.3 29.2V76h-9V19.4h9v14.9c3.6-10.9 10.7-16.8 21.7-16.8 14.3 0 20.3 7.7 20.3 22.4ZM70.9 10.5V1H80v9.3h-9Zm0 65.5V19.7H80V76h-9Zm39.5 0c-11.1 0-14-4.2-14-13.2v-36h-11v-7.1h12L97.6 1h8v18.6h19v7h-19v42h18.3V76h-13.5Z"/></svg>