<svg xmlns="http://www.w3.org/2000/svg" fill="none" viewBox="0 0 80 24"><g fill="#000" fill-rule="evenodd" clip-path="url(#a)" clip-rule="evenodd"><path d="M2.83 18.89A11.95 11.95 0 0 1 13.7 1.94a12 12 0 0 1 9.2 4.25l1.31-1.1A13.72 13.72 0 0 0 13.71.24 13.65 13.65 0 0 0 1.28 19.61l1.55-.72Z"/><path d="M13.7 21.93a8.11 8.11 0 0 1-8.13-8.08 8.11 8.11 0 0 1 8.14-8.08c2.5 0 4.74 1.12 6.23 2.88l1.32-1.09a9.86 9.86 0 0 0-7.55-3.5 9.82 9.82 0 0 0-9.85 9.79c0 5.4 4.4 9.79 9.85 9.79v-1.7Z"/><path d="M16.66 16.31a3.86 3.86 0 0 1-6.8-2.46 3.86 3.86 0 0 1 6.8-2.46l1.48-1.23a5.79 5.79 0 0 0-10.21 3.69 5.78 5.78 0 0 0 9.94 4l-1.2-1.54Zm4.24-2.66c.38-.33.86-.5 1.41-.5.3 0 .56.05.78.15a1.55 1.55 0 0 1 .87.96c.06.21.1.44.1.67h-3.8c.04-.52.25-.95.64-1.28Zm3.44 3.46a2.2 2.2 0 0 1-1.97.96 2.34 2.34 0 0 1-1.44-.51 1.85 1.85 0 0 1-.67-1.3h5.64a2 2 0 0 0 .01-.25v-.25a5.1 5.1 0 0 0-.27-1.74 3.4 3.4 0 0 0-.75-1.24 3.1 3.1 0 0 0-1.13-.76 4.19 4.19 0 0 0-2.98.03 3.7 3.7 0 0 0-2.38 3.67c0 .6.1 1.14.3 1.62a3.43 3.43 0 0 0 2.1 1.96 4.5 4.5 0 0 0 1.59.27 3.8 3.8 0 0 0 2.94-1.18l-1-1.28Zm2.75-5.12h1.76v1.18h.03c.16-.37.45-.7.86-.98a2.96 2.96 0 0 1 2.69-.17 2.45 2.45 0 0 1 1.33 1.62c.1.36.16.73.16 1.1v4.61h-1.86v-4.08c0-.21-.01-.44-.04-.67-.03-.24-.1-.45-.2-.64-.1-.2-.25-.35-.43-.47a1.26 1.26 0 0 0-.72-.18 1.6 1.6 0 0 0-1.3.63 2 2 0 0 0-.32.63c-.07.24-.1.49-.1.73v4.05h-1.86V12Zm7.61 1.47v-1.47H36V9.85h1.83V12h1.85v1.47h-1.85v3.42c0 .33.06.6.17.82.12.21.39.32.8.32a2.31 2.31 0 0 0 .79-.15l.06 1.44a4.18 4.18 0 0 1-1.24.2c-.5 0-.9-.07-1.2-.21a1.86 1.86 0 0 1-.74-.57 2.1 2.1 0 0 1-.37-.83c-.06-.3-.1-.64-.1-1v-3.44h-1.3Zm6.1-1.47h1.77v1.22h.03c.2-.43.5-.77.87-1.04a2.17 2.17 0 0 1 1.53-.4l.21.05v1.69a2.61 2.61 0 0 0-.57-.08c-.42 0-.76.08-1.02.23a1.85 1.85 0 0 0-.9 1.21c-.05.23-.07.4-.07.54v3.94h-1.86V12Zm5.26 7.36h1.86V12h-1.86v7.36Zm-.26-9.87c0-.3.11-.55.33-.77.22-.22.5-.33.85-.33.34 0 .62.1.85.31.24.21.35.48.35.8 0 .31-.11.58-.35.78-.23.21-.51.32-.85.32-.34 0-.63-.11-.85-.33a1.06 1.06 0 0 1-.33-.78Zm4.51 3.98h-1.4v-1.47h1.4v-.56c0-.44.05-.86.15-1.26.1-.4.26-.76.5-1.07.23-.3.53-.55.92-.73.38-.18.86-.27 1.43-.27a4.86 4.86 0 0 1 .95.11l-.13 1.57a2.94 2.94 0 0 0-.71-.11c-.27 0-.48.05-.65.15-.16.1-.29.24-.38.4a1.7 1.7 0 0 0-.17.54c-.04.2-.05.38-.05.57v.66h1.71v1.47h-1.71v5.9H50.3v-5.9Zm11.33 5.89h-1.76v-1.18h-.03c-.16.37-.45.7-.86.98a2.96 2.96 0 0 1-2.69.17 2.45 2.45 0 0 1-1.33-1.62c-.1-.36-.16-.73-.16-1.1v-4.61h1.86v4.08c0 .21.01.44.04.67.03.24.1.45.2.64.1.2.25.35.43.47s.42.18.72.18a1.6 1.6 0 0 0 1.3-.63 2 2 0 0 0 .32-.63c.07-.24.1-.49.1-.73v-4.05h1.86v7.36Zm7.16-2.85a2.12 2.12 0 0 1-2.06 1.45 1.94 1.94 0 0 1-1.55-.73 2.44 2.44 0 0 1-.57-1.6c0-.33.05-.64.15-.92.1-.29.24-.53.42-.74a1.93 1.93 0 0 1 1.56-.68 2.05 2.05 0 0 1 1.6.69c.2.2.34.46.45.74a2.65 2.65 0 0 1 0 1.79Zm.15-4.51v1.1h-.03a2.47 2.47 0 0 0-1.08-1 3.59 3.59 0 0 0-4.12.81c-.31.36-.56.76-.73 1.24a4.39 4.39 0 0 0 .01 2.98c.18.47.42.87.74 1.22.31.35.7.63 1.15.83a3.64 3.64 0 0 0 2.91.02c.42-.2.76-.47 1.03-.83h.03v.54c0 .37-.04.7-.12 1.02a1.8 1.8 0 0 1-1.11 1.33c-.3.13-.68.2-1.12.2a3.72 3.72 0 0 1-2.57-1.03l-1.1 1.4a5.98 5.98 0 0 0 2.73 1.14c.34.05.66.08.95.08.73 0 1.35-.1 1.87-.3a3.4 3.4 0 0 0 2.08-2.24c.16-.54.24-1.14.24-1.8v-6.71h-1.76Zm5.4 1.66c.39-.33.86-.5 1.41-.5.3 0 .56.05.78.15a1.55 1.55 0 0 1 .87.96c.07.21.1.44.1.67h-3.8c.04-.52.25-.95.64-1.28Zm3.44 3.46a2.2 2.2 0 0 1-1.97.96 2.35 2.35 0 0 1-1.44-.51 1.86 1.86 0 0 1-.67-1.3h5.64l.01-.25v-.25a5.1 5.1 0 0 0-.27-1.74 3.5 3.5 0 0 0-.75-1.24 3.1 3.1 0 0 0-1.13-.76 4.2 4.2 0 0 0-2.98.03 3.7 3.7 0 0 0-2.38 3.67c0 .6.1 1.14.3 1.62a3.43 3.43 0 0 0 2.1 1.96c.48.18 1.01.27 1.6.27 1.24 0 2.22-.4 2.93-1.18l-1-1.28Z"/></g><defs><clipPath id="a"><path fill="#fff" d="M0 0h79.43v24H0z"/></clipPath></defs></svg>