<svg xmlns="http://www.w3.org/2000/svg" fill="none" viewBox="0 0 63 20"><path fill="url(#a)" d="M15.22 0H4.8A4.8 4.8 0 0 0 0 4.8v10.4A4.8 4.8 0 0 0 4.8 20h10.42a4.8 4.8 0 0 0 4.8-4.8V4.8a4.8 4.8 0 0 0-4.8-4.8Z"/><path fill="#0C0B0B" fill-rule="evenodd" d="M10.01 16.4a6.4 6.4 0 1 0 0-12.8 6.4 6.4 0 0 0 0 12.8ZM8.88 6.95c0-.19.15-.34.33-.34h1.6c.18 0 .33.15.33.33V8.9H8.88v2.22h2.26v1.94c0 .19-.15.34-.33.34H9.2a.33.33 0 0 1-.33-.34v-1.87H6.95a.33.33 0 0 1-.33-.34V9.23c0-.19.15-.34.33-.34h1.93V6.94Zm2.26 1.94h1.93c.18 0 .33.15.33.34v1.61c0 .19-.15.34-.33.34h-1.93V8.89Z" clip-rule="evenodd"/><path fill="#0C0B0B" d="M38.41 8.18h-2.78a2.43 2.43 0 0 0-.92-1.58 2.72 2.72 0 0 0-.85-.43c-.32-.1-.67-.14-1.04-.14-.67 0-1.26.15-1.76.46-.5.31-.89.77-1.17 1.36-.27.59-.4 1.3-.4 2.15 0 .87.13 1.6.4 2.19a3.02 3.02 0 0 0 2.91 1.78 2.97 2.97 0 0 0 1.87-.53 2.35 2.35 0 0 0 .96-1.52l2.78.02a4.92 4.92 0 0 1-1.7 3 5.5 5.5 0 0 1-1.7.96 6.9 6.9 0 0 1-2.25.35 6.5 6.5 0 0 1-3.12-.74 5.4 5.4 0 0 1-2.16-2.13 6.77 6.77 0 0 1-.8-3.38c0-1.33.28-2.46.81-3.39a5.4 5.4 0 0 1 2.18-2.12 7.12 7.12 0 0 1 5.2-.44c.64.2 1.21.48 1.71.86s.91.84 1.22 1.39c.32.55.53 1.17.61 1.88Zm2.02 7.9V3.92h2.75v10.04h5.59v2.12h-8.34ZM51.58 3.92l3.15 9.24h.12l3.16-9.24h3.05l-4.49 12.16h-3.55l-4.5-12.16h3.06Z"/><defs><linearGradient id="a" x1="1.67" x2="19.15" y1="18.33" y2="1.23" gradientUnits="userSpaceOnUse"><stop stop-color="#BDFDE2"/><stop offset="1" stop-color="#9BDAF6"/></linearGradient></defs></svg>