<svg xmlns="http://www.w3.org/2000/svg" fill="none" viewBox="0 0 32 32"><g clip-path="url(#a)"><path fill="#F1E0D2" d="M31.988 2.196v27.659c0 1.184-1.022 2.145-2.282 2.145H2.27c-1.26 0-2.283-.96-2.283-2.145V2.196C-.012 1.011 1.01.051 2.271.051h27.434c.32 0 .626.062.902.174.567.23 1.016.668 1.235 1.214.095.236.146.49.146.757Z"/><path fill="#151515" d="M31.842 1.439A2.216 2.216 0 0 0 30.607.225a2.4 2.4 0 0 0-.902-.174H16.578c.063.095.094.194.051.305-.026.099-.263.247-.131.37.053.074.184.05.29.05-.106 0-.237.024-.29-.05-.132-.123.105-.272.131-.37.043-.111.012-.21-.051-.305h-.323c-1.522.776-2.647 2.078-2.982 3.8-.9 4.625 4.124 6.695 5.42 7.157 5.833 2.076 11.48-1.056 13.296-4.826V2.196c0-.267-.052-.522-.146-.757h-.001Z"/><path fill="#151515" d="M28.863 9.959c.63-.158 1.336.052 1.842.402.607.42.78 1.024.815 1.694.072 1.345.091 2.694-.033 4.035-.048.518-.257 1.11-.728 1.451-.448.326-1.072.345-1.574.111-.641-.298-.706-.823-.65-1.426.078-.836.203-1.667.32-2.499.084-.608.194-1.276-.505-1.618-.429-.21-.758-.088-1.008.204-.54.629-.714 2.04-.74 2.586a23.663 23.663 0 0 0 .224 4.564c.084.566-.574 2.267-1.283 1.186-.662-1.009-.028-2.09-.079-3.148-.016-.333.02-1.92-.617-1.879-.732.048-.336 1.479-.333 1.85v.002a48.651 48.651 0 0 1-.097 3.414c-.036.561-.249.959-.868.716-.608-.24-.761-1.188-.743-1.669.027-.718.126-1.432.203-2.147.068-.64.111-1.319-.204-1.895-.767-1.401-2.07-.498-2.177.694-.052.586.094 1.17.183 1.752.127.834.134 1.678.118 2.518-.01.464.129.752-.387.835-.23.038-.603-.067-.78-.204-.505-.391-.348-1.261-.363-1.788-.018-.606.38-2.153-.026-2.659-.606-.754-.758.547-.74.886.036.732.22 1.456.251 2.185v.002c.014.354-.05.776-.397.936-1.106.51-.995-1.298-1.011-1.765-.037-1.05-.044-2.102-.052-3.154-.007-1.105-.072-2.29.44-3.334.335-.679.744-1.109.709-1.86-.033-.694-.148-1.435-.735-1.936-.553-.47-1.337-.633-1.718-1.246-.392-.63-.677-1.648-.218-2.302.356-.508 1.034-.785 1.542-1.146 1.325-.942 2.977-1.461 4.65-1.619.845-.079 1.712-.068 2.528.148.816.216 1.581.652 2.054 1.295.205.28.356.615.297.947-.077.44-.49.757-.885 1.019a18.46 18.46 0 0 1-4.11 2.024l-.599-.099c-.35.07-.658.293-.81.588a1.92 1.92 0 0 0-.161.548c-.139.759-.337 2.176.178 2.86.546.724 2.137.654 2.98.651.632-.002 1.28-.007 1.875-.2 1.356-.441 2.053-2.167 3.42-2.511"/><path fill="#DBB5D6" d="M23.027 6.274c-1.009.389-2.336.423-3.406.33-.959-.084-1.93-.718-2.74-1.168-.057-.032-.121-.073-.13-.136-.007-.051.027-.1.06-.14.747-.924 2.076-1.255 3.31-1.26a8.605 8.605 0 0 1 2.44.347c.79.23 1.412.648 2.146.935-.212.402-.675.624-1.098.83-.19.093-.382.186-.581.262h-.001Z"/><path fill="#5C57A2" d="M27.227 5.093c-.201-.29-.562-.573-.65-.544l.416-.139.284-.097-.206-.535-.285.097c-.249.086-.502.168-.756.249a9.963 9.963 0 0 0-1.365-.816c.092-.1.182-.204.266-.312l.18-.229-.487-.337-.18.228a4.958 4.958 0 0 1-.344.391 9.837 9.837 0 0 0-1.814-.573c.07-.163.133-.327.191-.494l.094-.27-.576-.177-.093.27c-.066.19-.14.378-.222.562a8.025 8.025 0 0 0-2.106-.035l.023-1.047-.605-.012-.026 1.16c-.228.05-.45.11-.665.183-.46.157-.89.376-1.293.63a4.78 4.78 0 0 1-.592-.79l-.148-.247-.528.277.147.248c.177.297.388.581.629.847-.366.267-.711.556-1.043.847-.259.226-.51.475-.506.805.004.317.243.559.5.773.34.284.756.548 1.309.833 1.42.733 3.055 1.115 4.713 1.115.453 0 .908-.028 1.36-.086.332-.042 2.034-.371 1.836-.865-.227-.564-1.588.084-1.943.13-1.942.248-3.927-.087-5.587-.944-.499-.258-.869-.493-1.164-.739a1.16 1.16 0 0 1-.228-.226c.02-.033.08-.106.249-.254.324-.284.675-.582 1.056-.855.259.221.54.426.842.608l.254.155.328-.478-.254-.154a5.847 5.847 0 0 1-.66-.466 5.112 5.112 0 0 1 1.372-.58l-.013.603a.77.77 0 0 1-.035.269l-.122.26.553.23.123-.26c.079-.169.082-.345.086-.487l.016-.735a6.844 6.844 0 0 1 1.764-.008 7.62 7.62 0 0 1-.462.7l-.174.232.496.326.173-.232c.22-.297.42-.606.595-.927.523.103 1.04.255 1.538.446l-.317.27c-.273.23-.581.49-.92.58l-.291.076.164.548.291-.077c.475-.126.855-.446 1.16-.704.17-.143.342-.289.511-.44.35.163.685.343 1 .538a39.97 39.97 0 0 1-.72.2 2.32 2.32 0 0 1-.584.103h-.302l.001.569h.302c.263 0 .504-.06.75-.125.39-.105.78-.216 1.167-.332.334.248.997 1.134 1.564.788.17-.105.107-.315-.036-.52v.002Z"/><path fill="#0D0F1A" d="M21.244 6.078c-.62.918-2.723.572-2.677-.635.034-.89.455-1.696 1.472-1.652.298.013.608.064.848.23.411.286.508.822.516 1.302.005.26-.01.535-.16.755Z"/><path fill="#DBB5D6" fill-rule="evenodd" d="M19.25 5.067a2.277 2.277 0 0 1 .223-.225.75.75 0 0 1 .28-.155.326.326 0 0 1 .166-.015.583.583 0 0 1 .151.047c.048.022.093.044.142.065.05.021.104.04.173.062 0 .078.006.135.03.187.022.053.066.1.13.17-.013.049-.037.093-.052.137a.333.333 0 0 0-.008.162.578.578 0 0 1-.164.117c-.059.032-.11.06-.18.116a.242.242 0 0 0-.09-.021h-.046l-.047-.001c-.011-.013-.021-.026-.033-.034a.037.037 0 0 0-.021-.006.08.08 0 0 0-.03.005.088.088 0 0 1-.06-.03.085.085 0 0 1-.015-.071.113.113 0 0 1-.063-.014.104.104 0 0 1-.04-.036l-.008-.01-.004-.012a.226.226 0 0 1-.007-.025c-.004-.016-.002-.033-.002-.049.002-.016.006-.03.007-.046a.29.29 0 0 0-.009-.156.341.341 0 0 0 .07-.015.11.11 0 0 0 .024-.012.083.083 0 0 0 .02-.014c.024-.021.041-.048.066-.074.012-.012.025-.026.042-.035.008-.004.016-.009.025-.011a.173.173 0 0 1 .027-.005.082.082 0 0 1 .05.015c.016.012.027.03.033.054a.368.368 0 0 0-.087.026.13.13 0 0 0-.06.06.048.048 0 0 0-.028.002.035.035 0 0 0-.017.016.046.046 0 0 0-.007.022c-.001.008-.003.016-.002.024v.023a.041.041 0 0 1-.005.02.05.05 0 0 1-.014.016.118.118 0 0 1-.033.013l.032.026c.007.007.013.012.016.018.002.005.004.01.004.016l-.002.016c-.001.011-.005.025.002.036.004.013.017.021.038.022.01 0 .019.002.025.005a.047.047 0 0 1 .02.01c.011.01.02.022.033.032.023.022.058.042.097.02a.374.374 0 0 1 .176-.013l.015-.018c.004-.007.01-.01.014-.018l.013-.017.012-.019a.153.153 0 0 0 .028-.081c.06-.03.086-.1.058-.162-.029-.036-.021-.068-.021-.104.001-.035-.005-.075-.05-.094.016-.042-.024-.06-.06-.072-.036-.013-.065-.021-.06-.077-.038-.01-.07-.02-.104-.027a.253.253 0 0 0-.102-.006c-.017-.053-.058-.046-.092-.03-.035.016-.062.037-.099.01-.033.035-.069.035-.109.043-.039.007-.081.02-.096.065-.047-.006-.063.033-.07.069-.01.037-.015.066-.075.069l-.014.102c0 .016-.002.032 0 .049l.004.024a.214.214 0 0 0 .008.025.19.19 0 0 0-.027.104.35.35 0 0 0 .023.107c.025.071.062.136.085.217.06.02.115.037.16.057a.248.248 0 0 1 .111.09.136.136 0 0 1 .078.014c.022.008.041.025.065.035a.147.147 0 0 0 .072.02.12.12 0 0 0 .041-.007.154.154 0 0 0 .044-.03c.02.026.045.03.07.035.025.008.049.013.075.048.006-.007.014-.012.02-.017l.02-.015a.515.515 0 0 1 .11-.05c.027.01.054.009.079 0a.238.238 0 0 0 .035-.017l.017-.01.016-.013c.03.009.065.015.071-.03.027-.034.06-.046.123-.028a.5.5 0 0 1-.042.05c-.015.015-.032.028-.049.042-.016.014-.035.025-.052.038l-.027.02a.465.465 0 0 0-.028.02c-.054-.03-.088-.007-.127.02-.02.012-.04.026-.06.033a.073.073 0 0 1-.065-.01 1.11 1.11 0 0 1-.28.02.366.366 0 0 1-.245-.11.909.909 0 0 0-.062-.019l-.062-.023c-.02-.007-.041-.017-.062-.026-.02-.011-.04-.021-.059-.034-.074-.05-.131-.121-.13-.206a.087.087 0 0 1-.045-.05.236.236 0 0 1-.009-.059.14.14 0 0 0-.014-.058.11.11 0 0 0-.022-.028.25.25 0 0 0-.04-.03c.004-.025.013-.05.018-.073a.629.629 0 0 0 .024-.105.226.226 0 0 0 .002-.037l-.006-.042-.012-.047-.002-.002Z" clip-rule="evenodd"/><path fill="#5B58A3" d="M26.767 26.248c-1.528 2.715-4.626 4.573-8.201 4.573s-6.673-1.858-8.2-4.573c1.526-2.716 4.625-4.574 8.2-4.574 3.574 0 6.674 1.858 8.2 4.574Z"/><path fill="#DBB5D6" d="M15.05 23.984c.588.233 1.07.712 1.654 1.438.443.55.902 1.136.988 1.82.161 1.274-.725 2.605-1.806 3.308-1.634 1.062-3.53 1.114-5.418.823-2.42-.374-4.487-2.34-3.697-4.723.422-1.274 1.994-3.072 3.586-3.003.48.02.927.228 1.397.325a3.09 3.09 0 0 0 1.295-.013c.856-.193 1.472-.185 2.002.025Z"/><path fill="#151515" d="M11.95 5.492v.087c.002 2.573.004 5.145-.007 7.718-.004 1.08-.012 2.161.034 3.24.04.983.38 2.117.27 3.084-.072.637-.197 1.28-.268 1.93-.04.365-.091 1.367-.664 1.386-.892.03-2.195.125-2.666-.715-.506-.903-.722-1.657-1.77-2.176a4.576 4.576 0 0 0-1.683-.44c-.52-.04-1.163.145-1.609-.203-.445-.347-.551-1.173-.581-1.686-.147-2.52-.227-5.041-.348-7.561-.045-.96-.13-2.01-.831-2.708-.5-.498-1.163-.637-1.839-.716v-4.77C-.012.905.898.05 2.021.05h7.858c.407 0 .954-.087 1.332.1.688.34.608 1.448.653 2.053.082 1.094.085 2.192.086 3.288Z"/><path fill="#151515" d="M7.834 23.19a1.808 1.808 0 0 1-.143.515c-.267.604-.826 1.082-1.273 1.588-1.408 1.59-.7 4.487.382 6.185.105.166.22.342.313.522H2.271c-1.26 0-2.283-.96-2.283-2.145V10.049c.316.05.626.126.898.277 1.087.604 1.001 1.66 1.007 2.622l.023 4.154c.007 1.102.404 3.045 1.877 3.312.956.173 2.028.16 2.892.62.802.428 1.25 1.326 1.15 2.156Z"/><path fill="#151515" d="M9.712 24.77c.338-.138.675-.223.95-.197.27.025.494.205.756.274.46.121.938-.113 1.416-.145.643-.044 1.26.291 1.678.74.418.45.67 1.004.917 1.55.038.085.074.192.01.264-.035.037-.09.053-.14.068-1.271.362-2.595.727-3.912.548-.993-.135-1.959-.578-2.954-.457-1.668.204-.767-1.12-.053-1.807.282-.271.807-.62 1.332-.837Z"/><path fill="#151515" d="M9.401 30.557c.4.22.884.246 1.347.266.616.028 1.253.053 1.83-.153.677-.242 1.185-.769 1.666-1.279.226-.24.456-.485.6-.776.145-.292.193-.642.05-.933-.74-.023-1.401.402-2.115.583-.765.193-1.556.091-2.32-.05-1.094-.204-2.028-.374-3.156-.41-.042-.001-.088 0-.117.027-.548.507 1.861 2.531 2.216 2.726Z"/><path fill="#5B58A3" d="M31.189 21.994c-.376 2.831-2.839 5.017-5.82 5.017-1.106 0-2.14-.3-3.023-.823a8.242 8.242 0 0 1 7.29-4.337c.53 0 1.05.05 1.553.144Z"/><path fill="#5B58A3" d="M31.727 28.96c-2.396 1.752-5.782 1.661-7.89-.32a5.228 5.228 0 0 1-1.519-2.59c2.912-.91 6.18-.329 8.419 1.776.375.353.705.733.99 1.134Z"/><path fill="#5C57A2" d="M30.083 6.96a.63.63 0 0 0-.032.036c-2.258 2.658-5.583 3.884-9.123 3.364-.345-.051-.667.17-.721.494-.054.324.181.627.526.678.588.086 1.18.13 1.766.13a11.52 11.52 0 0 0 3.576-.56c1.928-.63 3.593-1.758 4.95-3.351.14-.145.536-.59.964-1.349V2.474c-.437 2.886-1.732 4.307-1.905 4.486ZM16.539 19.809c-.31.246-.742.288-1.145.319l-2.575.197c-.4.49.092 1.375-.436 1.743-.13.09-.296.121-.456.143-.714.096-2.163.17-2.613-.479-.185-.265-.235-.59-.268-.905-.056-.527.35-2.072-.504-2.035a13.24 13.24 0 0 1-1.491-.02c-.326-.023-.657-.06-.954-.188-.727-.314-.94-1.297-.047-1.503.69-.16 1.727.474 2.237-.243.106-.15.141-.333.172-.511.42-2.452.378-4.95.336-7.433-.007-.408-.017-.83-.194-1.202-.386-.808-1.403-1.132-2.31-1.37l-3.798-.998c-.86-.226-1.76-.474-2.503-.918V1.844C-.01.826.867 0 1.951 0c0 0 15.215.051 14.304.051-.813.492-1.245.73-1.85 1.44-1.604 1.887-1.3 4.218-1.3 5.896v7.373c0 .615-.11 1.327.143 1.912.616 1.423 2.233.068 3.167 1.027.46.472.71 1.643.123 2.11Zm2.926-10.517-.014-.009.014.009Z"/></g><defs><clipPath id="a"><path fill="#fff" d="M0 0h32v32H0z"/></clipPath></defs></svg>