<svg xmlns="http://www.w3.org/2000/svg" fill="none" viewBox="0 0 76 20"><g clip-path="url(#a)"><path fill="#FA8C16" d="m1.03 5.2 7.15-4.15a.8.8 0 0 1 .8 0l4.5 2.61a.8.8 0 0 1 .17 1.26l-1.53 1.55a.8.8 0 0 1-.96.13L9 5.33a.8.8 0 0 0-.82 0L.64 9.76V5.9a.8.8 0 0 1 .4-.7Z"/><path fill="#fff" d="m13.5 16.33-4.52 2.62a.79.79 0 0 1-.8 0L1.03 14.8a.8.8 0 0 1-.4-.7v-3.5l3.69-2.15v3.51c0 .29.15.55.4.7l3.46 2c.25.15.55.15.8 0l2.2-1.27c.3-.18.7-.13.95.13l1.53 1.54a.8.8 0 0 1-.16 1.27ZM42.38 2.87v10.89c0 .74-.3.83-1 .83H35.9a.8.8 0 0 1-.58-.22c-.08-.07-.22-.06-.22-.74V2.87h-2.78v11.05c0 .93.32 1.7.95 2.32.6.59 1.45.89 2.53.89h5.86c1 0 1.83-.31 2.48-.92.68-.63 1.02-1.32 1.02-2.55V2.87h-2.77Zm16.79 6.79A2.8 2.8 0 0 0 57 8.77h-5.03a.94.94 0 0 1-.74-.28c-.21-.2-.24-.42-.24-.7V6.33c0-.28.04-.5.23-.7.1-.1.26-.22.86-.22h7.8V2.87h-8.8a2.9 2.9 0 0 0-2.48 1.3c-.26.36-.38.96-.38 1.85v2.65c0 .82.2 1.45.62 1.87.5.51 1.18.77 2 .77h5.28c.34 0 .58.07.73.2.23.18.34.37.34.6v1.44c0 .7-.13.69-.21.76-.2.2-.46.28-.8.28h-7.97v2.54h8.52c.98 0 1.8-.32 2.4-.96.56-.57.83-1.37.83-2.37v-1.67c0-1.06-.27-1.9-.8-2.47Zm4.11-6.79v2.54h4.63v11.72h2.77V5.4h4.68V2.87H63.28ZM29.47 8.78c.07-.83 0-2.78 0-2.78 0-1.27-.57-2.21-1.68-2.8a4.42 4.42 0 0 0-2.01-.34h-8.5l1.26 2.54h6.85c.6 0 1.3.1 1.3.96v2.08c0 .67-.33.96-1.08.96h-8.33v7.74h2.78v-5.2h4.21l1.92 5.2h3.3l-2-5.38c-.09-.17.81-.3 1.36-.9.56-.6.55-1.25.62-2.08Z"/></g><defs><clipPath id="a"><path fill="#fff" d="M0 0h76v20H0z"/></clipPath></defs></svg>