<svg xmlns="http://www.w3.org/2000/svg" fill="none" viewBox="0 0 98 16"><g clip-path="url(#a)"><path fill="#496DDB" d="M9.67 6.45a.95.95 0 0 0-.71-.72 4.49 4.49 0 0 0-.97-.15 4.2 4.2 0 0 0-1.12.15.95.95 0 0 0-.7.72c-.06.21-.08.42-.09.63-.02.2-.02.23.12.23h3.34c.23 0 .23 0 .2-.24 0-.2-.03-.41-.07-.62ZM9.6 8.69H6.28c-.23 0-.23 0-.2.23 0 .2.02.42.07.63.1.37.33.61.71.72.32.1.65.13.98.15.37-.01.75-.04 1.11-.15.38-.1.61-.35.71-.72.05-.21.07-.42.08-.63.02-.2.02-.23-.12-.23Z"/><path fill="#496DDB" d="M7.9 0A7.95 7.95 0 0 0 0 8c0 4.4 3.54 8 7.9 8s7.9-3.6 7.9-8c0-4.41-3.54-8-7.9-8Zm3.33 6.2.08.7v.41h1.23c.1 0 .18 0 .27.02.21.04.35.16.36.37v.6c-.01.2-.15.33-.36.37-.09.02-.18.02-.27.02H11.3v.4l-.1.7c-.03.24-.09.45-.17.63h1.57c.18 0 .36.01.49.2.18.29.08.68-.2.87a.33.33 0 0 1-.13.06c-.33.11-.67.13-1.01.15a211.99 211.99 0 0 1-7.69-.01 3.1 3.1 0 0 1-1-.14.2.2 0 0 1-.12-.07.64.64 0 0 1-.2-.88c.11-.18.29-.2.47-.2h1.55a2.9 2.9 0 0 1-.17-.6l-.08-.71v-.41H3.27c-.1 0-.19 0-.28-.02-.21-.04-.34-.16-.35-.37v-.6c0-.2.14-.33.35-.37l.28-.01H4.5v-.4l.08-.72c.04-.23.1-.44.18-.61H3.2c-.18 0-.36-.02-.48-.2a.64.64 0 0 1 .2-.88.33.33 0 0 1 .13-.06c.32-.11.66-.13 1-.15a212.14 212.14 0 0 1 7.68.01c.35.01.68.03 1 .15a.2.2 0 0 1 .13.06c.29.19.38.57.2.88-.12.18-.3.2-.48.2h-1.55c.1.17.15.37.2.6Z"/><path fill="#fff" d="M25.61 11.77c-.16 0-.33-.02-.53-.05a1.6 1.6 0 0 1-.56-.18 1.1 1.1 0 0 1-.43-.45 1.7 1.7 0 0 1-.17-.82V6.2c0-.3.05-.54.14-.75a1.3 1.3 0 0 1 .88-.72c.2-.04.38-.07.57-.07l1.25.02c.37 0 .7.03 1.01.03l.86.05v.99h-2.77a.8.8 0 0 0-.53.16c-.13.1-.2.27-.2.5v1.26l3.05.07v.93l-3.04.07v1.21c0 .19.04.34.11.44.07.1.16.17.27.2.1.04.22.06.34.06h2.78v.98a24.54 24.54 0 0 1-2 .1l-1.03.04Zm10.99-.05V6.14c0-.28.04-.52.13-.7.1-.2.2-.35.36-.47.14-.1.3-.18.48-.24.19-.04.37-.07.54-.07l.93.02a22.82 22.82 0 0 1 2.16.09v.79h-2.83c-.25 0-.43.06-.57.19-.13.12-.19.3-.19.55v1.63l3.15.06v.74l-3.15.05v2.92h-1v.02Zm12.41 0V4.67h1.01v7.05h-1Zm9.38 0V4.68h.65l3.8 5.73V4.68h.79v7.04h-.65l-3.8-5.73v5.73h-.8Zm13.39 0V4.68h.8v7.04h-.8Zm10.79 0V5.2h-2.33v-.5h5.24v.5h-2.33v6.52h-.58Zm12.64 0V9.28L92.83 4.7h.42l2.16 4.17 2.16-4.17h.42l-2.38 4.57v2.44h-.4Z"/></g><defs><clipPath id="a"><path fill="#fff" d="M0 0h98v16H0z"/></clipPath></defs></svg>