<svg xmlns="http://www.w3.org/2000/svg" fill="none" viewBox="0 0 137 36"><path fill="#002445" d="M55.16 25.56h-8.69V14.69h8.6v2.87h-5.23v.96h4.1v2.64h-4.1v1.52h5.32v2.88Zm9.8-8.02v11.12h-3.3v-4a2.48 2.48 0 0 1-2.2 1.1c-1.03 0-1.88-.4-2.55-1.2a4.49 4.49 0 0 1-1.02-3.01c0-1.21.34-2.22 1.02-3.01.67-.8 1.52-1.2 2.55-1.2.98 0 1.71.37 2.2 1.1v-.9h3.3Zm-3.25 4.91v-1.82c-.23-.38-.64-.57-1.24-.57-.4 0-.72.14-.97.43-.24.28-.36.64-.36 1.06 0 .42.12.78.36 1.07.25.28.58.42.97.42.59 0 1-.2 1.24-.59Zm9.72.02v-4.93h3.29v8.02h-3.29v-1.03c-.18.3-.5.58-.95.84-.43.26-.9.39-1.4.39-.88 0-1.54-.28-2-.83a3.5 3.5 0 0 1-.69-2.3v-5.09h3.3v4.38c0 .32.08.57.23.73.15.17.35.25.59.25.37 0 .67-.14.92-.43Zm8.2 3.09h-3.3v-8.02h3.3v8.02Zm-.32-8.92c-.36.35-.8.53-1.32.53a1.8 1.8 0 0 1-1.31-.53 1.76 1.76 0 0 1-.54-1.32c0-.5.18-.93.54-1.29.36-.36.8-.54 1.31-.54.5 0 .93.18 1.3.54.36.37.55.8.55 1.3 0 .51-.18.95-.53 1.31Zm4.39 9.12c-1.62 0-2.43-.81-2.43-2.44v-8.63h3.28v7.9c0 .14.04.25.13.33.08.07.18.1.3.1.13 0 .26-.02.39-.07v2.5c-.44.2-1 .3-1.68.3Zm6.25-.2h-3.3v-8.02h3.3v8.02Zm-.33-8.92c-.35.35-.8.53-1.31.53a1.8 1.8 0 0 1-1.32-.53 1.8 1.8 0 0 1-.53-1.32 1.81 1.81 0 0 1 1.85-1.83c.5 0 .93.18 1.3.54.36.37.54.8.54 1.3 0 .51-.18.95-.53 1.31Zm1.96 8.92V14.69h3.3v3.75a2.48 2.48 0 0 1 2.21-1.1c1.02 0 1.87.4 2.55 1.2.68.8 1.02 1.8 1.02 3.01 0 1.21-.34 2.21-1.02 3.01-.68.8-1.53 1.2-2.55 1.2-.98 0-1.72-.37-2.2-1.1v.9h-3.3Zm3.26-4.91v1.82c.23.38.64.57 1.23.57.4 0 .72-.14.96-.42.25-.29.37-.65.37-1.07 0-.42-.12-.78-.37-1.06a1.18 1.18 0 0 0-.96-.43c-.58 0-1 .2-1.23.59Zm10.17 4.91h-3.28v-8.02H105v1.28c.16-.33.48-.66.96-.98a2.75 2.75 0 0 1 2-.45v3.07a4.36 4.36 0 0 0-.98-.12c-.88 0-1.54.23-1.98.7v4.52Zm7.46 0h-3.3v-8.02h3.3v8.02Zm-.33-8.92c-.35.35-.79.53-1.31.53s-.96-.18-1.31-.53a1.76 1.76 0 0 1-.54-1.32c0-.5.18-.93.54-1.29.36-.36.8-.54 1.31-.54.5 0 .93.18 1.3.54.36.37.55.8.55 1.3 0 .51-.18.95-.54 1.31Zm6.86 5.83v-4.93h3.29v8.02H119v-1.03c-.18.3-.5.58-.95.84-.43.26-.9.39-1.4.39-.88 0-1.54-.28-2-.83a3.5 3.5 0 0 1-.69-2.3v-5.09h3.3v4.38c0 .32.08.57.23.73.15.17.35.25.6.25.36 0 .66-.14.91-.43Zm8.14 3.09h-3.28v-8.02h3.28v1.04c.2-.33.52-.62.96-.87.43-.24.9-.37 1.37-.37 1.02 0 1.74.43 2.16 1.29.22-.37.57-.68 1.03-.92.49-.24 1-.37 1.52-.37.78 0 1.45.28 2 .82.55.54.82 1.34.82 2.4v5h-3.3v-4.4c0-.65-.24-.98-.72-.98-.39 0-.69.16-.9.47v4.9h-3.3v-4.39c0-.65-.24-.98-.72-.98-.37 0-.68.17-.92.5v4.88Z"/><path fill="#C9EEFF" d="m30.64 11.21-5.94 3.41 5.94 3.42 5.92-3.42-5.92-3.4Zm-23.72 0L1 14.62l5.92 3.42 5.94-3.42-5.94-3.4Z"/><path fill="#5178E5" d="M12.86 28.23V35l5.92-3.4v-6.78l-5.92 3.4Z"/><path fill="#59A8FE" d="M24.7 14.64v6.77l-5.92-3.4v-6.78l5.92 3.4ZM12.86 7.82v6.77l-5.94-3.4V4.4l5.94 3.4ZM24.7 28.2v6.77l-5.92-3.4V24.8l5.92 3.4ZM12.86 14.66v6.78l-5.94-3.41v-6.78l5.94 3.41Z"/><path fill="#59A8FE" d="M12.86 21.44v6.76l-5.94-3.4v-6.77l5.94 3.4Z"/><path fill="#59A8FE" d="M6.92 18.03v6.77L1 21.4v-6.78l5.92 3.41Zm11.86 6.79v6.77l-5.92-3.4v-6.77l5.92 3.4Zm-5.92 3.38v6.77l-5.94-3.4V24.8l5.94 3.4Z"/><path fill="#5176E6" d="M24.7 7.82v6.77l5.94-3.4V4.4L24.7 7.8Zm-11.84 6.82v6.77l5.92-3.4v-6.78l-5.92 3.4Z"/><path fill="#C9EEFF" d="m18.78 18-5.92 3.4 5.92 3.42 5.92-3.41L18.78 18ZM12.86 7.83l-5.94 3.41 5.94 3.42 5.92-3.42-5.92-3.4Zm5.92-3.43-5.92 3.43 5.92 3.41 5.92-3.4-5.92-3.43ZM24.7 1l-5.92 3.4 5.92 3.43 5.94-3.42L24.7 1Z"/><path fill="#C9EEFF" d="M12.86 1 6.92 4.4l5.94 3.43 5.92-3.42L12.86 1ZM24.7 7.79l-5.92 3.42 5.92 3.4 5.94-3.4L24.7 7.8Z"/><path stroke="#002445" stroke-linejoin="round" stroke-miterlimit="10" stroke-width=".43" d="M6.92 4.4v6.81L1 14.62v6.77l5.92 3.41v6.78l5.94 3.4 5.92-3.4 5.92 3.4 5.94-3.4V24.8l5.92-3.4v-6.78l-5.92-3.4V4.4L24.7 1l-5.92 3.4L12.86 1 6.92 4.4Zm5.94 17.04v6.79M6.92 11.21v13.6M24.7 28.2v-6.8"/><path stroke="#fff" stroke-linecap="round" stroke-linejoin="round" stroke-miterlimit="10" stroke-width=".43" d="M24.7 34.97V28.2m11.86-13.6-5.92 3.44m0-13.64L24.7 7.87M6.92 4.4l5.94 3.46"/><path stroke="#002445" stroke-linejoin="round" stroke-miterlimit="10" stroke-width=".43" d="M30.64 24.96V11.38m-23.7 6.65 5.92 3.4M6.92 24.8l11.86 6.83"/><path fill="#5176E6" d="M24.7 14.64v6.77l5.94-3.4v-6.78l-5.93 3.4Z"/><path fill="#5176E6" d="M24.7 21.41v6.77l5.94-3.4V18l-5.93 3.41Zm5.94-3.38v6.77l5.92-3.4v-6.78l-5.92 3.4Z"/><path fill="#5176E6" d="M18.78 24.8v6.78l5.93-3.4v-6.77l-5.93 3.4Z"/><path fill="#5176E6" d="M24.7 28.18v6.78l5.94-3.41v-6.78l-5.93 3.41Z"/><path stroke="#002445" stroke-linejoin="round" stroke-miterlimit="10" stroke-width=".43" d="m30.53 24.8-11.85 6.84m11.96-13.6-5.93 3.37m.19-13.54-6.12 3.35m0-6.82 12.25 7.04m-6.43 9.9-5.82-3.4v-6.71l-5.92-3.41m5.92-3.42L6.92 11.2m11.86 6.71-5.96 3.44"/><path stroke="#fff" stroke-linecap="round" stroke-linejoin="round" stroke-miterlimit="10" stroke-width=".43" d="m6.92 11.21 5.94 3.45v6.76l5.92 3.4v6.76m11.86-20.37-5.94 3.45v6.76l-5.92 3.4"/><path stroke="#fff" stroke-linecap="round" stroke-linejoin="round" stroke-miterlimit="10" stroke-width=".43" d="m12.86 14.66 5.92-3.42 5.92 3.42"/></svg>