<svg xmlns="http://www.w3.org/2000/svg" viewBox="0 0 461.1 68.3"><defs><clipPath id="a"><path fill="#4b64ff" d="M36.1 40v65.5h11.5V85.2l23-10-.2-11.7-22.8 9.7V51H77V40ZM92 51h15.4c5 0 9 2.5 9 8 0 5.3-4 8-9 8H92ZM80.4 40v65.5H92v-16l36 16.1V93L93 77.9h14.2c11.1 0 20.8-7.2 20.8-19s-9.7-18.8-20.8-18.8Zm51.1 0v65.5h40.9V94.6H143V78.2h29.4V67.3H143V51h29.4V40Zm150.7 0v45c0 6.7-5 11.3-11.6 11.3s-11.5-4.6-11.5-11.3V40h-11.5v44.6c0 13.2 10.3 22.2 23 22.2s23-9 23-22.2V40Zm15 0v65.5H338V94.6h-29.3V78.2H338V67.3h-29.3V51H338V40Zm80.8 0v44.2l-24-44.1h-12.5v65.4H353v-44l24 44h12.4V40.1Zm107 0-9.2 24.7-9.6-24.6h-12.7l27.8 65.4h12l-11.5-27.3 15.4-38.1ZM186.7 72.9a23.3 23.3 0 1 1 46.5 0 23.8 23.8 0 0 1-3 11.7l-26-16v13l18.2 11a23.7 23.7 0 0 1-12.5 3.6 23 23 0 0 1-23.2-23.3M210 38.7a34.1 34.1 0 1 0 22.5 59.9l11.6 7V93l-4.6-2.8a34.8 34.8 0 0 0 4.6-17.4A33.8 33.8 0 0 0 210 38.7Zm217 0A34.1 34.1 0 1 0 454.4 93l-8-8A21.5 21.5 0 0 1 427 96c-13.2 0-23.2-10.1-23.2-23.3s10-23.4 23.2-23.4a21.5 21.5 0 0 1 19.3 11.2l8-8a33.3 33.3 0 0 0-27.3-14Z"/></clipPath></defs><g><path fill="#4b64ff" d="M0 1.4v65.5h11.5V46.5l23-10-.2-11.7-22.8 9.7V12.3h29.3V1.4Zm55.9 11h15.4c5 0 9 2.4 9 7.9 0 5.3-4 8-9 8H56Zm-11.6-11v65.5H56V50.8l36 16.1V54.3L57 39.2h14c11.2 0 21-7.2 21-19S82.1 1.4 71 1.4Zm51.1 0v65.5h40.8v-11H107V39.5h29.3V28.6H107V12.3h29.3V1.4Zm150.7 0v44.8c0 6.7-5 11.3-11.6 11.3S223 53 223 46.2V1.4h-11.5V46c0 13.2 10.3 22.3 23 22.3s23-9.1 23-22.3V1.4Zm15 0v65.5h40.8v-11h-29.3V39.5h29.3V28.6h-29.3V12.3h29.3V1.4Zm80.8 0v44.2l-24-44.2h-12.5v65.5h11.3V22.8l24.1 44h12.4V1.5Zm107 0L439.6 26 430 1.4h-12.7l27.8 65.5h12l-11.5-27.4L461 1.4ZM150.5 34.1a23.3 23.3 0 1 1 46.6 0 23.8 23.8 0 0 1-3 11.7l-26-16v13l18.2 11a23.7 23.7 0 0 1-12.5 3.6 23 23 0 0 1-23.2-23.3M173.9 0a34.1 34.1 0 1 0 22.5 59.9l11.6 7V54.3l-4.6-2.8a34.8 34.8 0 0 0 4.6-17.4A33.8 33.8 0 0 0 173.9 0Zm217 0a34.1 34.1 0 1 0 27.4 54.4l-8-8a21.5 21.5 0 0 1-19.4 11c-13.2 0-23.2-10-23.2-23.3s10-23.4 23.2-23.4A21.5 21.5 0 0 1 410.2 22l8-8A33.3 33.3 0 0 0 391 0Z"/><g clip-path="url(#a)" transform="translate(-36.1 -38.7)"><path fill="#4b64ff" d="M36.1 38.7h461.1V107H36.1z"/></g></g></svg>