<svg xmlns="http://www.w3.org/2000/svg" fill="none" viewBox="0 0 89 20"><g fill="#fff" clip-path="url(#a)"><path fill-rule="evenodd" d="M.5 10 10.1.3l9.6 9.7-9.6 9.6L.5 10Zm15.3-3c-.4.5-1.3 1.6-1.3 3 0 1.3.9 2.4 1.3 2.8-2.6-.1-4.6-2.8-4.6-2.8s2-2.8 4.6-3ZM4.4 7C7 7.3 9 10 9 10s-2 2.7-4.6 2.8c.4-.4 1.3-1.5 1.3-2.8 0-1.4-.9-2.5-1.3-3ZM4 7c-.4.5-1.2 1.7-1.2 3s.8 2.4 1.2 2.8L6.1 15c.8-.8 2.2-1.9 3.8-2-.4.5-1.3 1.6-1.3 3 0 1.2 1 2.4 1.3 2.8l.2.2.2-.2c.4-.4 1.3-1.6 1.3-2.9 0-1.3-1-2.4-1.3-2.9 1.6.1 3 1.2 3.8 2l2.1-2.1c.4-.5 1.2-1.6 1.2-2.8 0-1.3-.8-2.4-1.2-2.9l-2.1-2c-.9.7-2.2 1.8-3.8 1.9.4-.5 1.3-1.6 1.3-2.9 0-1.3-1-2.4-1.3-2.9L10 1l-.2.2c-.4.5-1.3 1.6-1.3 3 0 1.2 1 2.3 1.3 2.8-1.6 0-3-1.2-3.8-2L4 7Z" clip-rule="evenodd"/><path d="M22.5 14.2h1.3l-.2-3.7v-.7h7.8v.7l-.2 3.7h1.3l-.2-3.7.2-6-.6.1h-.7l.1 4h-7.6v-4h-1.2l.2 5.9-.2 3.7Zm15.6 0h1.3l-.1-3.7L40.9 8l2.9-3.5H42l-2 2.9-1.3 1.8-1.4-1.8-1.9-2.8H34L36.7 8l1.5 2.3v3.8Zm7-9.6.2 5.9-.2 3.7h4.4c2.6 0 5.6-1 5.6-5 0-3-2.2-4.7-5.2-4.6h-4.8Zm1.1 5.9.2-4.7h3.5c2.1 0 4.3.8 4.3 3.4 0 3.6-3.4 3.7-4.5 3.7h-3.4v-2.4Zm18.4 3.7h1.5l-2.4-3.8-.2-.4c1.5-.1 2.8-.9 2.8-2.7 0-2.2-1.8-2.7-3.8-2.7h-5.4l.2 5.9-.2 3.7h1.3l-.1-4h4l.6.7 1.7 3.3Zm-2.4-8.4c2.1 0 3.2.2 3.2 1.5S64.4 9 62.2 9h-3.9V6h4Zm14.3 8.4h1.2l-2.3-4.6-2.3-5h-1.5l-2.2 4.7-2.4 4.9h1.4l1-2.5h6l1.1 2.5Zm-4.1-8.6 2.2 4.3.3.6H70l.4-.8 2-4Zm10.1 3.1V4.5H82V4h-.5v-.5h-3.3v6h3.3V9h.5v-.4h.4Zm-1.3-3.8h.4v3.4h-.4v.4h-2V4.5h2v.4Zm3.4.8h.4v.5h.4V7H85v.4h-.4v.9h-.4v1.2h.8v-.8h.4v-.8h.5v-.5h.8V8h.4v.8h.4v.8h.9V8.3H88v-.9h-.5V7h-.4v-.8h.4v-.5h.5V5h.4V3.6h-.9v.9h-.4v.8h-.4v.4h-.8v-.4h-.5v-.8H85v-.9h-.8V5h.4v.8Z"/></g><defs><clipPath id="a"><path fill="#fff" d="M0 0h89v20H0z"/></clipPath></defs></svg>