<svg xmlns="http://www.w3.org/2000/svg" fill="none" viewBox="0 0 98 18"><path fill="#fff" d="M21.5 14.8v-1.3h.2v1.3c0 .6.3.9.8.9s.8-.3.8-.9v-1.3h.2v1.3c0 .7-.4 1-1 1s-1-.3-1-1Zm2.6-.7h.2v.3c0-.2.3-.4.6-.4.4 0 .7.3.7.7v1.1h-.2v-1c0-.4-.2-.6-.5-.6-.4 0-.6.2-.6.6v1H24V14Zm1.9.9c0-.5.5-1 1-1 .3 0 .5.2.6.3v.2a.8.8 0 0 0-.6-.3c-.4 0-.7.3-.7.7 0 .5.3.8.7.8.2 0 .4-.1.5-.3l.2.1A.9.9 0 0 1 26 15Zm2.2-1.6h.1v1c.1-.2.3-.4.7-.4.4 0 .6.3.6.7v1.1h-.1v-1c0-.4-.2-.6-.6-.6-.3 0-.6.2-.6.6v1h-.1v-2.4Zm1.9 1.9c0-.4.3-.6.8-.6l.6.1c0-.4-.3-.6-.6-.6l-.5.1h-.1v-.1l.6-.2.5.2c.2.1.2.3.2.5v1.1h-.1v-.3a1 1 0 0 1-.7.3c-.3 0-.7-.1-.7-.5Zm1.4-.1V15l-.6-.1c-.4 0-.6.1-.6.4 0 .2.2.4.5.4s.7-.2.7-.5Zm.7-1.7.1-.1h.1v.2h-.2v-.1Zm0 .6h.2v1.7h-.2V14Zm.8 0h.2v.3c.1-.2.3-.4.7-.4.4 0 .7.3.7.7v1l-.1.1h-.1v-1c0-.4-.2-.6-.6-.6-.3 0-.6.2-.6.6v1H33V14Zm3.3 1.3v-1.2H36V14h.2v-.6h.1v.6h.6v.1h-.6v1.1c0 .3.2.4.4.4h.2v.1h-.2c-.3 0-.5-.1-.5-.4Zm1.3-2h.1v1c.1-.2.3-.4.7-.4.4 0 .7.3.7.7v1l-.1.1h-.1v-1c0-.4-.2-.6-.6-.6-.3 0-.6.2-.6.6v1h-.1v-2.4Zm2.8 2.5c-.5 0-.9-.4-.9-1 0-.5.4-.9.9-.9s.8.4.8 1h-1.5c0 .4.4.7.7.7l.6-.2h.1c-.2.2-.4.4-.7.4Zm.6-1c0-.4-.2-.7-.6-.7-.4 0-.7.3-.7.7H41Zm2.4.9h-.1l-.7-1.6V14h.1l.7 1.5.6-1.5h.2l-.7 1.7h-.1Zm1-.5c0-.4.4-.6.8-.6l.6.1c0-.4-.2-.6-.6-.6l-.5.1h-.1v-.1l.6-.2.6.2.1.5v1.1h-.1v-.3c-.1.2-.4.3-.7.3-.3 0-.7-.1-.7-.5Zm1.4-.1V15l-.6-.1c-.4 0-.6.1-.6.4 0 .2.3.4.5.4.4 0 .7-.2.7-.5Zm.8-1.8h.1v2.4h-.1v-2.4Zm2.3 2.3-.1.1h-.1v-.3c-.1.2-.3.4-.6.4-.5 0-.7-.3-.7-.8v-1h.1v1c0 .4.2.6.6.6.3 0 .6-.3.6-.6v-1h.2v1.6Zm1.3.2c-.4 0-.8-.4-.8-1 0-.5.3-.9.8-.9s.8.4.8 1h-1.4c0 .4.3.7.6.7l.6-.2h.1c-.2.2-.3.4-.7.4Zm.6-1c0-.4-.2-.7-.6-.7-.3 0-.6.3-.6.7h1.2Zm1.6.1c0-.5.4-1 1-1 .4 0 .8.4.8 1 0 .4-.4.9-.9.9a.9.9 0 0 1-.9-1Zm1.6 0c0-.5-.3-.8-.7-.8-.4 0-.7.3-.7.7 0 .5.3.8.7.8.4 0 .7-.3.7-.8Zm.8-.8h-.2V14h.2v-.2c0-.2 0-.4.2-.5h.6-.3c-.2 0-.3.2-.3.5v.2h.6v.1H55v1.5l-.1.1v-1.6Zm2.1 1.4v-.1l.7.2c.2 0 .4-.1.4-.3 0-.3-.2-.3-.5-.4-.3 0-.6-.2-.6-.5s.2-.5.6-.5l.6.2v.1H58a1 1 0 0 0-.5-.1c-.3 0-.4.1-.4.3 0 .2.2.3.5.3.2.1.5.2.5.5s-.2.5-.6.5c-.2 0-.5 0-.6-.2Zm2.5.3c-.4 0-.8-.4-.8-1 0-.5.3-.9.8-.9s.8.4.8 1h-1.5c0 .4.4.7.7.7l.6-.2h.1c-.2.2-.4.4-.7.4Zm.6-1c0-.4-.2-.7-.6-.7-.4 0-.6.3-.7.7H60Zm.7-.8h.1v.3c.2-.2.4-.4.7-.4.4 0 .7.3.7.7v1l-.1.1H62v-1c0-.4-.2-.6-.5-.6-.4 0-.7.2-.7.6v1h-.1V14Zm2 1.5v-.1l.7.2c.2 0 .4-.1.4-.3 0-.3-.2-.3-.5-.4-.3 0-.6-.2-.6-.5s.2-.5.6-.5l.5.2v.1a1 1 0 0 0-.5-.1c-.3 0-.4.1-.4.3 0 .2.2.3.5.3.2.1.5.2.5.5s-.2.5-.6.5c-.2 0-.5 0-.6-.2Zm1.8-2.1v-.1h.2v.1l-.1.1h-.1v-.1Zm0 .6h.2v1.6l-.1.1h-.1V14Zm.9 1.3v-1.2h-.2V14h.2v-.5l.1-.1v.6h.7v.1h-.6v1.1c0 .3.1.4.3.4h.3v.1h-.3c-.3 0-.5-.1-.5-.4Zm1.3-1.9.1-.1h.1v.1l-.1.1h-.1v-.1Zm0 .6h.1v1.7V14Zm1.5 1.7-.8-1.6.1-.1.7 1.5.7-1.5h.1l-.7 1.7Zm2 .1c-.5 0-.9-.4-.9-1 0-.5.4-.9.8-.9.5 0 .8.4.8 1h-1.4c0 .4.3.7.7.7l.5-.2h.1c-.1.2-.3.4-.6.4Zm.6-1c0-.4-.3-.7-.7-.7-.3 0-.6.3-.6.7h1.3Zm3.2.8v.1-.4c-.2.3-.5.5-.8.5a.9.9 0 0 1-.9-1c0-.5.5-.9.9-.9.3 0 .6.2.7.4v-1h.1v2.3Zm-1.5-.8c0 .5.3.8.7.8.4 0 .7-.3.7-.8 0-.4-.3-.7-.7-.7-.4 0-.7.3-.7.7Zm2.1.4c0-.4.3-.6.7-.6l.6.1c0-.4-.2-.6-.6-.6l-.5.1v-.1l.6-.2.5.2.2.5v1l-.1.1v-.3a1 1 0 0 1-.7.3c-.4 0-.7-.1-.7-.5Zm1.3-.1V15l-.6-.1c-.3 0-.5.1-.5.4 0 .2.2.4.5.4s.6-.2.6-.5Zm.9.2v-1.2h-.3V14h.3v-.6h.1v.6h.6v.1h-.6v1.1c0 .3.2.4.4.4h.2v.1h-.3c-.2 0-.4-.1-.4-.4Zm1.1-.1c0-.4.3-.6.8-.6l.5.1c0-.4-.2-.6-.5-.6l-.5.1H78l.1-.1.6-.2.5.2.2.5v1.1h-.2v-.3c0 .2-.3.3-.6.3-.4 0-.7-.1-.7-.5Zm1.3-.1V15l-.6-.1c-.3 0-.5.1-.5.4 0 .2.2.4.5.4s.6-.2.6-.5Zm.8.3.2.1v.1l-.1.1H80v-.2Zm1.7.2 1-2.2.1-.1h.2l1 2.3v.1h-.2l-.2-.7H82l-.2.7h-.2v-.1Zm1.8-.7-.7-1.4-.6 1.4h1.3Zm1 .4v-1.2h-.2V14h.2v-.6h.2v.6h.6v.1h-.6v1.1c0 .3.1.4.3.4h.2v.1H85c-.3 0-.5-.1-.5-.4Zm2.2.2v-.1h.1l.6.2c.2 0 .4-.1.4-.3 0-.3-.2-.3-.5-.4-.2 0-.6-.2-.6-.5s.3-.5.6-.5l.6.2v.1h-.1a1 1 0 0 0-.5-.1c-.2 0-.4.1-.4.3 0 .2.2.3.5.3.3.1.6.2.6.5s-.3.5-.6.5-.5 0-.7-.2Zm1.7-.6c0-.5.4-1 .9-1 .3 0 .5.2.6.3v.2a.8.8 0 0 0-.6-.3c-.4 0-.7.3-.7.7 0 .5.3.8.7.8.2 0 .4-.1.5-.3l.2.1a.9.9 0 0 1-1.6-.6Zm1.9.3c0-.4.3-.6.8-.6l.6.1c0-.4-.3-.6-.6-.6l-.5.1h-.1v-.1l.6-.2.5.2c.2.1.2.3.2.5v1.1h-.1v-.3a1 1 0 0 1-.7.3c-.3 0-.7-.1-.7-.5Zm1.4-.1V15l-.6-.1c-.4 0-.6.1-.6.4 0 .2.2.4.5.4.4 0 .7-.2.7-.5Zm.8-1.8h.1v2.4h-.1v-2.4Zm1.5 2.5c-.4 0-.8-.4-.8-1 0-.5.3-.9.8-.9s.8.4.8 1h-1.5c0 .4.4.7.7.7l.6-.2h.1c-.2.2-.4.4-.7.4Zm.6-1c0-.4-.2-.7-.6-.7-.4 0-.6.3-.7.7h1.3Zm.7.6.1.1v.2h-.2v-.2h.1ZM18 3.4c.4 0 .6-.2.6-.6 0-.3-.2-.5-.5-.5H2.6c-.3 0-.5.2-.5.5 0 .4.2.6.5.6h7.2v11.9c0 .3.2.5.5.5h.1c.3 0 .5-.2.5-.5V3.4h7.2Z"/><path fill="#fff" d="M8 4.6H2.6c-.3 0-.6.2-.6.5s.3.6.6.6h4.8v3.9H3.2c-.3 0-.6.2-.6.5 0 .4.3.6.6.6h4.2v4H2.6c-.3 0-.5.2-.5.5s.2.6.5.6H8c.3 0 .4-.1.5-.3l.1-.3V4.8a.6.6 0 0 0-.6-.2Zm10.1 1.1c.3 0 .6-.3.6-.6s-.3-.6-.6-.6h-5.4c-.2 0-.4.2-.5.3l-.1.4v10.3l.6.3H18c.3 0 .6-.3.6-.6s-.3-.5-.6-.5h-4.8v-4h4.2c.3 0 .6-.2.6-.5 0-.4-.3-.6-.6-.6h-4.2v-4H18Zm3.4-3c0-.2.1-.3.3-.3.2 0 .3.1.3.3v7.7c0 .2-.1.3-.3.3a.3.3 0 0 1-.3-.3V2.7Zm3.5 0c0-.2.1-.3.3-.3h.1c.1 0 .2 0 .3.2l5.6 7v-7l.3-.2c.2 0 .3.1.3.3v7.8c0 .1 0 .2-.2.2s-.3 0-.4-.2l-5.7-7.2v7.2c0 .1-.1.2-.3.2a.3.3 0 0 1-.3-.2V2.7ZM37 3h-2.6a.3.3 0 0 1-.3-.3c0-.2.1-.3.3-.3h6s.2.1.2.3c0 .2-.1.3-.3.3h-2.6v7.4c0 .2-.2.3-.3.3a.3.3 0 0 1-.4-.3V3Zm5.8 7.4V2.7c0-.1.1-.3.3-.3h5.4c.1 0 .3.1.3.3l-.3.3h-5v3.2h4.4c.2 0 .3.2.3.3 0 .2-.1.3-.3.3h-4.5v3.3h5.1c.2 0 .3.2.3.3 0 .2-.1.3-.3.3h-5.4a.3.3 0 0 1-.3-.3Zm7.9-3.8c0-2.3 1.7-4.3 4.1-4.3 1.3 0 2.1.3 2.9.9a.3.3 0 0 1-.2.6l-.2-.1c-.6-.5-1.3-.9-2.5-.9-2 0-3.4 1.7-3.4 3.7 0 2.2 1.3 3.8 3.5 3.8a4 4 0 0 0 2.7-1V7H55a.3.3 0 0 1-.3-.3c0-.2.1-.3.3-.3h2.9c.1 0 .3.1.3.3v2.7l-.2.4a5 5 0 0 1-3 1 4 4 0 0 1-4.3-4.2Zm10.1-3.9c0-.1.1-.3.3-.3h3.2c1 0 1.8.3 2.3.8.4.4.6 1 .6 1.6 0 1.4-1 2.2-2.4 2.4l2.4 3v.2c0 .2-.1.3-.3.3l-.2-.1L64 7.3h-2.7v3.1c0 .2-.2.4-.3.4a.3.3 0 0 1-.3-.4V2.7Zm3.4 4c1.4 0 2.4-.7 2.4-1.9 0-1.1-.9-1.8-2.4-1.8h-2.8v3.7h2.8Zm5.6-4c0-.2.1-.3.3-.3.2 0 .3.1.3.3v7.7c0 .2-.1.3-.3.3a.3.3 0 0 1-.3-.3V2.7Zm5.6.8H73c-.3 0-.5-.3-.5-.5 0-.3.2-.6.5-.6h5.7c.3 0 .5.3.5.6 0 .2-.2.5-.5.5h-2.2v6.8c0 .2-.4.4-.6.4-.3 0-.6-.2-.6-.4V3.5Zm5.9 6.7V2.9c0-.3.2-.5.5-.5h5.1c.3 0 .5.3.5.6 0 .2-.2.5-.5.5h-4.3v2.6h3.8c.2 0 .4.3.4.5s-.2.6-.4.6h-3.8v2.3H87c.2 0 .4.4.4.6 0 .2-.2.6-.4.6h-5.2a.5.5 0 0 1-.5-.5Zm8.3 0V2.9c0-.3.2-.5.5-.5h5.2c.2 0 .4.3.4.6 0 .2-.2.5-.4.5h-4.4v2.6h3.8c.3 0 .5.3.5.5s-.2.6-.5.6H91v2.3h4.4c.3 0 .4.4.4.6 0 .2-.1.6-.4.6h-5.2a.5.5 0 0 1-.5-.5Z"/></svg>