<svg xmlns="http://www.w3.org/2000/svg" fill="none" viewBox="0 0 194 45"><path fill="#fff" fill-rule="evenodd" d="M17.7 41.9H51l-10.2-6.4H7.4L17.7 42Zm36.7 1.9h-37a1 1 0 0 1-.5-.2L3.6 35.4a1 1 0 0 1 .5-1.8h37c.1 0 .3 0 .4.2L55 42a1 1 0 0 1-.5 1.8Z" clip-rule="evenodd"/><mask id="a" width="54" height="11" x="0" y="0" maskUnits="userSpaceOnUse" style="mask-type:alpha"><path fill="#fff" d="M.8.5H53v10.2H.8V.5Z"/></mask><g mask="url(#a)"><path fill="#fff" fill-rule="evenodd" d="M15.4 8.8h33.3L38.5 2.4H5l10.3 6.4Zm36.7 1.9H15a1 1 0 0 1-.5-.2L1.3 2.3A1 1 0 0 1 1.8.5h37l.4.2 13.4 8.2a1 1 0 0 1-.5 1.8Z" clip-rule="evenodd"/></g><path fill="#fff" fill-rule="evenodd" d="M24 22.2a5 5 0 1 1 10.1 0 5 5 0 0 1-10 0Z" clip-rule="evenodd"/><path fill="#fff" fill-rule="evenodd" d="M29.1 18a4.2 4.2 0 0 0-4.3 4.2c0 2.4 2 4.3 4.3 4.3a4.3 4.3 0 0 0 0-8.6Zm0 10a5.8 5.8 0 0 1 0-11.6 5.8 5.8 0 0 1 5.8 5.7 6 6 0 0 1-5.7 6H29Z" clip-rule="evenodd"/><mask id="b" width="194" height="44" x="0" y="0" maskUnits="userSpaceOnUse" style="mask-type:alpha"><path fill="#fff" d="M.8 43.8h192.4V.5H.8v43.3Z"/></mask><g fill="#fff" fill-rule="evenodd" clip-rule="evenodd" mask="url(#b)"><path d="M70.9 29.8h3.4V16H71v13.8ZM80.2 16h5l5.4 9.2V16h3.1v13.8h-4L83.4 19v10.7h-3.2V16Zm22.7 2.7h-4V16h11.3v2.7h-3.9v11H103v-11Zm12.5-2.7h9.8v2.7H119v3h4.9V24h-5v3h6.6v2.7h-10V16Zm21.9 6.5c1.5 0 2.2-.6 2.2-1.9 0-1.2-.8-2-2.3-2h-3v4h3.1Zm-6.6-6.5h6.5c3.6 0 5.6 1.5 5.6 4 0 1.8-.8 3-2 3.3 1.3.4 2 1.5 2 3v3.5h-3.5v-3.4c0-1.2-.5-1.8-1.8-1.8h-3.3v5.2h-3.5V16Zm17.8 0h3.4v11h6.3v2.8h-9.7V16Zm23.6 8.8-2-6-2 6h4Zm.8 2.2h-5.6l-1 2.8H163l5.3-13.8h4.3l5.3 13.8h-4l-1-2.8Zm11.4-2.5-5.5-8.5h4.5l3 5.4 3-5.4h3.9l-5.5 8.5v5.3h-3.4v-5.3Z"/></g></svg>