<svg xmlns="http://www.w3.org/2000/svg" xmlns:xlink="http://www.w3.org/1999/xlink" viewBox="0 0 400 131.5"><defs><path id="outer-t" d="M21 59.6c-6.4 0-11.5-2-15.2-5.7a19 19 0 0 1-3.5-5.1 24.3 24.3 0 0 1-1.7-5.1 27.4 27.4 0 0 1-.5-4L0 38.2V5.5a4.4 4.4 0 0 1 .4-1.8A6.2 6.2 0 0 1 1.7 2a6.2 6.2 0 0 1 4.6-2h.1a8.5 8.5 0 0 1 3 .5 7 7 0 0 1 2 1.3 5.8 5.8 0 0 1 1.4 1.7 3.9 3.9 0 0 1 .5 1.7v8h.2a12528.6 12528.6 0 0 1 28 0 4.4 4.4 0 0 1 2 .6 4.2 4.2 0 0 1 1.5 1.3 6 6 0 0 1 .8 2 8.7 8.7 0 0 1 .3 2 8.4 8.4 0 0 1-.3 2.3 6.6 6.6 0 0 1-.9 2 4.6 4.6 0 0 1-1.4 1.4 4 4 0 0 1-2 .5H13.3V37a14 14 0 0 0 .2 2.6 13.3 13.3 0 0 0 1.2 3.4 8 8 0 0 0 2.4 3 6.6 6.6 0 0 0 1.9.9 7.8 7.8 0 0 0 2.3.3h19.8a4.2 4.2 0 0 1 2 .6 5.3 5.3 0 0 1 1.6 1.4 6.8 6.8 0 0 1 1 1.9 6.3 6.3 0 0 1 .5 2 6.1 6.1 0 0 1-.5 2.2 8.6 8.6 0 0 1-1.1 2 6.7 6.7 0 0 1-1.7 1.6 4.1 4.1 0 0 1-.9.5 3 3 0 0 1-1 .2H21Zm12.2-3.2H41a1.2 1.2 0 0 0 .7-.3 3 3 0 0 0 .6-.7 4.4 4.4 0 0 0 .5-1 4 4 0 0 0 .3-1.2 2.9 2.9 0 0 0-.3-1.2 3.6 3.6 0 0 0-.7-1 2.2 2.2 0 0 0-1.3-.8 1006.3 1006.3 0 0 0-19.3 0h-.1a10.3 10.3 0 0 1-7.9-3.2 11.5 11.5 0 0 1-2.3-4 18.1 18.1 0 0 1-1-5.6V22.3h31.1a1.5 1.5 0 0 0 1.3-1 4.9 4.9 0 0 0 .4-2.2 4.5 4.5 0 0 0 0-1.1 3.1 3.1 0 0 0-.4-.9 2 2 0 0 0-.5-.6 1.2 1.2 0 0 0-.7-.2H10.2V5.8a3 3 0 0 0-.6-1.6 3 3 0 0 0-1-.8A3.9 3.9 0 0 0 6.8 3a4.9 4.9 0 0 0-1.8.3 3.2 3.2 0 0 0-1.1.7 2.9 2.9 0 0 0-.6 1 2.6 2.6 0 0 0-.2.8v31.6a21 21 0 0 0 3.4 12.7 13.7 13.7 0 0 0 2.4 2.5 14.5 14.5 0 0 0 3.2 2 18.6 18.6 0 0 0 4.1 1.3 27.4 27.4 0 0 0 5.3.5h11.7Z" class="cls-4"/></defs><defs><style>.cls-1{fill:#fff}.cls-2{fill:#493b29}.cls-3{fill:#ff1f66}.cls-4{fill:#5cffd9}.cls-5{fill:#4849fb}</style></defs><g id="colour-full-totem-logo" transform="translate(-60 -413)"><g id="rectangle" transform="translate(60 413)"><path id="outer-rectangle" d="M52.5 0h295A52.5 52.5 0 0 1 400 52.5V79a52.5 52.5 0 0 1-52.5 52.5h-295A52.5 52.5 0 0 1 0 79V52.5A52.5 52.5 0 0 1 52.5 0Z" class="cls-1"/><path id="inner-rectangle-cutout" d="M334.5 114.6H47.3a47.6 47.6 0 0 1-9.5-1 47 47 0 0 1-17-7 47.4 47.4 0 0 1-17-20.9A47 47 0 0 1 1 76.8a47.6 47.6 0 0 1-1-9.5v-20a47.6 47.6 0 0 1 1-9.5 47 47 0 0 1 7-17A47.4 47.4 0 0 1 29 3.9 47 47 0 0 1 37.8 1a47.6 47.6 0 0 1 9.5-1h287.2a47.6 47.6 0 0 1 9.6 1A47 47 0 0 1 361 8a47.4 47.4 0 0 1 17 21 47 47 0 0 1 2.8 8.9 47.6 47.6 0 0 1 1 9.5v20a47.5 47.5 0 0 1-1.3 11 47 47 0 0 1-3.7 10 13.1 13.1 0 0 0-21 15 13.2 13.2 0 0 0 3.4 4.3 47 47 0 0 1-24.8 7Z" class="cls-2" transform="translate(8.5 8.5)"/></g><g id="totem-dot" transform="translate(98.4 444.7)"><g id="totem"><g id="t"><use xlink:href="#Inner-t" class="cls-3" transform="translate(-286.9 -186.8)"/><use xlink:href="#outer-t" class="cls-4"/></g><g id="o" transform="translate(53.4 13.6)"><path id="o-2" d="M43.3 46.6H21.4a20 20 0 0 1-5.6-1 27 27 0 0 1-7.1-3.5 20.4 20.4 0 0 1-6.1-6.4 19.6 19.6 0 0 1-2.6-10v-6.3a15 15 0 0 1 1.7-6 26.5 26.5 0 0 1 5-7A20.7 20.7 0 0 1 21.4 0h21.9a18.2 18.2 0 0 1 6.3 1.4 28.6 28.6 0 0 1 6.9 3.8 25 25 0 0 1 3 2.7A19.8 19.8 0 0 1 62 11a13.8 13.8 0 0 1 2.2 7.4v10.4a12.8 12.8 0 0 1-1.6 5.6 22.4 22.4 0 0 1-4.3 5.9 23.9 23.9 0 0 1-3 2.5 22.6 22.6 0 0 1-3.6 2 20.3 20.3 0 0 1-8.4 1.8Zm-22-32.8a7 7 0 0 0-2.8.6 7.4 7.4 0 0 0-2.1 1.4 5.3 5.3 0 0 0-1.8 3.2v8a5.5 5.5 0 0 0 1.7 3.7 6.1 6.1 0 0 0 2 1.3 8.1 8.1 0 0 0 3 .5h21.3a7.5 7.5 0 0 0 5.2-1.7 5.2 5.2 0 0 0 1.3-1.8 5 5 0 0 0 .4-2v-6.8a5.9 5.9 0 0 0-.4-2 7.4 7.4 0 0 0-1.1-2 5.8 5.8 0 0 0-4.7-2.4Z" class="cls-5" data-name="o"/><path id="inner-o" d="M22.8 38.6H17a16.8 16.8 0 0 1-6.5-1.7A19.5 19.5 0 0 1 5.1 33a18.4 18.4 0 0 1-3.7-5.3A13.7 13.7 0 0 1 .1 22a6.5 6.5 0 0 0 0-1 43.4 43.4 0 0 1 0-5.2 13.5 13.5 0 0 1 1.3-5.2A19.6 19.6 0 0 1 5 5.5 16.7 16.7 0 0 1 17 0h21.2a22 22 0 0 1 7 1.1 19.7 19.7 0 0 1 5.7 3 15 15 0 0 1 4 4.5 11 11 0 0 1 1.5 5.3l.1 6 .1 3.5c0 3-1.4 6.3-4.2 9a21 21 0 0 1-6.4 4.4 19.7 19.7 0 0 1-7.8 1.7H22.8ZM17.1 5.8a9 9 0 0 0-4 1A11.9 11.9 0 0 0 10 9a9.7 9.7 0 0 0-3 6v7.7a7.5 7.5 0 0 0 .7 2.6 13 13 0 0 0 1.9 3.1 11.2 11.2 0 0 0 3.2 2.7 9.7 9.7 0 0 0 4.5 1.2 649.4 649.4 0 0 0 23.8 0 8.3 8.3 0 0 0 3.4-1 10 10 0 0 0 2.7-2.2 10.7 10.7 0 0 0 1.7-2.6 7 7 0 0 0 .7-2.6c0-2.5.2-7.2 0-9.2A8.8 8.8 0 0 0 46 8a11 11 0 0 0-6-2.2H17.3Z" class="cls-1" transform="translate(3.7 4.2)"/></g><g id="t-2" data-name="t" transform="translate(126.8)"><use xlink:href="#Inner-t" id="Inner-t-2" class="cls-5" data-name="Inner-t" transform="translate(-286.9 -186.8)"/><use xlink:href="#outer-t" id="outer-t-2" class="cls-4" data-name="outer-t"/></g><g id="equals" transform="translate(182.8 14.3)"><g id="lower-bar" transform="translate(0 31.7)"><path id="bar" d="M29.7 14.1H5.4A4.8 4.8 0 0 1 1.2 12 8.2 8.2 0 0 1 0 7.4a10.2 10.2 0 0 1 1.2-5A5 5 0 0 1 2.8.8 4.8 4.8 0 0 1 5.4 0h34.1a4.1 4.1 0 0 1 3.7 2.3 8.7 8.7 0 0 1 1.1 4.2 12.7 12.7 0 0 1-.8 4.8 4.1 4.1 0 0 1-4 2.8h-9.8ZM5.4 4c-.4 0-.8.4-1 1a5.5 5.5 0 0 0-.6 2.2 4 4 0 0 0 1 2.7 1 1 0 0 0 .5.3 2519.7 2519.7 0 0 1 33.8 0c.2 0 .6-.2 1-.7a4.1 4.1 0 0 0 .6-2.3 4.2 4.2 0 0 0-.7-2.3 1.7 1.7 0 0 0-1.2-.9H5.4Z" class="cls-5"/><use xlink:href="#inner-bar" class="cls-1" transform="translate(-540.3 -389.1)"/></g><g id="upper-bar"><path id="bar-2" fill="#fd1d66" d="M29.7 14.1H5.4A4.8 4.8 0 0 1 1.2 12 8.2 8.2 0 0 1 0 7.4a10.2 10.2 0 0 1 1.2-5A5 5 0 0 1 2.8.8 4.8 4.8 0 0 1 5.4 0h34.1a4.1 4.1 0 0 1 3.7 2.3 8.7 8.7 0 0 1 1.1 4.2 12.7 12.7 0 0 1-.8 4.8 4.1 4.1 0 0 1-4 2.8h-9.8ZM5.4 4c-.4 0-.8.4-1 1a5.5 5.5 0 0 0-.6 2.2 4 4 0 0 0 1 2.7 1 1 0 0 0 .5.3 2519.7 2519.7 0 0 1 33.8 0c.2 0 .6-.2 1-.7a4.1 4.1 0 0 0 .6-2.3 4.2 4.2 0 0 0-.7-2.3 1.7 1.7 0 0 0-1.2-.9H5.4Z" data-name="bar"/><use xlink:href="#inner-bar" id="inner-bar-2" class="cls-1" data-name="inner-bar" transform="translate(-540.3 -389.1)"/></g></g><g id="m" transform="translate(234.5 12.8)"><path id="inner-m" d="M673.4 396v-3.4c0-1.3-2-2.3-3.2-2.3s-3.4.7-3.5 2.3 0 31 0 33.6 2.2 3.2 3.5 3.4 4-.7 4-3.4l.2-21.4c0-5.2 9.2-8.4 14.9-8.8s14.4 1.1 14.8 8.8v21.7c0 2.5 3 3 3.7 3s4.1-.6 4.2-3.3 0-17.8 0-21.4c.1-4.6 8.4-8.2 15.7-8.8s14.6 3 14.6 8.8v21.7c0 2.7 3.1 3 3.8 3a3.2 3.2 0 0 0 3.6-3.3v-21.4c-.8-10.3-12.5-15-19.7-15s-14.3 1.8-21 8.5c-4.8-7.6-14.1-8.8-19.3-8.5a26.8 26.8 0 0 0-16.3 6.2Z" class="cls-2" transform="translate(-662.7 -385.7)"/><path id="outer-m" fill="#62ffd8" d="M82.8 47.7A7.4 7.4 0 0 1 80 47a7.7 7.7 0 0 1-2.3-1.4 7.1 7.1 0 0 1-1.5-2 5.1 5.1 0 0 1-.6-2.3V19.2a3.6 3.6 0 0 0-1-2.5 6.9 6.9 0 0 0-2.5-1.6 18.5 18.5 0 0 0-6.5-1H65a24.6 24.6 0 0 0-7.3 1.6 13.6 13.6 0 0 0-3 1.6 2.7 2.7 0 0 0-1.4 1.9v22.2a6.2 6.2 0 0 1-2.3 4.2 8.6 8.6 0 0 1-5.5 2h-.2a8.8 8.8 0 0 1-5.6-1.8 6.7 6.7 0 0 1-1.6-2 5.3 5.3 0 0 1-.7-2.4V18.6a3 3 0 0 0-1-2.1 8 8 0 0 0-3.1-1.9 14.1 14.1 0 0 0-4.5-.7 13.6 13.6 0 0 0-1.9.1 27.6 27.6 0 0 0-7.5 2.1 9 9 0 0 0-2.7 1.9 3.6 3.6 0 0 0-1.1 2.5v20.9a4.5 4.5 0 0 1-.6 2 8.3 8.3 0 0 1-1.6 2A8.4 8.4 0 0 1 11 47a7.5 7.5 0 0 1-3 .7h-.3a10.6 10.6 0 0 1-3.1-.6A7.5 7.5 0 0 1 2 45.8a5.8 5.8 0 0 1-1.6-2 5.6 5.6 0 0 1-.5-2.4V7A7 7 0 0 1 1 4a6.6 6.6 0 0 1 2.4-2.2A9.7 9.7 0 0 1 8 .6a7.2 7.2 0 0 1 3.5 1 5.2 5.2 0 0 1 2 2 39.4 39.4 0 0 1 8-2.8 31.9 31.9 0 0 1 7.2-.8h1a28 28 0 0 1 8.8 1.8 23.7 23.7 0 0 1 8.3 5l1.4-1A23 23 0 0 1 54.7 2 40.3 40.3 0 0 1 68 .3h1.1a24.3 24.3 0 0 1 9.5 2.3 21.5 21.5 0 0 1 6.8 5 21.8 21.8 0 0 1 4.1 6.7 20 20 0 0 1 1.4 7.2v20a5.6 5.6 0 0 1-2.3 4.3 9.7 9.7 0 0 1-5.5 1.9h-.3ZM7.4 4.6a4.8 4.8 0 0 0-2.2.6A2 2 0 0 0 4 6.9v33.6c0 .7.3 3 3.4 3.4h.3a4.2 4.2 0 0 0 2.9-1.2 3 3 0 0 0 .8-2.2l.1-10 .2-11.4a5.2 5.2 0 0 1 1.5-3.6A12.8 12.8 0 0 1 17 13a27.4 27.4 0 0 1 9.5-2.6l1.7-.1a18.9 18.9 0 0 1 8.5 1.8 9 9 0 0 1 3.2 2.8 8.2 8.2 0 0 1 1.4 4.3c.2 3.4 0 12.2 0 17.5v4.1a2.5 2.5 0 0 0 .5 1.6 3.4 3.4 0 0 0 1.1.9 6.1 6.1 0 0 0 2.1.7 1 1 0 0 0 .1 0 5.5 5.5 0 0 0 2.4-.7 3.1 3.1 0 0 0 1.7-2.7V19a5 5 0 0 1 1.5-3.2 13.3 13.3 0 0 1 3.7-2.7 26.8 26.8 0 0 1 5-2 31.8 31.8 0 0 1 5.5-1h1.7a18 18 0 0 1 4.8.6 14.8 14.8 0 0 1 4.2 1.9 9.6 9.6 0 0 1 2.9 2.8 6.6 6.6 0 0 1 1 3.6v21.6a2.7 2.7 0 0 0 .6 1.7 3.2 3.2 0 0 0 1.1.9 5.7 5.7 0 0 0 2.1.6h.1a4 4 0 0 0 2.7-1 3.2 3.2 0 0 0 .8-2.4V19a13.2 13.2 0 0 0-2.4-6.7 17.2 17.2 0 0 0-5-4.7A24.5 24.5 0 0 0 73.2 5a22.5 22.5 0 0 0-6-.9 30.5 30.5 0 0 0-10.7 1.8 26.4 26.4 0 0 0-5.1 2.6 31.3 31.3 0 0 0-5.1 4 17.3 17.3 0 0 0-8.6-6.8 24.3 24.3 0 0 0-4.9-1.3 27.6 27.6 0 0 0-4.4-.3h-1.5a30.7 30.7 0 0 0-8.1 1.5 24.7 24.7 0 0 0-8.1 4.7V6.8a2 2 0 0 0-1.2-1.6 4.4 4.4 0 0 0-2-.6Z"/></g></g><path id="dot" d="M8.5 0A8.5 8.5 0 1 1 0 8.5 8.5 8.5 0 0 1 8.5 0Z" class="cls-3" transform="translate(329.5 66)"/></g></g></svg>