<svg xmlns="http://www.w3.org/2000/svg" fill="none" viewBox="0 0 160 56"><path fill="#E6007A" fill-rule="evenodd" d="M44.3 44.8h-20l-10-10 10-10 20 20Zm0-40.3-20 20.2-10-10.1 10-10.1h20Z" clip-rule="evenodd"/><path fill="#AB005B" fill-rule="evenodd" d="m14.4 14.6 10 10-10 10-9.9-10 10-10Z" clip-rule="evenodd"/><path fill="#E6007A" fill-rule="evenodd" d="m14.4 34.8-9.9 10v-20l9.9 10Zm0-20.2-10 10v.1-20l10 10Z" clip-rule="evenodd"/><mask id="a" width="23" height="33" x="82" y="19" maskUnits="userSpaceOnUse" style="mask-type:alpha"><path fill="#fff" d="M82 19.7h22.8v31.8H82V19.7Z"/></mask><g mask="url(#a)"><path fill="#fff" fill-rule="evenodd" d="M99.3 33a315.7 315.7 0 0 1-4.8 11.3L91 51.5h-7.7a20 20 0 0 0 2.5-3c1.2-1.7 2-3.3 4.2-7.7l-8-21.1h8l4 11.5 4.3-11.5h6.5L99.3 33Z" clip-rule="evenodd"/></g><path fill="#fff" fill-rule="evenodd" d="M107.8 41.1h7.3V6h-7.3v35Zm13.5 0h7.5v-23h-7.5v23Zm27.4 0V29.7c0-2.4-1.2-3.8-3.1-3.8-2 0-3.1 1.4-3.1 3.8V41H135V18.8h7.1v4c2.4-2.5 4.5-3.7 7-3.7 4.2 0 7 3.1 7 7.8V41h-7.4Z" clip-rule="evenodd"/><path fill="#E6007A" fill-rule="evenodd" d="M129.2 10.1a4.2 4.2 0 1 1-8.4 0 4.2 4.2 0 0 1 8.4 0Z" clip-rule="evenodd"/><path fill="#fff" fill-rule="evenodd" d="M52.9 5.5h7.8v16.8l11-16.8h9.2L69 23.2l13.2 18.6h-9.7L60.7 25.2v16.6h-7.8V5.5Z" clip-rule="evenodd"/></svg>