<svg xmlns="http://www.w3.org/2000/svg" fill="none" viewBox="0 0 88 20"><g clip-path="url(#a)"><mask id="b" width="102" height="36" x="-8" y="-8" maskUnits="userSpaceOnUse" style="mask-type:luminance"><path fill="#fff" d="M-7.66-7.23H93.82v34.55H-7.66V-7.23Z"/></mask><g mask="url(#b)"><path fill="url(#c)" d="m22.8 10.62-1.53-1.4-1.74 1.89a1.9 1.9 0 0 1-1.58.6l-1.01-.1a1.27 1.27 0 0 0-1.06.4L9.83 18.6l1.54 1.4 6.9-7.51a1.27 1.27 0 0 1 1.23-.38l.86.21a1.27 1.27 0 0 0 1.23-.38l1.21-1.31Z"/><path fill="url(#d)" d="m19.51 7.61-1.53-1.4-3.3 3.58a1.9 1.9 0 0 1-1.59.6l-1-.09a1.27 1.27 0 0 0-1.06.4l-4.49 4.88 1.53 1.4 5.35-5.81a1.27 1.27 0 0 1 1.23-.38l.86.2a1.27 1.27 0 0 0 1.23-.37l2.77-3.01Z"/><path fill="url(#e)" d="m16.22 4.6-1.53-1.4-4.86 5.28a1.9 1.9 0 0 1-1.59.6l-1-.1a1.27 1.27 0 0 0-1.06.41l-2.93 3.18 1.53 1.4 3.79-4.11a1.27 1.27 0 0 1 1.23-.38l.86.2a1.27 1.27 0 0 0 1.23-.37l4.33-4.7Z"/><path fill="url(#f)" d="M12.93 1.6 11.4.2 4.98 7.17a1.9 1.9 0 0 1-1.59.6l-1-.1a1.27 1.27 0 0 0-1.07.41L-.04 9.56l1.53 1.4 2.23-2.42a1.27 1.27 0 0 1 1.23-.37l.86.2A1.27 1.27 0 0 0 7.04 8l5.89-6.4Z"/><path fill="#fff" d="M28.39 15.14V4.21h2v9.37h4.86v1.56H28.4Zm9.66-8.95c-.36 0-.67-.1-.9-.33a1.1 1.1 0 0 1-.35-.83 1 1 0 0 1 .34-.8c.24-.23.55-.34.91-.34.37 0 .67.11.9.33.24.21.36.48.36.82 0 .33-.12.6-.36.82-.23.22-.53.33-.9.33Zm-1 8.95V7.4h2v7.75h-2Zm7.56 0c-.81 0-1.46-.2-1.95-.6-.5-.39-.74-1.1-.74-2.1V9.06h-1.33V7.4h1.33l.23-2.07h1.77V7.4h2.1v1.67h-2.1v3.4c0 .37.08.63.24.78.17.13.45.2.85.2h.97v1.7H44.6Zm6.72.19a4.3 4.3 0 0 1-2.09-.5 3.7 3.7 0 0 1-1.43-1.4c-.34-.61-.51-1.3-.51-2.1s.16-1.52.5-2.14a3.7 3.7 0 0 1 1.4-1.45 4.17 4.17 0 0 1 2.14-.53c.76 0 1.44.16 2.02.5a3.74 3.74 0 0 1 1.85 3.65l-.01.4h-5.91c.04.6.25 1.07.62 1.41.4.35.86.52 1.4.52.4 0 .75-.09 1.02-.27.28-.18.49-.42.62-.72H55a3.7 3.7 0 0 1-3.66 2.63Zm.01-6.5c-.5 0-.92.14-1.3.42-.38.27-.62.69-.72 1.25h3.87a1.68 1.68 0 0 0-.56-1.22c-.35-.3-.78-.45-1.29-.45Zm5.57 6.31V7.4h1.78l.15 1.32c.24-.46.59-.83 1.04-1.1.46-.27 1-.4 1.61-.4.96 0 1.7.3 2.24.9.53.6.8 1.5.8 2.66v4.37h-2v-4.19a2.5 2.5 0 0 0-.41-1.53c-.27-.35-.7-.53-1.27-.53-.57 0-1.03.2-1.4.6-.35.4-.53.94-.53 1.65v4h-2Zm13 0c-.81 0-1.46-.2-1.96-.6-.49-.39-.73-1.1-.73-2.1V9.06h-1.33V7.4h1.33l.23-2.07h1.77V7.4h2.1v1.67h-2.1v3.4c0 .37.08.63.24.78.17.13.45.2.85.2h.97v1.7H69.9Zm3.14 0V7.4h1.78l.2 1.46a3.2 3.2 0 0 1 2.86-1.64v2.1h-.57c-.43 0-.83.07-1.17.2-.35.14-.62.38-.82.71-.18.33-.28.8-.28 1.4v3.52h-2Zm7.18 3.44 1.8-3.95h-.47l-3.02-7.24h2.18l2.18 5.45 2.27-5.45h2.13l-4.94 11.19h-2.13Z"/></g></g><defs><linearGradient id="c" x1="21.27" x2="11.4" y1="9.22" y2="20.02" gradientUnits="userSpaceOnUse"><stop offset=".21" stop-color="#02C86A"/><stop offset=".34" stop-color="#14EA85"/></linearGradient><linearGradient id="d" x1="17.98" x2="8.11" y1="6.21" y2="17.01" gradientUnits="userSpaceOnUse"><stop offset=".32" stop-color="#02C86A"/><stop offset=".51" stop-color="#11ED85"/></linearGradient><linearGradient id="e" x1="14.69" x2="4.82" y1="3.2" y2="14" gradientUnits="userSpaceOnUse"><stop offset=".5" stop-color="#1FD17D"/><stop offset=".64" stop-color="#2CE28C"/></linearGradient><linearGradient id="f" x1="11.4" x2="1.53" y1=".2" y2="11" gradientUnits="userSpaceOnUse"><stop offset=".65" stop-color="#1BC675"/><stop offset=".8" stop-color="#0FD879"/></linearGradient><clipPath id="a"><path fill="#fff" d="M0 0h87.23v20H0z"/></clipPath></defs></svg>