<svg xmlns="http://www.w3.org/2000/svg" fill="none" viewBox="0 0 107 32"><path fill="url(#a)" fill-rule="evenodd" d="M7.44 27.47A14.32 14.32 0 0 1 16 1.67c6.53.01 13.65 3.91 15.37 9.89A16 16 0 1 0 32 16v-.84h-1c-.1 0-.25 0-.44-.02a28 28 0 0 1-1.49-.09c-1.2-.1-2.57-.3-3.5-.68a9.53 9.53 0 0 1-3.3-2.32L22.2 12c-.97-.93-2.05-1.98-3.94-2.87a8.73 8.73 0 0 0-5.43-.42c-.76.16-1.43.36-1.9.53l-.54.22c-.76.32-1.5.7-2.25 1.05a86.37 86.37 0 0 0 2.31.66l.45.17c.39.16.89.39 1.38.71.79.5 1.43 1.14 1.7 1.91-1.66.22-3.21.95-4.38 1.63a18.43 18.43 0 0 0-2.19 1.52l-1.59 1.4s1.93.2 2.88.39c.64.13 1.5.33 2.39.64.9.32 1.8.73 2.55 1.25.75.53 1.3 1.13 1.57 1.83.8 2.02.02 4-1.54 5.1-1.55 1.1-3.9 1.36-6.24-.25Zm5.46 2.5a6.5 6.5 0 0 0 1.75-.87 5.93 5.93 0 0 0 2.14-7.1 5.85 5.85 0 0 0-2.18-2.59 12.31 12.31 0 0 0-2.96-1.45c-.65-.23-1.27-.4-1.82-.53l.63-.4a9.38 9.38 0 0 1 4.5-1.45c2.35 0 4.11.72 5.79 1.5l.46.21c1.5.7 3.07 1.44 4.9 1.44 1.83 0 3.16-.5 4.11-1.02a14.32 14.32 0 0 1-17.31 12.27h-.01Zm15.5-13.29c-.63.22-1.4.37-2.3.37-1.43 0-2.66-.57-4.23-1.3l-.42-.2a15.28 15.28 0 0 0-5.74-1.63c-.32-1.56-1.5-2.63-2.52-3.29a7.13 7.13 0 0 0-.34-.2l.32-.07a6.9 6.9 0 0 1 4.36.3 12.2 12.2 0 0 1 3.53 2.57l.03.04c.99.94 2.04 1.94 3.86 2.67 1.01.4 2.32.62 3.45.74Z" clip-rule="evenodd"/><path fill="#151522" d="M42.36 12.55V3.1h1.8l1.57 3.8 1.57-3.8h1.8v9.45h-1.4V5.3l-1.97 4.68-1.97-4.68v7.26h-1.4Zm8.89 0 2.97-9.45h1.92l2.97 9.45h-1.65l-.69-2.28h-3.25l-.67 2.28h-1.6Zm2.63-3.54h2.54l-1.27-4.2-1.27 4.2Zm7.55 3.54V3.1h1.64l3.41 6.61-.02-6.61h1.37v9.45h-1.5l-3.55-6.83.03 6.83h-1.38Zm11.84 0V4.48h-2.93V3.1h7.48v1.38h-2.93v8.07h-1.62Zm6.33 0 2.97-9.45h1.92l2.97 9.45h-1.65l-.68-2.28h-3.26l-.67 2.28h-1.6Zm2.63-3.54h2.54l-1.27-4.2-1.27 4.2Zm-39.7 19.74V19.3h1.64l3.41 6.61-.02-6.61h1.37v9.45h-1.5l-3.55-6.83.03 6.83h-1.38Zm9.77 0V19.3h6.19v1.38h-4.57v2.63h2.96v1.35h-2.96v2.71h4.62v1.38H52.3Zm11.52 0v-8.07H60.9V19.3h7.48v1.38h-2.93v8.07h-1.62Zm7.55 0-1.1-9.45h1.42l.6 6.24 1.21-6.24h1.21l1.22 6.18.6-6.18h1.37l-1.1 9.45h-1.45l-1.26-6.67-1.27 6.67h-1.45Zm12.16.15c-.66 0-1.28-.2-1.83-.56a3.9 3.9 0 0 1-1.34-1.66 6.3 6.3 0 0 1-.5-2.65c0-1.04.17-1.93.5-2.65.34-.73.78-1.28 1.34-1.65a3.21 3.21 0 0 1 3.67 0c.54.37 1 .93 1.33 1.65.33.72.5 1.6.5 2.65 0 1.04-.17 1.93-.5 2.65a3.98 3.98 0 0 1-1.34 1.66c-.55.37-1.16.56-1.83.56Zm0-1.46c.38 0 .72-.12 1.04-.38.3-.26.55-.64.73-1.15a5.7 5.7 0 0 0 .27-1.88c0-.75-.1-1.38-.27-1.88a2.6 2.6 0 0 0-.73-1.15 1.57 1.57 0 0 0-2.07 0c-.31.26-.56.64-.74 1.15-.18.5-.27 1.13-.27 1.88 0 .74.1 1.37.27 1.88.18.5.43.89.74 1.15.3.25.65.38 1.03.38Zm6.51 1.31V19.3h3.21c.63 0 1.18.12 1.65.36a2.7 2.7 0 0 1 1.51 2.49 2.65 2.65 0 0 1-1.8 2.59l2.06 4h-1.74l-1.88-3.77h-1.4v3.78h-1.62Zm1.62-5.07h1.46c.5 0 .9-.14 1.2-.41.3-.28.46-.64.46-1.1 0-.44-.15-.82-.45-1.1-.3-.27-.7-.4-1.21-.4h-1.46v3Zm7.68 5.07V19.3h1.62v4.23l3.39-4.23h1.85l-3.81 4.58 3.98 4.87h-2.04l-3.37-4.32v4.32h-1.63Z"/><defs><linearGradient id="a" x1="-.29" x2="32.29" y1="16.3" y2="15.7" gradientUnits="userSpaceOnUse"><stop stop-color="#29CCB9"/><stop offset=".49" stop-color="#0091FF"/><stop offset="1" stop-color="#FF66B7"/></linearGradient></defs></svg>