<svg xmlns="http://www.w3.org/2000/svg" fill="none" viewBox="0 0 83 21"><path fill="#19AE82" d="M13.22 11.04 11.58 11l.02-1.02 1.63.04-.01 1.02Z"/><path fill="#19AE82" fill-rule="evenodd" d="M16.91.5c2.7 0 4.91.78 6.4 2.24a6.9 6.9 0 0 1 1.97 5.04 6.05 6.05 0 0 1-2.22 4.45 7.42 7.42 0 0 1-4.76 1.79h-.12l-4.5-.08V13l4.52.08a5.67 5.67 0 0 0 3.97-1.53 5.32 5.32 0 0 0 .66-7.06l-.05.02c.38.78.56 1.62.55 2.49a5.71 5.71 0 0 1-5.78 5.52h-.1l-4.29-.07-1.58-.04-2.77-.04h-.06c-1.8 0-3.27 1.4-3.3 3.16-.01.76.25 1.5.74 2.1l.12.13-.07-.17a3.24 3.24 0 0 1-.25-1.31 3.47 3.47 0 0 1 3.5-3.36h.07l1.48.03v.92l-1.5-.02H9.5a2.52 2.52 0 0 0-2.55 2.44c-.01.67.2 1.17.6 1.5.4.32.95.48 1.69.5a2.1 2.1 0 0 0 1.68-.8 3 3 0 0 0 .64-1.85l.04-2.67 1.53.03-.05 2.68a5.07 5.07 0 0 1-1.16 3.25c-.91 1.04-2.25 1.56-4.01 1.56-2.61 0-4.62-.7-6-2.06a7.07 7.07 0 0 1-1.9-5.22 6.21 6.21 0 0 1 2-4.45 6.6 6.6 0 0 1 4.53-1.79h.12l4.5.08V8l-4.51-.1a5.67 5.67 0 0 0-3.97 1.53 5.32 5.32 0 0 0-.66 7.06l.04-.02a5.48 5.48 0 0 1 1.21-6.43 5.8 5.8 0 0 1 4-1.58h.11l4.3.07 1.57.04 2.77.04h.06c1.8 0 3.27-1.4 3.3-3.16a3.2 3.2 0 0 0-.74-2.1l-.11-.13.07.17c.17.4.25.85.24 1.31a3.47 3.47 0 0 1-3.5 3.36h-.07l-1.5-.03.02-.92 1.49.02c.68.02 1.32-.23 1.82-.69.49-.46.76-1.08.77-1.74.02-.67-.19-1.17-.6-1.5a2.7 2.7 0 0 0-1.68-.5h-.04c-.64 0-1.22.3-1.65.8a3 3 0 0 0-.64 1.85l-.04 2.67L11.7 8l.04-2.68c.01-.93.23-2.26 1.13-3.3.89-1 2.25-1.52 4.04-1.52Zm.64 11.1a4.79 4.79 0 0 0 4.83-4.64 4.56 4.56 0 0 0-.93-2.86l-.17-.2.1.23a4.73 4.73 0 0 1-1.08 5.53 5.07 5.07 0 0 1-3.48 1.37h-.09l-3-.06.01-.92 3 .05h.07c1.05 0 2.05-.4 2.82-1.11a3.86 3.86 0 0 0 .4-5.26l-.14-.17.09.2a4.07 4.07 0 0 1-.96 4.61 4.26 4.26 0 0 1-2.95 1.18h-.08l-2.77-.05h-.03v.01l-1.52-.03-4.31-.08h-.1a4.76 4.76 0 0 0-4.81 4.62 4.5 4.5 0 0 0 .94 2.86l.15.2-.1-.23a4.73 4.73 0 0 1-.45-2.1A4.96 4.96 0 0 1 8 9.95h.1l2.98.08-.01.92-3-.05H8a4.01 4.01 0 0 0-4.06 3.88c-.01.92.27 1.76.84 2.49l.14.17-.09-.2a4.07 4.07 0 0 1 .96-4.61 4.26 4.26 0 0 1 2.95-1.18h.08l2.77.05 1.58.03 4.3.08h.08Z" clip-rule="evenodd"/><path fill="#19AE82" d="M42.22 10.7v6.13h-1.81V10.8c0-2.3-1.1-3.5-3.07-3.5-2.13 0-3.42 1.53-3.42 4.01v5.5H32.1v-11h1.58l.24 1.49a4.51 4.51 0 0 1 3.73-1.62c2.55 0 4.57 1.36 4.57 5Zm1.36.63c0-3.35 2.3-5.64 5.61-5.64a5.37 5.37 0 0 1 5.62 5.64 5.37 5.37 0 0 1-5.62 5.63 5.37 5.37 0 0 1-5.61-5.63Zm9.37 0c0-2.36-1.51-4.06-3.76-4.06-2.24 0-3.75 1.7-3.75 4.06 0 2.35 1.51 4.05 3.75 4.05 2.25 0 3.76-1.7 3.76-4.05Zm12.31-9.61h1.82v15.1h-1.57l-.25-1.76a4.62 4.62 0 0 1-3.88 1.9c-3.13 0-5.44-2.05-5.44-5.63 0-3.37 2.31-5.64 5.44-5.64 1.91 0 3.2.76 3.88 1.82V1.72Zm.03 9.65c0-2.42-1.51-4.1-3.73-4.1-2.22 0-3.75 1.66-3.75 4.06 0 2.39 1.5 4.05 3.75 4.05 2.24 0 3.73-1.66 3.73-4.01Zm3.61-9.65h1.82v15.1h-1.81V1.73Zm3.36 9.61c0-3.35 2.17-5.64 5.37-5.64S82.9 7.66 83 10.91c0 .24-.02.5-.04.76h-8.8v.15c.07 2.1 1.43 3.56 3.58 3.56 1.6 0 2.84-.82 3.22-2.24h1.84c-.44 2.2-2.3 3.81-4.93 3.81-3.4 0-5.61-2.26-5.61-5.63Zm8.79-1.13c-.18-1.9-1.51-2.95-3.4-2.95a3.32 3.32 0 0 0-3.37 2.95h6.77Z"/></svg>