<svg xmlns="http://www.w3.org/2000/svg" fill="none" viewBox="0 0 428 138"><path fill="#FB5DEB" fill-rule="evenodd" d="M28.1 56.7v80.7H.2V56.2a56.6 56.6 0 1 1 84.2 49.9L70.8 81.7a28.7 28.7 0 1 0-42.7-25Zm47.2 53.5c-3 1-6.2 1.8-9.4 2.3L61.4 85l4.8-1.2 9 26.4Zm-37.7-.3c3 1 6.1 2 9.3 2.5l4.9-27.5c-1.6-.3-3.2-.7-4.7-1.3L37.6 110Z" clip-rule="evenodd"/><path fill="#0C0C0C" d="M152.1 58.7c10.5 0 16.8-7.7 16.8-17 0-9.1-6.3-17-16.8-17-10.4 0-16.7 7.9-16.7 17 0 9.3 6.3 17 16.7 17Zm0-7.5c-5.2 0-8-4.4-8-9.5 0-5 2.8-9.3 8-9.3s8.1 4.3 8.1 9.3c0 5.1-3 9.5-8 9.5ZM175 58h8.4V36.5c1.4-2.1 5-3.6 7.8-3.6.9 0 1.7 0 2.3.2v-8.3c-4 0-7.9 2.2-10.1 5.1v-4.4H175v32.3Zm27.8-37.2a5 5 0 0 0 5-5 5 5 0 0 0-5-5.1 5 5 0 0 0-5 5 5 5 0 0 0 5 5.1ZM198.7 58h8.3V25.6h-8.3v32.3Zm15.9 8.2c4 3.6 8.2 4.9 13.6 4.9 7.8 0 17.1-3 17.1-15.4V25.6H237v4.1c-2.5-3.2-6-5-9.7-5-8 0-14 6-14 16.6 0 10.7 6 16.4 14 16.4a12 12 0 0 0 9.7-5v3.2c0 6.4-4.7 8.2-8.7 8.2-4 0-7.3-1.1-9.9-4l-3.7 6.1Zm22.3-19.7a9.2 9.2 0 0 1-7.1 3.7c-4.7 0-8-3.4-8-9 0-5.5 3.3-8.8 8-8.8a9 9 0 0 1 7.1 3.6v10.5Zm20.8-25.7a5 5 0 0 0 5-5 5 5 0 0 0-5-5.1 5 5 0 0 0-5 5 5 5 0 0 0 5 5.1ZM253.6 58h8.3V25.6h-8.3v32.3Zm37.9 0h8.3V35c0-6.3-3.3-10.3-10.2-10.3-5.2 0-9 2.5-11.1 5v-4.2h-8.3v32.3h8.3V36.2a9 9 0 0 1 7.2-3.8c3.5 0 5.8 1.5 5.8 6v19.5Zm27.2.7c3.5 0 5.7-.9 7-2l-1.8-6.5c-.5.5-1.6 1-2.9 1-1.8 0-2.9-1.6-2.9-3.6V33h6.5v-7.4H318v-8.8h-8.3v8.8h-5.3V33h5.3v17c0 5.8 3.1 8.8 9 8.8Zm11.6-.7h8.3V36.5c1.4-2.1 5-3.6 7.8-3.6.9 0 1.7 0 2.3.2v-8.3c-4 0-7.9 2.2-10.1 5.1v-4.4h-8.3v32.3Zm45.3 0h8.4V25.5h-8.4v4.1c-2.5-3.2-6-5-9.7-5-8 0-14 6.5-14 17.1 0 10.8 6 17 14 17 3.8 0 7.2-1.8 9.7-5V58Zm0-10.5a9 9 0 0 1-7.2 3.7c-4.7 0-8-3.8-8-9.4 0-5.6 3.3-9.4 8-9.4a9 9 0 0 1 7.2 3.7v11.4Zm20.8-26.7a5 5 0 0 0 5-5 5 5 0 0 0-5-5.1 5 5 0 0 0-5 5 5 5 0 0 0 5 5.1ZM392.3 58h8.3V25.6h-8.3v32.3Zm25.5.7c3.4 0 5.6-.9 6.8-2l-1.7-6.5c-.4.5-1.6 1-2.8 1-1.9 0-3-1.6-3-3.6V13.3h-8.3v36.6c0 5.8 3.1 8.8 9 8.8Z"/><path fill="#FB5DEB" d="M135.4 137.4V92.2h8.3v4.1a11.8 11.8 0 0 1 9.7-5 12.8 12.8 0 0 1 12 8c1.3 2.6 2 5.7 2 9.2a22 22 0 0 1-2 9.3 12.8 12.8 0 0 1-17.5 6.7 13 13 0 0 1-4.2-3.7v16.6h-8.3Zm23.3-28.9c0-2.8-.7-5-2.2-6.8a7 7 0 0 0-5.7-2.7c-1.4 0-2.7.4-4 1.1a8.3 8.3 0 0 0-3.1 2.7v11.6a9.3 9.3 0 0 0 7 3.7 7 7 0 0 0 5.8-2.6c1.5-1.8 2.2-4.1 2.2-7Zm36.4 12.3a13.4 13.4 0 0 1-4.4 3.7c-1.6.8-3.4 1.3-5.3 1.3a13 13 0 0 1-12.2-8 22.2 22.2 0 0 1-1.7-9.2c0-3.5.6-6.5 1.7-9 1.3-2.7 3-4.7 5-6.1a12.8 12.8 0 0 1 12.6-.8c1.7.8 3.1 2 4.3 3.7v-4.2h8.4V125H195v-4.2Zm0-18a8 8 0 0 0-3-2.6c-1.4-.7-2.7-1-4.1-1a7 7 0 0 0-5.8 2.6c-1.4 1.7-2.2 4-2.2 6.8s.8 5.1 2.2 6.9a7.1 7.1 0 0 0 5.8 2.6c1.4 0 2.7-.3 4-1a8.6 8.6 0 0 0 3.1-2.7v-11.6Zm16.6-10.6h8.3v4.5c1-1.5 2.6-2.8 4.4-3.8 1.8-1 3.7-1.5 5.6-1.5v8.5a10.1 10.1 0 0 0-6.7.8 7 7 0 0 0-3.3 2.6V125h-8.3V92.2Zm45.1 28.6a13.4 13.4 0 0 1-4.4 3.7c-1.7.8-3.4 1.3-5.3 1.3a13 13 0 0 1-12.2-8 22.2 22.2 0 0 1-1.8-9.2c0-3.5.6-6.5 1.8-9a12.8 12.8 0 0 1 17.5-6.9c1.7.8 3.2 2 4.4 3.7v-4.2h8.3V125h-8.3v-4.2Zm0-18a8 8 0 0 0-3.1-2.6c-1.3-.7-2.7-1-4-1a7 7 0 0 0-5.8 2.6c-1.5 1.7-2.2 4-2.2 6.8s.7 5.1 2.2 6.9a7.1 7.1 0 0 0 5.7 2.6 8 8 0 0 0 4-1 8.6 8.6 0 0 0 3.2-2.7v-11.6Zm14.5 5.7c0-3.3.7-6.2 2.2-8.8 1.4-2.6 3.4-4.6 5.9-6 2.5-1.6 5.4-2.3 8.6-2.3 3 0 5.5.5 7.6 1.7 2 1.1 3.7 2.5 4.8 4.2l-5.4 5.3a7.5 7.5 0 0 0-6.6-3.6 8 8 0 0 0-6.2 2.7 9.8 9.8 0 0 0-2.3 6.8c0 2.9.7 5.2 2.3 7a8 8 0 0 0 6.2 2.6 8 8 0 0 0 3.8-.9c1.1-.6 2-1.5 2.8-2.6l5.4 5.2a13.6 13.6 0 0 1-4.8 4.3c-2 1.1-4.6 1.7-7.6 1.7a16 16 0 0 1-14.5-8.3 18.4 18.4 0 0 1-2.2-9Zm55.9-3.5c0-2.2-.5-3.7-1.5-4.6-1-1-2.5-1.4-4.4-1.4-1.5 0-2.8.4-4.1 1.2a9.6 9.6 0 0 0-3 2.7v22h-8.3V79.8h8.2v16.8a14.1 14.1 0 0 1 11.1-5.1c3.4 0 6 .9 7.6 2.7 1.8 1.8 2.6 4.3 2.6 7.6V125h-8.2v-20Zm38.1 15.8a13.4 13.4 0 0 1-4.4 3.7c-1.7.8-3.5 1.3-5.3 1.3a13 13 0 0 1-12.2-8 22.2 22.2 0 0 1-1.8-9.2c0-3.5.6-6.5 1.8-9a12.9 12.9 0 0 1 17.5-6.9c1.7.8 3.2 2 4.4 3.7v-4.2h8.3V125h-8.3v-4.2Zm0-18a8 8 0 0 0-3.1-2.6c-1.3-.7-2.7-1-4-1a7 7 0 0 0-5.8 2.6c-1.5 1.7-2.2 4-2.2 6.8s.7 5.1 2.2 6.9a7.1 7.1 0 0 0 5.7 2.6 8 8 0 0 0 4-1 8.6 8.6 0 0 0 3.2-2.7v-11.6ZM386 87.4c-1.4 0-2.6-.5-3.6-1.5s-1.4-2.3-1.4-3.7a5 5 0 0 1 1.4-3.6c1-1 2.2-1.5 3.5-1.5 1.4 0 2.6.5 3.6 1.4a5 5 0 0 1 1.4 3.7c0 1.4-.5 2.6-1.4 3.7a5 5 0 0 1-3.6 1.5Zm-4.2 4.8h8.3V125h-8.3V92.2Zm37.7 12.9c0-2.1-.5-3.7-1.5-4.6-1-1-2.4-1.5-4.3-1.5-1.5 0-2.9.4-4.1 1.2a9.9 9.9 0 0 0-3 2.7v22h-8.3V92.3h8.3v4.3a14.1 14.1 0 0 1 11-5.1c3.4 0 6 .9 7.6 2.8 1.8 1.8 2.6 4.4 2.6 7.6V125h-8.3v-20Z"/></svg>