<svg xmlns="http://www.w3.org/2000/svg" fill="none" viewBox="0 0 139 32"><path fill="url(#a)" d="m29.64 19.92-3.5-1.95-7.77 4.57a3.34 3.34 0 0 1-3.33 0L4.81 16.93 1.27 19c-.37.24-.67.58-.88 1a3.13 3.13 0 0 0 0 2.8c.2.42.51.77.88 1l13.7 7.55a3.26 3.26 0 0 0 3.33 0l11.27-6.66c.36-.23.67-.57.88-.99a3.12 3.12 0 0 0 .04-2.77c-.2-.42-.5-.77-.85-1.01Z"/><path fill="url(#b)" d="M12.81.45a3.34 3.34 0 0 1 3.33 0l13.51 7.62c.36.24.67.58.88 1a3.13 3.13 0 0 1 0 2.78c-.21.42-.52.77-.88 1l-11.27 6.66a3.27 3.27 0 0 1-3.33 0L1.33 11.9a2.5 2.5 0 0 1-.88-1 3.11 3.11 0 0 1 0-2.8c.21-.41.52-.76.88-.99L12.81.45Z"/><path fill="#2F2F2F" d="M45.88 5.97a4 4 0 0 0-4 4V26.3h4.4v-7.02h4.8c3.93 0 6.91-2.9 6.91-6.64 0-3.77-2.98-6.67-6.91-6.67h-5.2Zm.4 9.27v-5.23h4.58c1.6 0 2.74 1.05 2.74 2.6s-1.14 2.63-2.74 2.63h-4.58Zm23.47-1.68a4.56 4.56 0 0 0-3.5-1.44c-3.77 0-6.94 3.31-6.94 7.27 0 3.93 3.14 7.24 6.94 7.24 1.46 0 2.63-.49 3.5-1.44v1.11h4.01V14.43a2 2 0 0 0-2-2.01h-.87c-.63 0-1.14.51-1.14 1.14Zm-3.01 9.17a3.35 3.35 0 0 1-3.31-3.37 3.35 3.35 0 0 1 3.3-3.36c1.23 0 2.31.68 2.9 1.7v3.32a3.36 3.36 0 0 1-2.9 1.7Zm18.31-10.47h-.09c-1.73 0-3.17.62-4.12 1.79 0-.9-.73-1.63-1.62-1.63h-.37a2 2 0 0 0-2 2V26.3h4.13v-8.08c.62-1.24 2.14-1.92 4.36-1.92h.09l-.38-4.04Zm11.79 1.3a4.56 4.56 0 0 0-3.5-1.44c-3.77 0-6.94 3.31-6.94 7.27 0 3.93 3.14 7.24 6.94 7.24 1.47 0 2.63-.49 3.5-1.44v1.11h4.01V14.43a2 2 0 0 0-2-2.01h-.87c-.63 0-1.14.51-1.14 1.14Zm-3.01 9.17a3.35 3.35 0 0 1-3.3-3.37 3.34 3.34 0 0 1 3.3-3.36c1.22 0 2.3.68 2.9 1.7v3.32a3.36 3.36 0 0 1-2.9 1.7Zm14.24 3.57V7.21a2.06 2.06 0 0 0-4.12 0v19.1h4.12Zm7.18 0V7.21a2.06 2.06 0 0 0-4.12 0v19.1h4.12Zm16.72-6.88a7.2 7.2 0 1 0-14.4-.05c0 4.09 3.28 7.23 7.6 7.23 2.43 0 4.5-.97 5.82-2.65l-2.84-2.45a3.54 3.54 0 0 1-3.12 1.58c-1.66 0-2.85-.84-3.31-2.23h10.06c.1-.46.19-.95.19-1.43Zm-7.16-3.75c1.52 0 2.6.82 3.06 2.15h-6.12a3.09 3.09 0 0 1 3.06-2.15ZM138.4 26.3V7.21a2.06 2.06 0 0 0-4.13 0v19.1h4.12Z"/><defs><linearGradient id="a" x1="30.78" x2=".07" y1="22.78" y2="22.78" gradientUnits="userSpaceOnUse"><stop stop-color="#EF18AC"/><stop offset="1" stop-color="#FAD972"/></linearGradient><linearGradient id="b" x1="26.94" x2=".13" y1="15.09" y2="15.09" gradientUnits="userSpaceOnUse"><stop stop-color="#5314F1"/><stop offset="1" stop-color="#04E2FF"/></linearGradient></defs></svg>