<svg xmlns="http://www.w3.org/2000/svg" fill="none" viewBox="0 0 87 20"><g fill="#fff" clip-path="url(#a)"><path d="M29.43 11.75c.08.5.34.94.77 1.3.44.38.95.56 1.55.56.43 0 .84-.1 1.21-.28.38-.2.64-.37.8-.55l.23-.28 1 .97-.14.16a4.55 4.55 0 0 1-1.06.8 4.5 4.5 0 0 1-2.04.51 3.76 3.76 0 0 1-2.72-1.1 3.6 3.6 0 0 1-1.14-2.68c0-1.04.37-1.86 1.11-2.57a3.71 3.71 0 0 1 2.67-1.07c1.04 0 1.9.33 2.6 1 .69.66 1.03 1.5 1.03 2.5l-.08.74h-5.79Zm.83-2.49c-.38.32-.63.73-.76 1.23h4.29a2.02 2.02 0 0 0-2.12-1.7 2.1 2.1 0 0 0-1.4.47Zm8.04-.85.1-.1.28-.2a3.7 3.7 0 0 1 1.1-.5c.25-.06.5-.09.76-.09.9 0 1.62.28 2.17.85.56.56.84 1.32.84 2.28v4.15H42v-4.15a1.73 1.73 0 0 0-1.77-1.79c-.59 0-1.06.19-1.4.55-.36.36-.53.88-.53 1.53v3.86h-1.55V7.67h1.55v.74Zm11.1-.79a3.14 3.14 0 0 1 1.16.53l.31.23.1.11V5.15h1.55v9.65h-1.55v-.82c-.07.07-.16.16-.3.27-.12.1-.4.25-.81.43a3.48 3.48 0 0 1-3.82-.82 3.6 3.6 0 0 1-1.08-2.63c0-1.03.36-1.9 1.08-2.63a3.47 3.47 0 0 1 3.36-.98Zm.9 5.3c.45-.47.67-1.03.67-1.68a2.3 2.3 0 0 0-.67-1.68c-.46-.47-.97-.7-1.56-.7-.58 0-1.1.23-1.56.7a2.31 2.31 0 0 0-.68 1.68c0 .65.23 1.21.68 1.68.46.46.97.7 1.56.7.59 0 1.1-.24 1.56-.7Zm14.5 1.88h-1.54V5.15h1.54v9.65Zm20.25-4.15c0-.59-.14-1.03-.42-1.33-.27-.3-.65-.46-1.12-.46-.47 0-.89.19-1.21.56a2.2 2.2 0 0 0-.49 1.52v3.86h-1.54v-4.15c0-.59-.14-1.03-.42-1.33-.28-.3-.66-.46-1.13-.46-.47 0-.88.19-1.2.56-.33.37-.5.88-.5 1.52v3.86h-1.54V7.67h1.55v.74l.25-.25a3.14 3.14 0 0 1 1.75-.64c.3 0 .58.04.85.12a2 2 0 0 1 .64.3 3.33 3.33 0 0 1 .67.65l.08.12.1-.12a4.4 4.4 0 0 1 .82-.66 3.3 3.3 0 0 1 1.63-.4c.86 0 1.54.26 2.04.79.49.53.74 1.3.74 2.33v4.15h-1.55v-4.15Zm-27.16 4.34a3.35 3.35 0 0 1-3.42-3.28V7.68h1.56v4.03c0 .98.83 1.87 1.86 1.87a1.9 1.9 0 0 0 1.85-1.87V7.68h1.56v4.03c0 1.8-1.53 3.28-3.41 3.28Zm12.27 0a3.35 3.35 0 0 1-3.4-3.28V7.68h1.55v4.03c0 .98.83 1.87 1.85 1.87a1.9 1.9 0 0 0 1.86-1.87V7.68h1.56v4.03c0 1.8-1.54 3.28-3.42 3.28Zm-49.31-3.15v2.96h-1.7V5.15h4.32c1.03 0 1.9.33 2.6.98a3.12 3.12 0 0 1 1.04 2.31c0 .91-.37 1.8-1.05 2.43a3.7 3.7 0 0 1-2.59.97h-1.74v-.79c0-.39.33-.7.73-.7h1.01c.54 0 .99-.18 1.37-.53.37-.36.56-.8.56-1.32 0-.53-.19-.97-.56-1.32a1.9 1.9 0 0 0-1.37-.54h-2.62v5.2Z"/></g><g fill="#fff" clip-path="url(#b)"><path d="M7.53 0A7.45 7.45 0 0 0 0 7.16a7.33 7.33 0 0 0 3.46 6.41c.1.06.24.03.3-.08l1.65-3.3c.25-.48.21-1.06-.08-1.51-.26-.4-.4-.86-.4-1.36a2.47 2.47 0 1 1 4.93.22A2.46 2.46 0 0 1 7.6 9.8h-.03c-.54.04-1.03.35-1.27.84l-1.67 3.3a.2.2 0 0 0 .11.28A7.42 7.42 0 0 0 14.8 7.35 7.37 7.37 0 0 0 7.53 0ZM2.47 19.6a2.46 2.46 0 1 0 0-4.9A2.46 2.46 0 0 0 0 17.13c0 1.36 1.1 2.45 2.47 2.45Z"/></g><defs><clipPath id="a"><path fill="#fff" d="M19 5h68v10H19z"/></clipPath><clipPath id="b"><path fill="#fff" d="M0 0h15v20H0z"/></clipPath></defs></svg>