<svg xmlns="http://www.w3.org/2000/svg" fill="none" viewBox="0 0 82 20"><g clip-path="url(#a)"><path fill="#fff" d="M34.93 3.74V0h-1.7v7.48h1.7V5.24h3.44v2.25h1.7V.01h-1.7v3.73h-3.44Zm-5.72 1.61c1.93 0 3.03-1 3.03-2.74 0-1.66-1.1-2.6-3.03-2.6H26v7.48h1.7V5.35h1.5Zm-.09-3.93c.96 0 1.5.41 1.5 1.24 0 .85-.54 1.28-1.5 1.3H27.7V1.41h1.42Zm17.53 4.57h-3.47l-.6 1.5h-1.77l3.3-7.48h1.76l3.24 7.48h-1.83L46.65 6Zm-.6-1.5-1.12-2.72L43.8 4.5h2.24ZM57.61 6h3.47l.61 1.5h1.83L60.3.01h-1.76l-3.29 7.48h1.77l.6-1.5Zm1.75-4.22 1.11 2.73h-2.24l1.13-2.73ZM51.6.01v6h3.25V7.5H49.9V.01h1.71ZM31.23 17.29l-3.68-4.81H26v7.47h1.63v-4.8l3.67 4.8h1.55v-7.47h-1.62v4.8Zm8.5-4.81v1.4h-4.08v1.62h3.65v1.4h-3.65v1.66h4.18v1.4h-5.88v-7.48h5.77Zm6.99 1.43v-1.43h-6.33v1.43h2.31v6.04h1.71v-6.04h2.31Zm2.33-1.43 1.6 5.64 1.57-5.64h1.68l1.6 5.64 1.58-5.64h1.75l-2.51 7.48h-1.77l-1.52-5.33-1.56 5.32h-1.75l-2.5-7.48 1.83.01ZM63.01 20c2.3 0 4.04-1.65 4.04-3.8 0-2.14-1.74-3.76-4.04-3.76s-4.04 1.61-4.04 3.77C58.97 18.36 60.7 20 63 20Zm-1.63-2.15a2.3 2.3 0 0 1 .79-3.77 2.37 2.37 0 0 1 2.55.51 2.3 2.3 0 0 1-1.69 3.94c-.62 0-1.21-.25-1.65-.68Zm10.94 2.1-1.2-2.13h-1.74v2.13h-1.7v-7.47h3.28c1.98 0 3.1.94 3.1 2.6 0 1.15-.5 1.98-1.41 2.41l1.62 2.46h-1.95Zm-2.94-3.54h1.58c.95 0 1.49-.43 1.49-1.29 0-.85-.54-1.24-1.49-1.24h-1.58v2.53Zm8.31.5 2.18 3.04h2.06l-3.04-4.35 2.85-3.12h-1.98l-3.15 3.4v-3.4H74.9v7.47h1.7v-1.84l1.1-1.2Z"/></g><g clip-path="url(#b)"><path fill="#000" fill-opacity=".8" d="M10 20a10 10 0 1 0 0-20 10 10 0 0 0 0 20Z"/><path fill="#fff" d="M13.3 4.9H5.25v4.98h2V6.89h6.03V4.91Zm0 2h2v2.98h-2V6.89Zm-8.04 4.97h2v2.98h-2v-2.99Zm2-2h6.03v2H7.27v-2Z"/></g><defs><clipPath id="a"><path fill="#fff" d="M26 0h56v20H26z"/></clipPath><clipPath id="b"><path fill="#fff" d="M0 0h20v20H0z"/></clipPath></defs></svg>