<svg xmlns="http://www.w3.org/2000/svg" fill="none" viewBox="0 0 95 20"><g clip-path="url(#a)"><path fill="#fff" d="M29.24 2.98c-1.1 0-2.16.14-2.6.26-.62.17-.78.45-.9 1.01l-2.5 11.46c-.04.23-.08.43-.08.62 0 .57.38.94.99.94.67 0 .94-.43 1.08-1.1l.7-3.26c.5.06 1.15.12 2.08.12 4.07 0 6.6-2.19 6.6-5.5 0-2.89-2.02-4.55-5.37-4.55Zm-1.33 8.17c-.63 0-1.13-.02-1.58-.08L27.65 5a12 12 0 0 1 1.65-.14c2.17 0 3.27 1.02 3.27 2.7 0 2.15-1.57 3.6-4.66 3.6Zm65.45 2.35c-.33 0-.55.2-.96.64-.73.74-1.19 1.15-1.76 1.15-.5 0-.78-.4-.78-1.07 0-.37.08-.82.18-1.3l.72-3.41h2.19c.69 0 1.1-.4 1.1-1.1 0-.39-.25-.68-.84-.68h-2.05l.35-1.58c.04-.23.08-.45.08-.65 0-.54-.38-.94-.99-.94-.64 0-.94.43-1.08 1.1l-.45 2.07h-.93c-.7 0-1.12.4-1.12 1.1 0 .39.28.68.87.68h.8l-.72 3.36a8.1 8.1 0 0 0-.18 1.6c0 1.59.83 2.74 2.6 2.74a4 4 0 0 0 2.62-1.12c.67-.58 1.16-1.3 1.16-1.77a.81.81 0 0 0-.81-.82ZM48.1 4.14c0-.57-.4-.94-1-.94-.66 0-.95.43-1.09 1.1l-2.46 11.35c-.06.23-.1.43-.1.62 0 .57.4.94.99.94.67 0 .96-.43 1.1-1.1L48 4.76c.04-.23.1-.43.1-.62Zm35.12 3.4c-3.14 0-5.29 3.1-5.29 6.05v.17c-.5.74-1.12 1.51-1.55 1.51-.32 0-.44-.29-.44-.74 0-.55.16-1.46.34-2.27l1.63-7.5c.04-.23.08-.43.08-.63 0-.56-.38-.93-.98-.93-.67 0-.95.42-1.09 1.09l-.88 4.06a2.9 2.9 0 0 0-2.2-.82c-2.1 0-4.2 1.6-5.02 4.05-.9 2.32-1.71 3.7-2.35 3.7-.23 0-.37-.2-.37-.54 0-.97.55-3.36.78-4.51.08-.43.12-.6.12-.86 0-.86-1.43-1.88-3.3-1.88a5.78 5.78 0 0 0-5.1 3.38c-1.46 2.56-2.8 4.4-3.46 4.4-.3 0-.4-.37-.48-.72l-.49-2.7 3.01-2.44c.28-.23.63-.56.63-1 0-.52-.35-.87-.88-.87-.4 0-.73.23-1.06.5l-4.53 3.72 1.52-7c.04-.23.1-.43.1-.62 0-.57-.4-.94-1-.94-.66 0-.95.43-1.1 1.1l-2.45 11.35c-.06.23-.1.43-.1.62 0 .57.4.94.98.94.67 0 .97-.43 1.1-1.1l.32-1.46 1.85-1.49.45 2.27c.18.9.65 1.78 1.87 1.78 1.22 0 2.17-1.1 3.13-2.59.29 1.56 1.4 2.59 2.96 2.59 1.55 0 2.61-.92 3.3-2.15v.04c0 1.27.65 2.1 1.8 2.1 1.03 0 1.88-.6 2.65-1.92a2.85 2.85 0 0 0 2.75 1.93c1.6 0 2.74-.96 3.47-2.29v.12c0 1.4.7 2.17 1.87 2.17 1.02 0 1.9-.6 2.64-1.55.56.96 1.58 1.55 2.95 1.55 3.15 0 5.29-3.1 5.29-6.08 0-2.09-1.28-3.6-3.47-3.6ZM63.61 11.5c-.58 2.45-1.8 3.83-3.17 3.83-.93 0-1.44-.7-1.44-1.75 0-2.08 1.51-4.3 3.54-4.3.61 0 1.08.17 1.5.43l-.43 1.8Zm10.96-1.03c-.63 2.87-2.07 4.86-3.64 4.86-.87 0-1.38-.66-1.38-1.75 0-2.1 1.45-4.26 3.4-4.26.75 0 1.32.25 1.73.58l-.11.57Zm7.06 4.86c-1.14 0-1.61-.82-1.61-1.85 0-1.9 1.32-4.07 2.97-4.07 1.14 0 1.61.82 1.61 1.86 0 1.91-1.32 4.06-2.97 4.06ZM39.52 7.54c-3.15 0-5.3 3.1-5.3 6.05 0 2.11 1.28 3.62 3.47 3.62 3.15 0 5.29-3.1 5.29-6.08 0-2.09-1.28-3.6-3.46-3.6Zm-1.6 7.8c-1.14 0-1.61-.83-1.61-1.86 0-1.9 1.32-4.07 2.97-4.07 1.14 0 1.62.82 1.62 1.86 0 1.91-1.32 4.06-2.98 4.06Z"/><path fill="#E6007A" d="M9.47 4.2c2 0 3.63-.94 3.63-2.1C13.1.94 11.47 0 9.47 0S5.84.94 5.84 2.1c0 1.16 1.62 2.1 3.63 2.1Zm0 15.8c2 0 3.63-.94 3.63-2.1 0-1.16-1.63-2.1-3.63-2.1s-3.63.94-3.63 2.1c0 1.16 1.62 2.1 3.63 2.1ZM4.4 7.1c1.01-1.73 1-3.6 0-4.17C3.37 2.35 1.74 3.27.74 5c-1 1.72-1 3.6.01 4.17 1.01.58 2.64-.35 3.65-2.07ZM18.19 15c1-1.73 1-3.6-.01-4.17-1.02-.58-2.65.35-3.65 2.07-1 1.73-1 3.6.01 4.17 1.01.58 2.65-.35 3.65-2.07ZM4.4 17.07c1-.58 1.01-2.44 0-4.17-1-1.72-2.63-2.65-3.64-2.07-1 .58-1.02 2.44-.01 4.17 1 1.72 2.63 2.65 3.64 2.07Zm13.78-7.9c1-.58 1.01-2.44 0-4.17-1-1.72-2.63-2.65-3.64-2.07-1 .58-1.01 2.44 0 4.17 1 1.72 2.63 2.65 3.64 2.07Z"/></g><defs><clipPath id="a"><path fill="#fff" d="M0 0h94.17v20H0z"/></clipPath></defs></svg>