<svg xmlns="http://www.w3.org/2000/svg" fill="none" viewBox="0 0 99 20"><path fill="#fff" d="M20.23 17.3v-2.75l-4.7-4.75H12.7l7.53 7.5ZM0 2.93v2.74l4.7 4.75h2.83L0 2.93ZM2.47 0h2.75l4.74 4.7 4.7-4.7h2.87L9.96 7.53 2.46 0Zm.46 20h2.75l4.74-4.7 4.7 4.7H18l-7.57-7.53L2.93 20Z"/><path fill="#E6007A" d="M10.15 11.72a1.25 1.25 0 1 0 0-2.5 1.25 1.25 0 0 0 0 2.5Zm87.15-.04a1.34 1.34 0 0 1 1.38 1.07c.05.2.04.43 0 .63-.11.48-.39.91-.78 1.2a2 2 0 0 1-1.3.48 1.33 1.33 0 0 1-1.1-.47 1.34 1.34 0 0 1-.2-1.2c.09-.48.34-.9.72-1.21.35-.32.81-.5 1.29-.5Z"/><path fill="#fff" d="M30.96 11.52h-.75a.78.78 0 0 1-.68-.29.78.78 0 0 1-.1-.68c.04-.26.18-.49.38-.66.21-.2.5-.3.8-.3h.74l.77-3.52c.05-.3.22-.56.47-.73.22-.16.48-.24.75-.25a.9.9 0 0 1 .61.23.74.74 0 0 1 .16.75l-.77 3.52h.75c.36 0 .7-.07 1.03-.22a3.2 3.2 0 0 0 1.43-1.4c.16-.29.27-.6.35-.93.05-.3.07-.59.05-.89a1.96 1.96 0 0 0-.22-.79 1.47 1.47 0 0 0-.54-.57 1.67 1.67 0 0 0-.9-.21h-3.96c-.27 0-.55.03-.82.08-.28.06-.55.15-.8.3-.26.12-.48.3-.67.52-.2.23-.33.5-.38.8-.08.29-.04.6.1.87.13.24.27.48.43.7a.8.8 0 0 1 .21.77c-.06.26-.2.5-.4.66a1.03 1.03 0 0 1-1.38.07 3.18 3.18 0 0 1-.93-3.07c.11-.56.35-1.08.68-1.54a4.8 4.8 0 0 1 1.2-1.14 5.98 5.98 0 0 1 3.18-.94h3.83a3.5 3.5 0 0 1 1.79.39 2.92 2.92 0 0 1 1.55 2.44 5.43 5.43 0 0 1-.71 3.22 5.26 5.26 0 0 1-2.61 2.42c-.6.26-1.25.4-1.9.39h-.76l-.2.97c-.08.34-.2.67-.34.98a2.5 2.5 0 0 1-1.39 1.33c-.37.14-.76.21-1.15.2a3.6 3.6 0 0 1-.94-.14 1.3 1.3 0 0 1-.82-.7.85.85 0 0 1-.13-.63c.07-.27.23-.52.46-.68.22-.18.49-.27.77-.27a.87.87 0 0 1 .66.29.46.46 0 0 0 .4.2.37.37 0 0 0 .33-.23c.13-.32.23-.65.29-.99l.08-.33Zm7.46-.6a4.7 4.7 0 0 1 .67-1.6 5.62 5.62 0 0 1 2.64-2.2 4.4 4.4 0 0 1 1.66-.33c.54 0 1.07.1 1.56.34a3.11 3.11 0 0 1 1.72 2.2c.1.52.1 1.06-.02 1.59a4.8 4.8 0 0 1-.67 1.58 5.71 5.71 0 0 1-2.64 2.18c-.54.2-1.11.32-1.69.32-.53 0-1.05-.1-1.53-.32a3.01 3.01 0 0 1-1.72-2.18c-.11-.52-.1-1.06.02-1.58Zm6.3 0c.07-.29.07-.58.02-.87a1.66 1.66 0 0 0-.92-1.21 1.85 1.85 0 0 0-.82-.18 2.84 2.84 0 0 0-1.69.66 3.14 3.14 0 0 0-.98 1.6 1.8 1.8 0 0 0 .29 1.57 1.7 1.7 0 0 0 1.43.65c.3 0 .6-.06.89-.18a3.02 3.02 0 0 0 1.78-2.04Zm7.19-7.86c-.04 0-.07.05-.1.13l-.07.29-1.9 9a29.16 29.16 0 0 0-.17.62 1.09 1.09 0 0 1 .79-.36.77.77 0 0 1 .58.24.63.63 0 0 1 .13.63 1.2 1.2 0 0 1-.32.6c-.22.29-.52.5-.86.64-.27.1-.56.15-.86.15a1.36 1.36 0 0 1-1.2-.5 2.24 2.24 0 0 1-.12-1.67l1.99-9.3c.07-.4.2-.81.37-1.2.13-.26.3-.5.53-.7.2-.18.44-.3.7-.36.3-.07.61-.1.92-.1h.17a.65.65 0 0 1 .57.3.78.78 0 0 1 .11.64c-.05.25-.2.47-.39.64-.18.2-.44.3-.7.31h-.17Zm3.85 10.16a5.98 5.98 0 0 1-.35-.83 1.8 1.8 0 0 1-.06-.98c.07-.28.24-.52.47-.7.28-.2.57-.4.88-.56.27-.15.5-.35.71-.59.16-.17.28-.37.34-.6.05-.2-.11-.3-.47-.3a2.2 2.2 0 0 0-1.61.68 3.91 3.91 0 0 0-1.11 2.13l-.54 2.6a1.05 1.05 0 0 1-.47.7c-.22.14-.47.22-.74.22a.82.82 0 0 1-.59-.22.71.71 0 0 1-.13-.7L54.3 3.61c.08-.42.2-.82.38-1.21.12-.28.3-.52.53-.73.2-.17.43-.29.7-.35.29-.06.6-.1.9-.1H57a.62.62 0 0 1 .57.3c.12.19.16.42.11.64a1.37 1.37 0 0 1-.7.85.95.95 0 0 1-.37.08h-.2c-.03 0-.06.04-.08.13l-.08.3-.95 4.42c.4-.34.83-.63 1.3-.85.4-.19.83-.3 1.27-.3a2.02 2.02 0 0 1 1.5.55 1.48 1.48 0 0 1 .34 1.47 3.4 3.4 0 0 1-.88 1.62c-.44.48-.98.86-1.58 1.1l.19.36.26.53c.08.16.17.32.28.47.1.13.18.2.27.2.11-.1.24-.17.37-.25a.9.9 0 0 1 .74-.05c.1.04.2.1.26.18a.64.64 0 0 1 .12.63c-.05.22-.15.43-.31.6a2.66 2.66 0 0 1-1.6.79 1.65 1.65 0 0 1-1.3-.56 3 3 0 0 1-.42-.57c-.13-.21-.24-.43-.36-.65Zm11.82-.77a10.52 10.52 0 0 1-.19.66l.1-.08c.2-.17.46-.26.73-.27a.7.7 0 0 1 .56.24.67.67 0 0 1 .12.61c-.06.24-.18.46-.35.64-.24.24-.53.44-.84.57-.26.11-.54.17-.82.18a1.21 1.21 0 0 1-1.36-1.06c-.36.32-.76.57-1.19.77a3.29 3.29 0 0 1-2.66.01c-.32-.17-.6-.43-.78-.75a2.52 2.52 0 0 1-.3-1.1 6.47 6.47 0 0 1 .73-3 6.3 6.3 0 0 1 1.06-1.54c.42-.45.92-.83 1.46-1.11a3.75 3.75 0 0 1 1.75-.42c.48-.02.95.14 1.31.45a1.21 1.21 0 0 1 .93-.46.8.8 0 0 1 .6.24.74.74 0 0 1 .13.72l-1 4.7Zm-2.36-3.8c-.33 0-.65.1-.93.29-.29.2-.55.43-.76.7a4.37 4.37 0 0 0-.95 2.48c0 .18.04.35.1.52.07.15.18.27.32.36.16.1.35.14.54.14.3 0 .6-.08.88-.23.28-.16.54-.36.75-.6a3.89 3.89 0 0 0 .91-1.83c.12-.42.1-.86-.03-1.27a.8.8 0 0 0-.84-.55Zm11.75 3.82a28.21 28.21 0 0 0-.17.62c.13-.1.27-.2.42-.26.13-.04.26-.07.39-.07a.7.7 0 0 1 .56.24.67.67 0 0 1 .12.61 1.9 1.9 0 0 1-.33.64 2.24 2.24 0 0 1-1.68.75c-.37.02-.73-.09-1.03-.31a1.28 1.28 0 0 1-.4-.93 4.8 4.8 0 0 1-1.24.9 3.25 3.25 0 0 1-2.78.06 1.8 1.8 0 0 1-.77-.75 2.64 2.64 0 0 1-.3-1.1 6.27 6.27 0 0 1 .74-3c.28-.56.64-1.08 1.07-1.54.41-.45.9-.83 1.45-1.1a3.7 3.7 0 0 1 1.73-.43 1.47 1.47 0 0 1 1.35.7l1.2-5.64c.05-.28.21-.53.44-.7.21-.14.46-.23.72-.23a.86.86 0 0 1 .62.24.69.69 0 0 1 .14.7l-2.25 10.6Zm-2.62-3.81c-.32 0-.65.1-.92.28-.29.2-.55.43-.77.7a4.37 4.37 0 0 0-.94 2.48c0 .18.03.35.1.52.07.14.18.27.32.36.17.1.36.14.56.13.3 0 .62-.08.89-.24.28-.16.53-.37.75-.62a3.93 3.93 0 0 0 .89-1.79c.11-.42.1-.86-.03-1.27a.8.8 0 0 0-.85-.55ZM82.23 15c-.52.01-1.04-.1-1.51-.32-.42-.2-.77-.5-1.04-.88a3.13 3.13 0 0 1-.52-1.3 4.08 4.08 0 0 1 .06-1.58 5.59 5.59 0 0 1 1.68-2.93 4.88 4.88 0 0 1 3.13-1.2c.5 0 .99.07 1.45.25.35.13.67.34.92.62.23.24.38.54.44.87.06.32.06.66-.01.98a3.44 3.44 0 0 1-3.42 2.57c-.18 0-.35 0-.53-.03a1.89 1.89 0 0 1-.5-.12.73.73 0 0 1-.36-.29.77.77 0 0 1-.06-.55 1.33 1.33 0 0 1 .73-.88 1.01 1.01 0 0 1 .78.01c.15.06.3.09.46.08a.95.95 0 0 0 .68-.25c.15-.13.26-.3.31-.5a.67.67 0 0 0-.2-.6c-.3-.23-.69-.33-1.06-.28a2.27 2.27 0 0 0-1.64.66 3.2 3.2 0 0 0-.9 1.6 2.1 2.1 0 0 0 .19 1.57 1.37 1.37 0 0 0 1.27.65c.32 0 .64-.05.94-.15a3 3 0 0 0 .88-.52c.2-.18.46-.28.73-.29a.74.74 0 0 1 .73.57.7.7 0 0 1 0 .35 1.3 1.3 0 0 1-.15.34c-.07.12-.16.24-.27.34-.43.43-.95.75-1.53.94-.54.18-1.11.27-1.68.27Zm9.84-4.23 1.54 2.72c.06.08.1.18.11.28 0 .1 0 .19-.03.28-.07.26-.22.5-.44.66-.2.18-.45.29-.72.3a.74.74 0 0 1-.62-.35l-1.35-2.33-2.28 2.32a.95.95 0 0 1-.4.28c-.13.04-.26.07-.39.07a.7.7 0 0 1-.58-.29.76.76 0 0 1-.15-.66l.1-.27c.05-.11.13-.21.22-.3l2.65-2.69-1.39-2.44a.97.97 0 0 1-.04-.56c.06-.27.22-.5.44-.67.2-.17.45-.27.72-.28.12 0 .24.03.34.1.12.05.22.14.28.25l1.16 2.05 2.03-2.05a1.21 1.21 0 0 1 .77-.35.75.75 0 0 1 .61.3.77.77 0 0 1 .16.67c-.06.21-.18.4-.34.54l-2.4 2.42Z"/></svg>