<svg xmlns="http://www.w3.org/2000/svg" fill="none" viewBox="0 0 94 20"><path fill="#FBF0FA" d="M28.79 12.96c.54 0 .94-.06 1.19-.2.25-.13.37-.36.37-.68a.9.9 0 0 0-.4-.75 5.6 5.6 0 0 0-1.32-.64c-.37-.14-.72-.28-1.04-.43-.3-.17-.57-.35-.8-.56-.22-.2-.4-.46-.54-.74-.13-.3-.19-.67-.19-1.1 0-.83.3-1.48.9-1.96a3.8 3.8 0 0 1 2.46-.72 7.34 7.34 0 0 1 2.57.43l-.38 1.7a4.85 4.85 0 0 0-2.1-.42c-.41 0-.75.08-1.01.23a.7.7 0 0 0-.4.66c0 .15.03.28.07.4.06.11.15.22.28.32.12.1.29.2.49.3.2.1.45.19.75.3.49.18.9.36 1.24.55.34.17.62.37.84.6.22.22.39.48.5.77.1.29.14.63.14 1.04 0 .86-.31 1.52-.95 1.97-.62.44-1.52.66-2.69.66a6.98 6.98 0 0 1-2.9-.52l.36-1.75a5.8 5.8 0 0 0 2.56.54Zm12.43 1.23a17.5 17.5 0 0 1-3.64.49c-.72 0-1.32-.1-1.81-.32A2.97 2.97 0 0 1 34 12.18a7.27 7.27 0 0 1-.19-1.7V5.4h2.06v4.75c0 .97.14 1.67.41 2.08.28.42.77.63 1.47.63a9.33 9.33 0 0 0 1.4-.13V5.4h2.07v8.79Zm8.11-4.29c0-.88-.18-1.59-.53-2.1-.34-.53-.89-.79-1.64-.79a3 3 0 0 0-1.68.5v5.22a7.02 7.02 0 0 0 1.41.14 2.2 2.2 0 0 0 1.79-.78c.43-.53.65-1.26.65-2.18Zm2.1.04c0 .73-.1 1.39-.31 1.98a4.11 4.11 0 0 1-2.32 2.44c-.56.22-1.19.33-1.9.33a11.91 11.91 0 0 1-3.48-.5V1.36l2.06-.34v4.7a4.07 4.07 0 0 1 2.03-.5 3.68 3.68 0 0 1 2.91 1.29c.33.42.58.92.75 1.5.18.59.27 1.23.27 1.93Zm3.94 3.02c.54 0 .94-.06 1.19-.2.25-.13.37-.36.37-.68a.9.9 0 0 0-.4-.75 5.6 5.6 0 0 0-1.32-.64c-.37-.14-.72-.28-1.03-.43a3.78 3.78 0 0 1-.8-.56c-.23-.2-.41-.46-.55-.74-.12-.3-.19-.67-.19-1.1 0-.83.3-1.48.9-1.96A3.8 3.8 0 0 1 56 5.18a7.34 7.34 0 0 1 2.57.43l-.38 1.7a4.85 4.85 0 0 0-2.1-.42c-.41 0-.75.08-1.01.23a.7.7 0 0 0-.4.66c0 .15.03.28.07.4.06.11.15.22.28.32.12.1.29.2.5.3.2.1.45.19.74.3.49.18.9.36 1.24.55.34.17.62.37.84.6.23.22.39.48.5.77.1.29.15.63.15 1.04 0 .86-.32 1.52-.96 1.97-.62.44-1.52.66-2.69.66a6.98 6.98 0 0 1-2.9-.52l.36-1.75a5.8 5.8 0 0 0 2.56.54Zm13.18-3.03a6 6 0 0 1-.3 1.95c-.21.6-.5 1.1-.87 1.51a4.25 4.25 0 0 1-3.1 1.32c-.64 0-1.22-.12-1.74-.35a3.93 3.93 0 0 1-1.35-.97 4.57 4.57 0 0 1-.88-1.5c-.2-.6-.3-1.25-.3-1.96 0-.72.1-1.37.3-1.95a3.9 3.9 0 0 1 2.25-2.46 4.2 4.2 0 0 1 1.72-.34 4.2 4.2 0 0 1 3.08 1.3c.37.41.66.92.87 1.5.21.58.32 1.23.32 1.95Zm-2.11 0c0-.9-.2-1.62-.58-2.14-.38-.53-.9-.8-1.58-.8-.69 0-1.22.27-1.6.8a3.58 3.58 0 0 0-.57 2.14c0 .9.19 1.63.56 2.16.4.53.92.8 1.6.8.69 0 1.21-.27 1.59-.8.39-.53.58-1.25.58-2.16Zm3.31.01c0-.67.1-1.3.31-1.87a4.11 4.11 0 0 1 2.26-2.53 4.48 4.48 0 0 1 1.84-.36c.85 0 1.64.15 2.39.46l-.44 1.72A4.58 4.58 0 0 0 74.34 7c-.81 0-1.42.26-1.84.78a3.3 3.3 0 0 0-.63 2.16c0 .9.2 1.62.6 2.15.39.52 1.06.78 2 .78a5.18 5.18 0 0 0 1.93-.36l.29 1.73a7.07 7.07 0 0 1-2.45.45 5.3 5.3 0 0 1-2-.34 4 4 0 0 1-1.4-1 4.29 4.29 0 0 1-.81-1.5 6.45 6.45 0 0 1-.28-1.9Zm10.18 4.53h-2.06V5.4h2.06v9.07Zm.22-11.72c0 .4-.12.7-.37.94-.25.23-.55.34-.89.34-.35 0-.65-.11-.9-.34a1.21 1.21 0 0 1-.37-.94 1.23 1.23 0 0 1 1.27-1.3 1.24 1.24 0 0 1 1.26 1.3ZM85.27 13a7.4 7.4 0 0 0 1.45-.11v-2.32a3.94 3.94 0 0 0-1.21-.16c-.23 0-.46.02-.7.05-.23.04-.44.1-.63.2-.18.09-.33.22-.44.4a.97.97 0 0 0-.17.62c0 .5.15.84.46 1.04.3.18.72.27 1.24.27Zm-.17-7.82c.68 0 1.25.08 1.72.26a2.61 2.61 0 0 1 1.7 1.87c.13.44.19.92.19 1.45v5.5a20.5 20.5 0 0 1-3.61.4 6.2 6.2 0 0 1-1.47-.16 2.5 2.5 0 0 1-1.87-1.4 3.27 3.27 0 0 1-.25-1.37c0-.52.1-.96.29-1.32.2-.36.47-.65.81-.87.34-.23.74-.39 1.18-.48a6.32 6.32 0 0 1 2.93.03v-.34c0-.25-.03-.48-.09-.7a1.34 1.34 0 0 0-.3-.57 1.3 1.3 0 0 0-.57-.4 2.3 2.3 0 0 0-.86-.14 7.65 7.65 0 0 0-2.29.35l-.25-1.7a8.8 8.8 0 0 1 2.74-.42Zm5.67 9.29V1.37l2.06-.35v13.45h-2.06Z"/><path fill="#FBF0FA" fill-rule="evenodd" d="M19.65 10c0 5.52-4.4 10-9.82 10A9.91 9.91 0 0 1 0 10C0 4.48 4.4 0 9.83 0a9.91 9.91 0 0 1 9.82 10ZM9.8 2.13c-2 0-3.63 1.66-3.63 3.7v2.4a3.67 3.67 0 0 0 4.45 3.6c.16-.03.2-.23.09-.34l-.02-.02-2.1-2.04a1.78 1.78 0 0 1-.52-1.26V5.9c0-.98.77-1.77 1.73-1.77s1.74.8 1.74 1.77v.08a.95.95 0 1 0 1.9 0v-.15c0-2.04-1.63-3.7-3.64-3.7Zm3.64 11.84c0 2.04-1.63 3.7-3.64 3.7-2 0-3.63-1.66-3.63-3.7v-.15a.95.95 0 1 1 1.9 0v.08c0 .98.77 1.77 1.73 1.77s1.74-.8 1.74-1.77v-2.27c0-.5-.2-.94-.53-1.26L8.9 8.33V8.3c-.12-.12-.08-.31.08-.35a3.67 3.67 0 0 1 4.46 3.6v2.4Z" clip-rule="evenodd"/></svg>