<svg xmlns="http://www.w3.org/2000/svg" fill="none" viewBox="0 0 61 20"><path fill="#40BCFF" fill-rule="evenodd" d="M34.559 18.037c0 .23.211.401.433.343 3.64-.95 6.324-4.251 6.324-8.177 0-4.669-3.796-8.453-8.478-8.453s-8.478 3.784-8.478 8.453c0 4.016 2.81 7.378 6.576 8.239a.35.35 0 0 0 .424-.346v-2a.375.375 0 0 0-.264-.354c-1.193-.383-2.158-1.062-2.894-2.035-.785-1.045-1.177-2.255-1.177-3.631 0-1.818.685-3.308 2.055-4.469 1.139-.961 2.434-1.442 3.888-1.442 1.873 0 3.384.677 4.533 2.031a5.684 5.684 0 0 1 1.393 3.789 6.18 6.18 0 0 1-1.235 3.772c-.69.938-1.636 1.6-2.836 1.985a.375.375 0 0 0-.264.354v1.94Zm-.108-6.687c0-.2-.162-.362-.362-.362h-2.25a.362.362 0 0 0-.363.362v.137c0 .307-.348.46-.523.208-.315-.452-.472-.986-.472-1.603 0-.702.246-1.31.738-1.823.491-.514 1.075-.771 1.749-.771.668 0 1.248.257 1.74.77a2.55 2.55 0 0 1 .738 1.824c0 .598-.156 1.125-.467 1.58-.175.257-.528.105-.528-.205v-.117Z" clip-rule="evenodd"/><path fill="#fff" d="M.705 7.012c0-.2.162-.362.362-.362h2.964c.2 0 .363.162.363.362v4.856c0 .228.05.407.152.539a.458.458 0 0 0 .372.193c.15 0 .3-.07.45-.208a.685.685 0 0 0 .23-.524V7.012c0-.2.163-.362.363-.362H8.97c.2 0 .363.162.363.362v5c0 .826-.21 1.543-.632 2.15a3.952 3.952 0 0 1-1.646 1.373 5.07 5.07 0 0 1-3.694.213 4.202 4.202 0 0 1-1.362-.762 3.638 3.638 0 0 1-.945-1.26c-.232-.5-.348-1.072-.348-1.714v-5Zm9.858 8.464a.363.363 0 0 1-.362-.362v-5.41c0-.728.2-1.35.602-1.868.405-.52.94-.912 1.602-1.176a5.65 5.65 0 0 1 2.107-.395c.758 0 1.478.138 2.16.415.686.273 1.24.684 1.66 1.23.425.547.638 1.193.638 1.938v5.266c0 .2-.162.362-.363.362h-3.15a.362.362 0 0 1-.362-.362V10.09c0-.198-.056-.345-.167-.44a.535.535 0 0 0-.372-.148.7.7 0 0 0-.45.178.513.513 0 0 0-.216.41v5.024c0 .2-.163.362-.363.362h-2.964Zm9.633 0a.362.362 0 0 1-.362-.362V6.73c0-.2.162-.362.362-.362h3.111c.2 0 .363.162.363.362v8.383c0 .2-.163.362-.363.362h-3.11Zm21.791-8.464c0-.2.162-.362.363-.362h2.963c.2 0 .363.162.363.362v4.856c0 .228.05.407.152.539a.458.458 0 0 0 .372.193c.15 0 .3-.07.45-.208a.685.685 0 0 0 .231-.524V7.012c0-.2.162-.362.363-.362h3.008c.2 0 .362.162.362.362v5c0 .826-.21 1.543-.632 2.15a3.952 3.952 0 0 1-1.646 1.373 5.07 5.07 0 0 1-3.694.213 4.201 4.201 0 0 1-1.361-.762 3.637 3.637 0 0 1-.946-1.26c-.232-.5-.348-1.072-.348-1.714v-5ZM60.71 9.408a.352.352 0 0 1-.157.449l-3.98 2.19a.362.362 0 0 1-.489-.136l-.584-1.014a.362.362 0 0 1 .141-.5l1.116-.604c.212-.115.245-.406.013-.476a1.221 1.221 0 0 0-.355-.05c-.404 0-.808.183-1.212.534-.084.07-.46.352-.572.647a.79.79 0 0 0-.041.421c.014.127.39 1.153.71 1.519.335.38.71.562 1.157.562.648 0 1.352-.36 2.083-1.08a.377.377 0 0 1 .526-.01l1.548 1.498a.34.34 0 0 1 .04.455 5.164 5.164 0 0 1-1.09 1.02 6.497 6.497 0 0 1-1.686.83 6.142 6.142 0 0 1-1.797.28 5.263 5.263 0 0 1-1.7-.28 4.245 4.245 0 0 1-1.477-.858c-.446-.38-.795-.871-1.073-1.462a5.681 5.681 0 0 1-.502-2.038v-.239c0-1.026.237-1.911.697-2.642.46-.731 1.059-1.293 1.77-1.659.724-.365 1.449-.562 2.187-.562 2.213 0 3.79 1.068 4.726 3.205Z"/></svg>