<svg xmlns="http://www.w3.org/2000/svg" fill="none" viewBox="0 0 100 20"><g clip-path="url(#a)"><path fill="#fff" d="M28.7 13.89v-1.05l3.18-4.5h-3.02v-1.6h5.82v1.08l-3.15 4.47h3.22v1.6h-6.06Zm9.76.11c-.63 0-1.19-.1-1.67-.3-.48-.2-.86-.51-1.13-.92-.26-.41-.4-.91-.4-1.51 0-.84.25-1.5.73-2s1.2-.76 2.17-.76a3 3 0 0 1 2.06.66c.5.43.75 1.03.75 1.79v.92h-3.74c.1.28.29.48.58.6s.68.18 1.17.18a5.66 5.66 0 0 0 1.7-.28v1.25a5.4 5.4 0 0 1-2.22.37Zm-1.23-3.26h1.9v-.18a.73.73 0 0 0-.2-.52c-.14-.13-.37-.2-.7-.2-.37 0-.63.08-.79.24-.14.15-.21.37-.21.66Zm4.68-2.82v-1.5h2.31v1.5h-2.3Zm.17 5.97v-3.75h-.78l.18-1.52h2.74v5.27h-2.14Zm5.47.11c-.72 0-1.24-.18-1.57-.53a2.06 2.06 0 0 1-.49-1.45v-1.85h-.7V8.62h.7V7.54l2.14-.5v1.58h1.24l-.08 1.55h-1.16v1.7c0 .22.06.38.17.47.12.1.29.14.52.14.22 0 .45-.04.67-.11v1.39c-.4.16-.88.24-1.44.24Zm4.38 1.84a12.12 12.12 0 0 1-2.44-.27v-1.34c.2.07.44.13.7.17a10.1 10.1 0 0 0 2.55.07c.24-.04.36-.11.36-.21 0-.1-.04-.15-.12-.18a1.82 1.82 0 0 0-.43-.04h-1.42c-.55 0-.98-.08-1.28-.25a.86.86 0 0 1-.45-.79c0-.49.28-.83.83-1.02a1.61 1.61 0 0 1-.68-.6 1.7 1.7 0 0 1-.22-.9c0-.67.24-1.17.7-1.5a3.7 3.7 0 0 1 2.07-.47c.18 0 .4.02.63.05l.51.06h2.12L55.3 9.9h-.71a1 1 0 0 1 .2.62c0 .54-.16.97-.49 1.29-.32.31-.82.47-1.51.47a4.91 4.91 0 0 1-.64-.05 1.7 1.7 0 0 0-.43.1c-.12.04-.18.11-.18.21 0 .08.03.13.1.16.07.02.17.03.29.03h1.23c.56 0 1 .13 1.31.38.32.25.48.62.48 1.11 0 .52-.25.92-.74 1.2-.5.29-1.26.43-2.3.43Zm.18-4.72c.33 0 .56-.05.69-.16.13-.12.2-.3.2-.56 0-.26-.07-.45-.2-.57-.13-.12-.36-.17-.7-.17-.3 0-.53.05-.67.17-.14.11-.2.3-.2.57 0 .25.05.44.18.56.14.1.37.16.7.16ZM58.89 14c-.63 0-1.19-.1-1.67-.3-.48-.2-.86-.51-1.13-.92-.26-.41-.4-.91-.4-1.51 0-.84.25-1.5.73-2 .49-.5 1.2-.76 2.17-.76a3 3 0 0 1 2.06.66c.5.43.75 1.03.75 1.79v.92h-3.74c.1.28.3.48.58.6.29.12.68.18 1.17.18a5.66 5.66 0 0 0 1.7-.28v1.25a5.4 5.4 0 0 1-2.22.37Zm-1.23-3.26h1.9v-.18a.73.73 0 0 0-.2-.52c-.14-.13-.37-.2-.7-.2-.37 0-.63.08-.78.24-.15.15-.22.37-.22.66Zm4.68-2.82v-1.5h2.31v1.5h-2.3Zm.17 5.97v-3.75h-.78l.18-1.52h2.74v5.27h-2.14Zm5.27.11a8.12 8.12 0 0 1-2.26-.33v-1.5a5.48 5.48 0 0 0 2.5.36c.14-.02.21-.09.21-.2 0-.12-.12-.22-.37-.29-.25-.06-.57-.16-.95-.28a3.03 3.03 0 0 1-1.1-.6c-.24-.23-.36-.57-.36-1 0-.53.21-.93.63-1.22.43-.28 1.1-.43 2-.43a7.81 7.81 0 0 1 1.96.26v1.46A4.44 4.44 0 0 0 67.9 10c-.19.02-.28.08-.28.19 0 .12.1.2.32.25l.87.25c.41.12.73.25.96.39.23.14.4.3.49.5.1.2.14.46.14.75 0 .54-.22.95-.67 1.25a3.6 3.6 0 0 1-1.96.43Zm5.57 0c-.72 0-1.24-.18-1.57-.53a2.05 2.05 0 0 1-.48-1.45v-1.85h-.7V8.62h.7V7.54l2.13-.5v1.58h1.24l-.08 1.55h-1.16v1.7c0 .22.06.38.17.47.12.1.29.14.53.14.21 0 .44-.04.67-.11v1.39c-.4.16-.89.24-1.45.24Z"/><path fill="#0001FE" d="M78.98 14.11v-1.89h2.09v1.9h-2.1Z"/><mask id="b" width="20" height="20" x="0" y="0" maskUnits="userSpaceOnUse" style="mask-type:luminance"><path fill="#fff" d="M19.89 0H0v19.67h19.89V0Z"/></mask><g mask="url(#b)"><path fill="#fff" d="M9.94 0a10 10 0 0 0-6.39 2.3h12.79A9.99 9.99 0 0 0 9.94 0Zm0 19.67c2.32 0 4.56-.79 6.35-2.25H3.6a10 10 0 0 0 6.34 2.25ZM14.7 5h3.92a9.69 9.69 0 0 0-1.13-1.58H2.41A9.78 9.78 0 0 0 .87 5.8H14.1l.58-.8Zm-4.84 5.42H0c.05.82.2 1.62.45 2.4h8.48l.58-.82h10.15c.12-.52.2-1.05.23-1.58H9.85Zm2.22-1.92h7.74a9.58 9.58 0 0 0-.35-1.58H.43A9.7 9.7 0 0 0 0 9.29h11.49l.58-.8Zm-9.64 7.8h3.94l.58-.8h11.13c.35-.5.66-1.03.92-1.58H.88c.4.86.93 1.67 1.56 2.38Z"/></g><path fill="#fff" d="M85.8 13.82V6.67h3.26c.56 0 1.02.1 1.38.3.37.22.64.5.81.86.17.36.26.77.26 1.23 0 .7-.23 1.28-.68 1.7-.45.44-1.05.65-1.82.65h-1.98v2.41H85.8Zm1.23-3.36h1.75c.5 0 .87-.13 1.12-.38.25-.25.37-.6.37-1.02 0-.46-.12-.82-.36-1.07-.24-.25-.6-.38-1.07-.38h-1.8v2.85Zm5.47 3.36V6.67h1.27l2.32 4.63 2.3-4.63h1.28v7.15h-1.23V8.63l-1.98 3.96h-.75l-1.98-3.96v5.2H92.5Z"/></g><defs><clipPath id="a"><path fill="#fff" d="M0 0h100v20H0z"/></clipPath></defs></svg>